SplineFontDB: 1.0
FontName: Purisa
FullName: Purisa
FamilyName: Purisa
Weight: Medium
Copyright: Purisa, Thai handwriting outline font.\n\nCopyright (C) 2003, 2004 Poonlap Veerathanabutr <poonlap@linux.thai.net>, GPL license
Comments: 2003-11-27: Created.\n\nAcknowlegement:\nHanwriting by Ms.Purisa Cholasueksa. \nCo-operated by Mr.Teeratep Sosakul.\n\n2004-02-14:\nModified most characters. Make numbers bigger.
Version: 002.002: 2005-12-28
ItalicAngle: 0
UnderlinePosition: -100
UnderlineWidth: 50
Ascent: 800
Descent: 200
FSType: 12
PfmFamily: 65
TTFWeight: 300
TTFWidth: 5
LineGap: 113
VLineGap: 0
Panose: 2 0 6 3 0 0 0 0 0 0
OS2TypoAscent: 0
OS2TypoAOffset: 1
OS2TypoDescent: 0
OS2TypoDOffset: 1
OS2TypoLinegap: 0
OS2WinAscent: 0
OS2WinAOffset: 1
OS2WinDescent: 0
OS2WinDOffset: 1
HheadAscent: 0
HheadAOffset: 1
HheadDescent: 0
HheadDOffset: 1
OS2Vendor: 'PfEd'
ScriptLang: 4
 1 thai 4 KUY  PAL  THA  dflt 
 1 latn 1 dflt 
 1 DFLT 1 dflt 
 1 thai 1 PAL  
ContextSub: glyph 0 3 ' RQD' 0 0 0 1
 String: 15 uni0E0D uni0E10
 BString: 0 
 FString: 0 
 1
  SeqLookup: 0 'ndsc'
EndFPST
ChainSub: coverage 0 0 'ccmp' 0 0 0 1
 2 0 0
  Coverage: 19 uni0E4B uni0E4B.low
  Coverage: 7 uni0E4D
 2
  SeqLookup: 0 'amni'
  SeqLookup: 1 'G007'
EndFPST
ChainSub: coverage 0 0 'ccmp' 0 0 0 1
 2 0 0
  Coverage: 19 uni0E4A uni0E4A.low
  Coverage: 7 uni0E4D
 2
  SeqLookup: 0 'amni'
  SeqLookup: 1 'G006'
EndFPST
ChainSub: coverage 0 0 'ccmp' 0 0 0 1
 2 0 0
  Coverage: 19 uni0E49 uni0E49.low
  Coverage: 7 uni0E4D
 2
  SeqLookup: 0 'amni'
  SeqLookup: 1 'G005'
EndFPST
ChainSub: coverage 0 0 'ccmp' 0 0 0 1
 2 0 0
  Coverage: 19 uni0E48 uni0E48.low
  Coverage: 7 uni0E4D
 2
  SeqLookup: 0 'amni'
  SeqLookup: 1 'G004'
EndFPST
ChainSub: coverage 0 0 'ccmp' 0 0 0 1
 1 0 1
  Coverage: 15 uni0E0D uni0E10
  FCoverage: 23 uni0E38 uni0E39 uni0E3A
 1
  SeqLookup: 0 'nds0'
EndFPST
ChainSub: coverage 0 0 'ccmp' 0 0 0 1
 1 2 0
  Coverage: 39 uni0E48 uni0E49 uni0E4A uni0E4B uni0E4C

StartChar: uni0E34
Encoding: 147 3636 0
Width: 0
Flags: HW
AnchorPoint: "AboveMark" -97 780 basemark 0
AnchorPoint: "AboveBase" -62 560 mark 0
Fore
-319 757 m 0
 -298 763 -264 767 -243 765 c 0
 -193 761 -131 733 -127 713 c 0
 -125 704 -116 688 -106 676 c 0
 -91 659 -65 591 -65 572 c 0
 -65 569 -74 566 -85 566 c 0
 -96 566 -105 570 -105 575 c 0
 -105 580 -151 584 -223 584 c 0
 -379 585 -448 593 -461 609 c 0
 -468 619 -465 633 -448 661 c 0
 -423 703 -375 739 -319 757 c 0
-217 714 m 0
 -270 737 -307 729 -362 682 c 2
 -411 639 l 1
 -377 633 l 2
 -357 629 -330 628 -315 630 c 0
 -300 633 -252 631 -210 626 c 0
 -168 621 -131 618 -129 619 c 0
 -121 626 -192 703 -217 714 c 0
EndSplineSet
EndChar
StartChar: uni0E35
Encoding: 148 3637 1
Width: 0
Flags: HW
AnchorPoint: "AboveMark" -83 780 basemark 0
AnchorPoint: "AboveBase" -62 560 mark 0
Fore
-105 799 m 0
 -100 808 -87 814 -74 814 c 2
 -52 814 l 5
 -58 725 l 2
 -66 618 -72 595 -92 591 c 0
 -100 589 -122 600 -139 614 c 0
 -156 628 -171 640 -172 641 c 0
 -173 641 -249 644 -342 647 c 0
 -488 651 -512 654 -520 666 c 0
 -527 677 -524 686 -503 706 c 0
 -489 720 -473 731 -467 731 c 0
 -461 731 -451 736 -446 742 c 0
 -441 748 -409 758 -376 764 c 0
 -282 780 -223 766 -167 713 c 0
 -143 690 -123 677 -119 682 c 0
 -115 687 -113 712 -113 738 c 0
 -113 763 -110 791 -105 799 c 0
-254 719 m 0
 -289 733 -336 735 -356 723 c 0
 -364 718 -381 714 -394 714 c 0
 -408 714 -419 711 -419 706 c 0
 -419 701 -380 698 -321 698 c 0
 -266 698 -222 700 -222 702 c 0
 -222 705 -237 712 -254 719 c 0
EndSplineSet
EndChar
StartChar: uni0E36
Encoding: 149 3638 2
Width: 0
Flags: HW
AnchorPoint: "AboveMark" -148 780 basemark 0
AnchorPoint: "AboveBase" -92 560 mark 0
Fore
-472 718 m 0
 -430 743 -415 748 -380 748 c 0
 -327 748 -293 728 -266 682 c 0
 -255 663 -243 647 -239 647 c 0
 -234 647 -215 661 -194 679 c 0
 -162 705 -151 710 -127 708 c 0
 -101 706 -96 702 -91 681 c 0
 -86 662 -89 649 -100 628 c 0
 -124 582 -157 560 -175 577 c 0
 -179 580 -189 586 -198 588 c 0
 -212 593 -217 589 -223 569 c 0
 -235 537 -265 539 -271 573 c 0
 -274 596 -276 597 -313 595 c 0
 -335 594 -397 592 -453 591 c 2
 -553 589 l 1
 -556 613 l 2
 -557 626 -553 642 -547 648 c 0
 -542 654 -534 665 -529 673 c 0
 -525 681 -499 701 -472 718 c 0
-316 687 m 0
 -335 705 -345 709 -373 708 c 0
 -432 707 -444 702 -480 664 c 0
 -514 629 -514 628 -495 625 c 0
 -485 624 -435 627 -385 632 c 0
 -284 644 -278 648 -316 687 c 0
-136 639 m 0
 -125 662 -126 663 -144 663 c 0
 -165 663 -175 647 -167 628 c 0
 -160 610 -149 614 -136 639 c 0
EndSplineSet
EndChar
StartChar: uni0E37
Encoding: 150 3639 3
Width: 0
Flags: HW
AnchorPoint: "AboveMark" -156 780 basemark 0
AnchorPoint: "AboveBase" -62 560 mark 0
Fore
-123 833 m 0
 -107 856 -100 856 -78 837 c 0
 -66 826 -61 803 -61 748 c 0
 -61 671 -76 637 -105 648 c 0
 -128 655 -142 805 -123 833 c 0
-231 843 m 0
 -211 855 -205 854 -189 837 c 0
 -178 825 -178 808 -188 749 c 0
 -194 709 -200 663 -200 646 c 0
 -200 630 -203 609 -206 601 c 0
 -215 582 -249 582 -262 602 c 0
 -269 614 -280 616 -308 611 c 0
 -443 587 -543 599 -550 640 c 0
 -555 675 -522 724 -478 746 c 0
 -413 779 -331 771 -279 727 c 2
 -256 709 l 1
 -251 772 l 2
 -247 810 -239 839 -231 843 c 0
-327 700 m 0
 -376 731 -413 732 -459 704 c 0
 -484 689 -498 674 -496 664 c 0
 -493 650 -478 647 -394 645 c 0
 -303 642 -296 643 -296 661 c 0
 -296 672 -310 689 -327 700 c 0
EndSplineSet
EndChar
StartChar: uni0E38
Encoding: 151 3640 4
Width: 0
Flags: HW
AnchorPoint: "BelowBase" -182 -38 mark 0
Fore
-281 -50 m 0
 -250 -28 -216 -36 -199 -71 c 0
 -191 -88 -188 -113 -186 -191 c 2
 -183 -289 l 1
 -197 -285 l 2
 -204 -282 -213 -277 -215 -274 c 0
 -218 -270 -220 -237 -220 -200 c 2
 -220 -132 l 1
 -267 -133 l 2
 -314 -133 -315 -133 -321 -118 c 0
 -325 -105 -324 -98 -313 -82 c 0
 -306 -72 -291 -57 -281 -50 c 0
-228 -87 m 0
 -228 -71 -231 -69 -246 -68 c 0
 -266 -66 -274 -70 -283 -88 c 0
 -293 -107 -292 -108 -259 -106 c 0
 -230 -104 -228 -103 -228 -87 c 0
EndSplineSet
EndChar
StartChar: uni0E39
Encoding: 152 3641 5
Width: 0
Flags: HW
AnchorPoint: "BelowBase" -182 -38 mark 0
Fore
-332 -62 m 0
 -322 -56 -306 -51 -296 -51 c 0
 -276 -51 -247 -70 -247 -84 c 0
 -247 -88 -244 -92 -241 -92 c 0
 -238 -92 -235 -99 -235 -106 c 0
 -235 -114 -232 -135 -228 -152 c 2
 -221 -183 l 1
 -214 -165 l 2
 -211 -155 -206 -129 -203 -107 c 0
 -199 -61 -189 -44 -173 -57 c 0
 -162 -66 -162 -86 -173 -137 c 0
 -184 -187 -204 -237 -216 -241 c 0
 -229 -246 -247 -224 -247 -203 c 0
 -247 -177 -264 -115 -272 -115 c 0
 -275 -115 -287 -119 -298 -122 c 0
 -320 -131 -362 -121 -368 -106 c 0
 -372 -96 -356 -77 -332 -62 c 0
-290 -73 m 0
 -298 -67 -305 -68 -321 -75 c 0
 -350 -90 -324 -116 -294 -104 c 0
 -277 -97 -276 -83 -290 -73 c 0
EndSplineSet
EndChar
StartChar: uni0E3A
Encoding: 153 3642 6
Width: 0
Flags: HW
AnchorPoint: "BelowBase" -182 -38 mark 0
Fore
-266 -57 m 4
 -167 -32 -179 -179 -268 -197 c 4
 -380 -218 -349 -77 -266 -57 c 4
EndSplineSet
EndChar
StartChar: uni0E48
Encoding: 163 3656 7
Width: 0
Flags: HW
HStem: 945 25G<-121 -89>
AnchorPoint: "AboveMark" -108 780 mark 0
Fore
-121 970 m 1
 -89 970 l 1
 -89 877 l 0
 -89 862 -79 844 -127 843 c 1
 -121 970 l 1
EndSplineSet
Substitution: 0 65534 'loww' uni0E48.low
Substitution: 0 65534 'amni' uni0E4D
EndChar
StartChar: uni0E49
Encoding: 164 3657 8
Width: 0
Flags: HW
AnchorPoint: "AboveMark" -100 780 mark 0
Fore
-11 996 m 0
 -4 1007 13 1008 17 999 c 4
 21 987 13 973 -17 943 c 0
 -34 925 -49 909 -49 906 c 0
 -49 904 -65 887 -85 870 c 0
 -142 819 -149 813 -156 813 c 0
 -159 813 -169 807 -177 799 c 0
 -188 789 -196 785 -202 786 c 0
 -223 789 -211 819 -169 864 c 2
 -147 889 l 1
 -153 901 l 2
 -157 908 -162 918 -165 923 c 0
 -171 934 -171 986 -165 992 c 0
 -163 995 -151 997 -139 997 c 0
 -119 997 -116 996 -103 982 c 0
 -89 969 -88 966 -88 945 c 0
 -88 930 -90 919 -95 910 c 0
 -106 892 -99 894 -85 912 c 0
 -79 919 -61 940 -46 956 c 0
 -30 973 -14 991 -11 996 c 0
-125 960 m 0
 -140 972 -142 971 -142 959 c 0
 -142 945 -131 920 -125 922 c 0
 -123 923 -119 930 -117 937 c 0
 -114 949 -114 951 -125 960 c 0
EndSplineSet
Substitution: 0 65534 'loww' uni0E49.low
Substitution: 0 65534 'amni' uni0E4D
EndChar
StartChar: uni0E4B
Encoding: 166 3659 9
Width: 0
Flags: HMW
AnchorPoint: "AboveMark" -103 780 mark 0
Fore
-109 993 m 0
 -108 996 -102 997 -96 997 c 0
 -84 995 -80 985 -79 948 c 2
 -79 926 l 1
 -45 925 l 1
 -12 924 l 1
 -12 911 l 1
 -12 899 l 1
 -45 897 l 2
 -84 896 -83 911 -87 839 c 6
 -89 821 l 1
 -103 821 l 1
 -117 821 l 1
 -116 841 l 2
 -115 867 -114 879 -113 886 c 2
 -110 898 l 1
 -133 895 l 2
 -146 894 -163 889 -171 884 c 0
 -192 872 -202 874 -203 891 c 0
 -205 903 -203 905 -185 914 c 0
 -173 920 -155 924 -136 925 c 2
 -106 927 l 1
 -109 958 l 2
 -111 975 -111 991 -109 993 c 0
EndSplineSet
Substitution: 0 65534 'loww' uni0E4B.low
Substitution: 0 65534 'amni' uni0E4D
EndChar
StartChar: uni0E4C
Encoding: 167 3660 10
Width: 0
Flags: HW
AnchorPoint: "AboveMark" -60 780 mark 0
Fore
1 1045 m 0
 9 1055 23 1054 27 1042 c 0
 33 1026 -13 911 -25 911 c 0
 -28 911 -39 918 -48 926 c 0
 -74 948 -104 945 -136 918 c 0
 -157 900 -150 889 -115 886 c 0
 -76 882 -71 879 -71 862 c 4
 -71 843 -89 828 -117 825 c 0
 -137 822 -145 824 -162 837 c 0
 -186 856 -192 875 -182 901 c 0
 -172 925 -127 968 -108 973 c 0
 -92 977 -53 971 -43 963 c 0
 -35 956 -34 958 -17 1003 c 0
 -10 1021 -2 1041 1 1045 c 0
-94 855 m 0
 -94 866 -109 870 -121 862 c 0
 -129 856 -129 854 -122 848 c 0
 -112 839 -94 844 -94 855 c 0
EndSplineSet
Substitution: 0 65534 'loww' uni0E4C.low
EndChar
StartChar: exclam
Encoding: 1 33 12
Width: 519
Flags: HW
Fore
244 119 m 0
 263 127 302 121 311 110 c 0
 322 96 321 70 309 38 c 0
 296 3 278 -6 253 8 c 0
 243 13 232 17 229 17 c 0
 217 17 201 36 201 50 c 0
 201 69 228 112 244 119 c 0
217 550 m 0
 219 552 233 553 248 551 c 0
 262 549 290 545 309 544 c 2
 344 540 l 1
 341 503 l 2
 339 482 330 445 322 421 c 0
 308 381 288 301 279 251 c 0
 275 228 267 219 254 226 c 0
 244 231 240 255 232 361 c 0
 231 382 227 412 225 429 c 0
 222 446 221 472 223 486 c 0
 224 502 223 513 219 516 c 0
 211 520 210 543 217 550 c 0
EndSplineSet
EndChar
StartChar: quotedbl
Encoding: 2 34 13
Width: 572
Flags: HW
Fore
194 695 m 0
 215 722 243 710 254 669 c 0
 259 649 269 615 274 594 c 0
 300 503 279 449 229 478 c 0
 201 494 172 667 194 695 c 0
311 717 m 0
 321 744 336 741 357 708 c 0
 367 691 376 641 378 577 c 0
 382 488 379 474 363 470 c 0
 351 468 338 477 330 492 c 0
 315 522 301 688 311 717 c 0
EndSplineSet
EndChar
StartChar: numbersign
Encoding: 3 35 14
Width: 655
Flags: HW
Fore
428 537 m 0
 439 576 445 584 462 582 c 0
 480 579 483 572 481 536 c 0
 479 496 480 494 506 494 c 0
 524 495 535 489 537 477 c 0
 542 454 504 415 485 423 c 0
 473 427 468 418 463 389 c 0
 460 367 453 329 449 305 c 2
 441 261 l 1
 506 267 l 2
 571 273 572 273 568 248 c 0
 565 227 555 220 504 207 c 0
 422 185 417 182 416 131 c 0
 415 58 405 35 373 31 c 2
 344 28 l 1
 351 97 l 1
 359 165 l 1
 324 165 l 2
 273 165 266 156 253 82 c 0
 240 3 223 -23 199 -1 c 0
 187 9 185 25 190 78 c 2
 197 145 l 1
 140 145 l 2
 108 145 80 149 77 155 c 0
 65 175 103 200 154 205 c 0
 210 211 217 219 229 286 c 0
 232 309 238 339 242 353 c 2
 248 378 l 1
 175 370 l 2
 104 363 102 364 102 388 c 0
 102 408 111 414 148 425 c 0
 174 432 205 437 218 437 c 0
 250 437 256 448 264 515 c 0
 269 560 274 569 292 571 c 0
 313 574 315 569 318 519 c 0
 321 465 321 464 351 467 c 0
 400 473 414 485 428 537 c 0
387 312 m 0
 404 410 402 414 350 402 c 0
 304 392 305 393 289 272 c 2
 282 217 l 1
 312 223 l 2
 328 227 349 232 358 235 c 0
 370 238 378 261 387 312 c 0
EndSplineSet
EndChar
StartChar: dollar
Encoding: 4 36 15
Width: 628
Flags: HW
Fore
336 739 m 0
 339 750 351 756 367 756 c 0
 392 756 393 754 387 719 c 0
 370 624 367 578 378 578 c 0
 391 578 472 501 472 488 c 0
 472 466 447 470 410 499 c 0
 387 517 367 529 365 527 c 0
 364 525 359 494 355 458 c 2
 349 391 l 1
 381 375 l 2
 453 338 483 269 457 195 c 0
 434 129 396 86 349 72 c 0
 298 58 291 44 279 -57 c 0
 274 -101 268 -139 266 -141 c 0
 264 -142 251 -145 238 -147 c 0
 214 -149 213 -146 215 -104 c 0
 216 -80 222 -28 229 11 c 2
 241 82 l 1
 205 113 l 2
 140 168 100 281 146 281 c 0
 159 281 172 267 186 239 c 0
 198 217 217 186 227 173 c 2
 246 149 l 1
 253 188 l 2
 257 210 264 242 270 262 c 0
 284 318 281 338 254 344 c 0
 217 354 179 388 172 420 c 0
 163 462 220 553 270 576 c 0
 305 592 308 597 319 657 c 0
 325 693 333 730 336 739 c 0
294 433 m 0
 298 462 299 499 297 514 c 2
 294 544 l 1
 261 500 l 2
 243 476 228 449 228 439 c 0
 228 422 266 380 281 380 c 0
 285 380 291 404 294 433 c 0
386 306 m 0
 372 320 356 331 351 331 c 0
 339 331 320 248 312 161 c 0
 306 87 312 79 351 120 c 0
 413 185 428 266 386 306 c 0
EndSplineSet
EndChar
StartChar: percent
Encoding: 5 37 16
Width: 734
Flags: HW
Fore
491 172 m 0
 522 204 542 203 566 170 c 0
 584 144 584 138 563 99 c 0
 536 48 484 26 454 55 c 0
 437 70 436 77 450 109 c 0
 459 129 477 158 491 172 c 0
176 473 m 0
 193 491 208 490 233 469 c 0
 277 433 249 342 194 342 c 0
 151 342 139 433 176 473 c 0
546 518 m 0
 610 572 632 577 632 538 c 0
 632 510 595 464 462 320 c 0
 431 286 388 235 368 208 c 0
 348 180 283 110 223 52 c 0
 144 -27 110 -52 95 -46 c 0
 58 -33 74 -0 160 85 c 0
 251 175 381 323 449 415 c 0
 472 446 514 491 546 518 c 0
EndSplineSet
EndChar
StartChar: ampersand
Encoding: 6 38 17
Width: 734
Flags: HW
Fore
229 586 m 0
 259 604 291 616 299 613 c 0
 307 610 322 608 329 608 c 0
 338 608 351 588 358 564 c 0
 373 517 370 507 305 369 c 0
 282 321 280 307 291 292 c 0
 318 258 363 217 389 204 c 0
 419 189 436 203 489 288 c 0
 524 344 555 364 578 344 c 0
 602 325 599 317 542 245 c 0
 484 170 472 148 492 148 c 0
 499 148 513 141 522 132 c 0
 531 123 549 116 562 116 c 0
 599 116 651 84 651 61 c 0
 651 15 566 30 484 90 c 2
 446 117 l 1
 389 67 l 2
 330 16 241 -41 213 -45 c 0
 186 -48 146 -26 131 2 c 0
 104 51 112 116 158 211 c 2
 202 302 l 1
 184 357 l 2
 139 491 148 536 229 586 c 0
301 498 m 0
 301 558 297 561 259 535 c 0
 237 521 233 508 233 460 c 0
 233 428 237 399 242 396 c 0
 248 393 263 403 276 417 c 0
 294 437 301 458 301 498 c 0
339 165 m 0
 311 182 278 208 266 222 c 2
 245 248 l 1
 211 182 l 2
 174 112 167 50 192 29 c 0
 204 20 222 27 275 60 c 0
 312 83 353 104 364 106 c 0
 400 113 392 133 339 165 c 0
EndSplineSet
EndChar
StartChar: quotesingle
Encoding: 7 39 18
Width: 613
Flags: HW
Fore
250 684 m 0
 260 703 268 704 326 698 c 0
 362 694 396 688 401 685 c 0
 413 677 400 619 382 599 c 0
 374 590 363 554 358 519 c 0
 351 467 345 455 328 453 c 0
 292 448 257 495 255 551 c 0
 254 577 249 601 245 605 c 0
 234 616 237 660 250 684 c 0
EndSplineSet
EndChar
StartChar: parenleft
Encoding: 8 40 19
Width: 651
Flags: HW
Fore
345 796 m 0
 389 842 438 860 438 829 c 0
 438 820 420 783 398 749 c 0
 342 660 272 420 270 310 c 0
 269 233 275 207 320 121 c 0
 348 66 396 -4 426 -33 c 0
 486 -91 493 -133 444 -140 c 0
 378 -149 221 89 191 245 c 0
 176 318 175 311 248 597 c 0
 272 694 297 745 345 796 c 0
EndSplineSet
EndChar
StartChar: parenright
Encoding: 9 41 20
Width: 636
Flags: HW
Fore
206 830 m 0
 247 870 380 739 414 624 c 0
 450 507 459 269 431 161 c 0
 410 79 370 -17 336 -68 c 0
 329 -80 316 -107 308 -128 c 0
 298 -156 285 -167 259 -167 c 0
 241 -167 221 -161 216 -154 c 0
 211 -146 237 -84 273 -14 c 0
 326 86 342 136 355 229 c 0
 377 398 354 572 294 677 c 0
 269 721 240 759 230 763 c 0
 210 770 194 817 206 830 c 0
EndSplineSet
EndChar
StartChar: asterisk
Encoding: 10 42 21
Width: 772
Flags: HW
Fore
322 607 m 0
 343 646 375 636 380 588 c 0
 383 568 388 534 393 514 c 0
 400 476 400 476 437 529 c 0
 485 599 537 640 564 630 c 0
 593 619 592 584 561 558 c 0
 539 539 477 431 477 411 c 0
 477 406 513 404 558 406 c 0
 633 410 640 408 645 377 c 0
 650 341 645 336 564 318 c 2
 517 308 l 1
 561 273 l 2
 600 242 604 234 587 204 c 0
 564 160 558 161 480 218 c 0
 422 260 414 263 414 237 c 0
 414 221 423 198 433 188 c 0
 461 160 418 118 369 128 c 0
 343 133 318 125 296 105 c 0
 259 71 212 81 212 123 c 0
 212 138 230 168 251 192 c 0
 305 249 301 263 231 263 c 0
 161 263 110 303 159 319 c 0
 222 339 306 377 306 386 c 0
 306 391 281 422 252 454 c 0
 190 521 170 570 194 593 c 0
 217 617 259 596 259 560 c 0
 259 545 270 522 282 512 c 0
 302 496 306 500 306 535 c 0
 306 558 313 589 322 607 c 0
EndSplineSet
EndChar
StartChar: plus
Encoding: 11 43 22
Width: 715
Flags: HW
Fore
300 560 m 0
 305 572 322 581 339 581 c 0
 367 581 371 574 379 488 c 2
 388 395 l 1
 462 403 l 2
 502 407 551 414 570 417 c 0
 596 422 607 417 614 396 c 0
 627 355 614 346 531 337 c 0
 490 333 440 326 421 323 c 2
 386 316 l 1
 382 168 l 1
 378 20 l 1
 345 20 l 1
 312 20 l 1
 308 170 l 1
 304 320 l 1
 236 309 l 2
 110 290 89 293 89 330 c 0
 89 361 96 365 191 383 c 2
 292 403 l 1
 292 471 l 2
 292 508 296 548 300 560 c 0
EndSplineSet
EndChar
StartChar: comma
Encoding: 12 44 23
Width: 496
Flags: HW
Fore
215 45 m 0
 272 159 296 196 315 196 c 0
 366 196 358 149 283 8 c 0
 201 -146 192 -160 170 -160 c 0
 129 -160 142 -102 215 45 c 0
EndSplineSet
EndChar
StartChar: hyphen
Encoding: 13 45 24
Width: 931
Flags: HW
Fore
229 447 m 0
 284 453 435 457 565 456 c 0
 766 454 803 450 820 423 c 0
 859 361 812 351 459 342 c 2
 118 334 l 1
 123 385 l 2
 128 432 136 437 229 447 c 0
EndSplineSet
EndChar
StartChar: period
Encoding: 14 46 25
Width: 545
Flags: HW
Fore
276 173 m 0
 276 181 288 189 301 189 c 0
 314 189 325 181 325 173 c 0
 325 164 338 157 354 157 c 0
 401 157 430 87 407 31 c 0
 346 -116 172 -138 140 -3 c 0
 132 29 142 52 182 98 c 0
 211 130 244 157 255 157 c 0
 267 157 276 164 276 173 c 0
309 36 m 0
 325 54 322 58 295 56 c 0
 277 54 258 44 254 32 c 0
 242 4 285 6 309 36 c 0
EndSplineSet
EndChar
StartChar: slash
Encoding: 15 47 26
Width: 772
Flags: HW
Fore
570 850 m 0
 588 873 626 870 639 845 c 0
 648 830 644 811 626 775 c 0
 613 748 591 696 579 661 c 0
 566 625 511 509 456 402 c 0
 402 296 357 204 357 197 c 0
 357 191 334 140 305 84 c 0
 277 29 238 -49 219 -88 c 0
 193 -140 177 -159 159 -159 c 0
 115 -159 119 -124 171 -26 c 0
 199 26 239 106 259 150 c 0
 280 194 312 263 332 304 c 0
 352 345 396 439 432 514 c 0
 467 590 506 672 519 700 c 0
 532 727 546 768 550 792 c 0
 555 816 564 842 570 850 c 0
EndSplineSet
EndChar
StartChar: zero
Encoding: 16 48 27
Width: 564
Flags: HW
Fore
333 607 m 0
 352 618 373 627 381 627 c 0
 412 629 453 594 477 546 c 0
 524 452 501 307 415 148 c 0
 368 61 323 20 257 2 c 0
 187 -17 139 8 103 85 c 0
 77 139 76 147 88 194 c 0
 95 222 114 274 130 310 c 0
 183 427 194 456 194 473 c 0
 194 492 283 579 333 607 c 0
433 520 m 0
 416 554 369 559 328 533 c 0
 257 487 152 257 152 145 c 0
 152 97 188 57 232 57 c 0
 261 57 280 68 321 107 c 0
 349 134 372 163 372 171 c 0
 372 178 388 217 406 257 c 0
 444 341 458 472 433 520 c 0
EndSplineSet
EndChar
StartChar: one
Encoding: 17 49 28
Width: 352
Flags: HW
Fore
217 617 m 0
 244 645 261 630 268 567 c 0
 280 469 291 38 283 19 c 0
 270 -9 252 -2 239 37 c 0
 231 60 226 140 226 287 c 0
 225 443 221 503 214 503 c 0
 208 503 189 482 171 457 c 0
 125 390 97 363 79 371 c 0
 59 379 60 406 80 426 c 0
 89 434 106 455 118 472 c 0
 131 490 146 509 151 516 c 0
 156 522 170 544 182 565 c 0
 194 585 209 609 217 617 c 0
EndSplineSet
EndChar
StartChar: two
Encoding: 18 50 29
Width: 772
Flags: HW
Fore
285 592 m 0
 377 621 467 605 493 556 c 0
 514 518 504 410 474 333 c 0
 446 265 345 100 306 63 c 0
 290 46 290 45 320 51 c 0
 493 86 679 95 684 68 c 0
 689 34 686 32 618 31 c 0
 580 30 511 22 466 13 c 0
 421 4 357 -6 325 -9 c 0
 294 -12 261 -20 254 -27 c 0
 233 -43 189 -28 189 -4 c 0
 189 13 246 88 284 121 c 0
 325 156 417 332 436 409 c 0
 463 521 450 546 367 546 c 0
 293 546 225 512 150 436 c 0
 113 400 81 370 78 370 c 0
 76 370 73 386 73 404 c 0
 73 430 80 443 99 453 c 0
 114 460 126 472 126 480 c 0
 126 487 138 501 152 512 c 0
 167 522 193 541 210 554 c 0
 227 568 260 584 285 592 c 0
EndSplineSet
EndChar
StartChar: three
Encoding: 19 51 30
Width: 568
Flags: HW
Fore
415 620 m 0
 437 624 458 629 461 629 c 0
 473 631 495 604 495 587 c 0
 495 579 464 538 427 497 c 0
 389 457 358 420 358 416 c 0
 358 413 373 410 391 410 c 0
 429 410 490 351 502 304 c 0
 515 254 497 167 463 114 c 0
 391 -1 196 -53 157 31 c 0
 136 75 139 134 162 134 c 0
 185 134 210 102 210 71 c 0
 211 49 216 46 256 46 c 0
 310 46 378 83 414 132 c 0
 432 157 438 181 438 235 c 0
 438 328 415 355 345 346 c 0
 319 343 287 331 274 320 c 0
 244 293 206 298 201 330 c 0
 199 345 204 355 213 355 c 0
 221 355 239 369 254 385 c 0
 349 495 381 537 372 539 c 0
 362 543 229 522 133 503 c 0
 104 497 97 499 97 513 c 0
 97 523 92 531 85 531 c 0
 79 531 74 535 74 541 c 0
 74 552 175 579 290 598 c 0
 337 605 394 615 415 620 c 0
EndSplineSet
EndChar
StartChar: four
Encoding: 20 52 31
Width: 564
Flags: HW
Fore
353 600 m 0
 361 621 391 614 395 589 c 0
 396 579 387 558 373 544 c 0
 351 519 349 511 349 417 c 0
 349 362 353 312 357 305 c 0
 363 296 373 296 402 304 c 0
 423 310 444 318 450 323 c 0
 457 329 471 328 487 322 c 0
 523 308 517 270 477 266 c 0
 462 264 428 256 403 248 c 2
 358 233 l 1
 362 149 l 2
 364 102 372 53 379 38 c 0
 389 15 389 8 376 -5 c 0
 340 -42 318 4 306 141 c 0
 299 213 298 217 279 213 c 0
 268 210 222 200 178 191 c 0
 49 164 34 182 100 282 c 0
 196 425 316 583 331 584 c 0
 340 584 350 592 353 600 c 0
300 293 m 0
 302 306 299 348 295 385 c 2
 288 452 l 1
 246 401 l 2
 206 352 137 244 143 239 c 0
 144 238 180 244 221 253 c 0
 291 268 297 271 300 293 c 0
EndSplineSet
EndChar
StartChar: five
Encoding: 21 53 32
Width: 497
Flags: HW
Fore
392 595 m 0
 440 606 459 605 464 590 c 0
 472 568 312 523 238 526 c 0
 179 529 151 502 165 453 c 0
 170 436 171 408 168 390 c 2
 162 359 l 1
 196 380 l 2
 249 413 314 428 347 414 c 0
 393 394 424 288 407 202 c 0
 379 53 311 -12 183 -12 c 0
 140 -12 132 -8 104 27 c 0
 71 67 59 97 66 127 c 0
 69 142 73 139 87 113 c 0
 113 65 147 47 210 46 c 0
 278 44 307 67 336 147 c 0
 368 233 359 352 319 367 c 0
 298 376 218 336 188 301 c 0
 158 268 152 266 130 288 c 0
 109 309 107 559 127 572 c 0
 134 576 187 581 246 583 c 0
 304 584 370 590 392 595 c 0
EndSplineSet
EndChar
StartChar: six
Encoding: 22 54 33
Width: 443
Flags: HW
Fore
181 607 m 0
 195 624 218 623 224 605 c 0
 227 597 218 551 204 503 c 0
 145 304 139 272 160 272 c 0
 166 272 182 281 196 292 c 0
 210 303 233 312 248 312 c 0
 283 312 337 288 359 264 c 0
 383 237 389 182 372 152 c 0
 363 138 353 119 348 108 c 0
 336 80 262 14 232 2 c 0
 218 -3 190 -7 170 -7 c 0
 109 -7 60 64 60 151 c 0
 60 189 105 375 137 476 c 0
 148 509 160 549 164 566 c 0
 168 583 175 601 181 607 c 0
297 246 m 0
 282 255 260 262 250 262 c 0
 223 261 177 237 146 207 c 0
 121 182 118 174 122 130 c 0
 125 98 134 73 147 60 c 0
 170 38 169 37 257 87 c 0
 286 103 326 169 326 201 c 0
 326 224 320 235 297 246 c 0
EndSplineSet
EndChar
StartChar: seven
Encoding: 23 55 34
Width: 439
Flags: HW
Fore
266 614 m 0
 389 638 396 628 371 471 c 0
 362 411 347 330 338 287 c 0
 323 221 312 169 283 25 c 0
 277 -3 272 -8 252 -8 c 0
 231 -8 228 -5 229 20 c 0
 230 52 245 132 266 225 c 0
 286 313 323 548 318 554 c 0
 315 556 277 556 232 553 c 2
 151 547 l 1
 155 496 l 2
 157 469 156 426 152 402 c 0
 147 364 143 358 125 361 c 0
 105 364 104 368 104 473 c 2
 104 583 l 1
 161 594 l 2
 193 600 240 609 266 614 c 0
EndSplineSet
EndChar
StartChar: eight
Encoding: 24 56 35
Width: 500
Flags: HW
Fore
227 601 m 0
 231 607 257 612 286 612 c 0
 349 612 402 583 425 536 c 0
 453 478 448 466 346 369 c 0
 266 293 266 297 319 230 c 0
 392 137 395 49 327 -2 c 0
 277 -39 234 -25 165 49 c 0
 134 83 108 120 108 132 c 0
 108 144 122 183 139 217 c 0
 172 284 172 284 126 344 c 0
 86 397 79 455 106 511 c 0
 129 558 168 590 200 590 c 0
 212 590 224 595 227 601 c 0
355 535 m 0
 311 568 282 575 253 558 c 0
 245 553 224 543 207 535 c 0
 174 519 154 492 144 450 c 0
 139 430 146 412 172 377 c 0
 190 352 208 331 212 331 c 0
 216 331 246 356 278 385 c 0
 310 415 351 447 367 455 c 0
 409 478 406 496 355 535 c 0
265 204 m 0
 232 242 218 242 192 203 c 0
 161 158 164 122 204 79 c 0
 249 31 278 23 305 51 c 0
 341 89 330 131 265 204 c 0
EndSplineSet
EndChar
StartChar: nine
Encoding: 25 57 36
Width: 462
Flags: HW
Fore
252 600 m 0
 305 619 314 620 350 607 c 0
 393 591 407 554 392 489 c 0
 386 460 377 412 373 381 c 0
 362 312 359 63 368 41 c 0
 380 12 366 -22 341 -22 c 0
 309 -22 305 10 312 199 c 0
 319 376 323 367 262 322 c 0
 236 302 220 298 176 298 c 0
 128 299 119 302 99 324 c 0
 70 357 63 390 75 430 c 0
 99 513 153 563 252 600 c 0
336 519 m 0
 336 558 336 558 301 559 c 0
 249 560 212 547 180 515 c 0
 121 454 103 367 146 347 c 0
 177 333 228 349 274 387 c 0
 315 420 336 466 336 519 c 0
EndSplineSet
EndChar
StartChar: colon
Encoding: 26 58 37
Width: 401
Flags: HW
Fore
167 121 m 0
 190 144 214 139 225 109 c 0
 232 88 232 81 227 68 c 0
 223 60 217 44 214 33 c 0
 201 -18 164 -12 149 45 c 0
 140 81 143 95 167 121 c 0
161 507 m 0
 177 526 191 523 213 497 c 0
 227 480 231 468 231 444 c 0
 231 419 229 413 220 413 c 0
 213 413 206 404 203 391 c 0
 199 374 194 369 181 369 c 0
 167 369 161 376 149 404 c 0
 136 436 135 443 142 467 c 0
 146 482 154 500 161 507 c 0
EndSplineSet
EndChar
StartChar: semicolon
Encoding: 27 59 38
Width: 367
Flags: HW
Fore
202 126 m 0
 217 141 235 137 238 118 c 0
 240 100 163 -89 150 -95 c 0
 137 -102 120 -91 120 -76 c 0
 120 -56 189 113 202 126 c 0
184 431 m 0
 218 441 221 441 234 428 c 0
 250 411 254 354 241 320 c 0
 231 294 228 292 201 297 c 0
 167 302 148 328 148 370 c 0
 148 409 156 422 184 431 c 0
EndSplineSet
EndChar
StartChar: less
Encoding: 28 60 39
Width: 545
Flags: HW
Fore
326 583 m 0
 399 650 427 661 439 627 c 0
 444 613 435 597 410 576 c 0
 390 559 350 523 323 496 c 0
 295 470 246 423 215 395 c 0
 184 366 158 332 158 321 c 0
 158 295 295 137 351 99 c 0
 376 82 404 57 415 44 c 0
 434 21 434 17 418 -1 c 0
 397 -24 383 -26 373 -7 c 0
 369 1 338 26 304 50 c 0
 193 127 63 290 75 336 c 0
 79 351 121 398 170 442 c 0
 218 485 288 549 326 583 c 0
EndSplineSet
EndChar
StartChar: equal
Encoding: 29 61 40
Width: 515
Flags: HW
Fore
173 256 m 0
 212 265 376 263 390 254 c 0
 431 227 340 200 205 200 c 0
 115 200 108 202 108 221 c 0
 108 234 116 244 130 247 c 0
 143 249 163 254 173 256 c 0
194 398 m 0
 239 403 295 407 321 406 c 0
 359 405 366 401 366 384 c 0
 366 359 339 352 208 341 c 0
 123 335 119 335 113 357 c 0
 109 370 107 382 110 384 c 0
 112 386 150 392 194 398 c 0
EndSplineSet
EndChar
StartChar: greater
Encoding: 30 62 41
Width: 594
Flags: HW
Fore
143 583 m 0
 152 585 161 588 163 588 c 0
 168 590 218 556 243 532 c 0
 287 492 361 433 411 398 c 0
 437 380 467 355 477 342 c 0
 500 313 502 316 373 143 c 0
 318 69 271 0 268 -9 c 0
 260 -30 218 -41 200 -26 c 0
 188 -16 188 -11 206 17 c 0
 216 35 232 52 239 55 c 0
 251 59 269 84 377 244 c 0
 397 274 414 305 414 313 c 0
 414 320 367 360 309 401 c 0
 140 522 96 570 143 583 c 0
EndSplineSet
EndChar
StartChar: question
Encoding: 31 63 42
Width: 632
Flags: HW
Fore
271 82 m 0
 275 91 284 100 290 100 c 0
 301 100 355 63 355 55 c 0
 355 53 348 37 339 19 c 0
 322 -15 292 -29 274 -12 c 0
 261 2 259 56 271 82 c 0
243 820 m 0
 300 851 341 850 387 814 c 0
 414 793 431 770 445 737 c 0
 482 645 464 579 363 448 c 2
 328 402 l 1
 329 327 l 2
 332 240 322 217 294 238 c 0
 279 250 276 389 290 430 c 0
 296 447 318 475 338 493 c 0
 403 550 435 656 407 722 c 0
 397 748 355 785 327 793 c 0
 285 805 186 729 186 685 c 0
 186 662 228 586 244 579 c 0
 259 572 282 586 297 612 c 0
 314 641 312 648 289 648 c 0
 262 648 267 677 295 689 c 0
 311 696 320 694 332 681 c 0
 364 645 337 560 289 549 c 0
 253 541 231 550 192 585 c 0
 152 623 134 675 148 716 c 0
 162 755 199 795 243 820 c 0
EndSplineSet
EndChar
StartChar: at
Encoding: 32 64 43
Width: 704
Flags: HW
Fore
307 616 m 0
 361 632 454 635 479 622 c 0
 514 604 563 547 578 506 c 0
 597 458 591 341 568 286 c 0
 551 246 550 249 572 243 c 0
 598 237 596 211 562 131 c 0
 533 62 486 8 435 -13 c 0
 411 -22 302 -25 259 -16 c 0
 221 -9 136 47 130 69 c 0
 126 81 121 90 117 90 c 0
 100 90 78 208 80 293 c 0
 81 398 99 449 157 523 c 0
 201 577 226 593 307 616 c 0
467 567 m 0
 401 604 373 602 276 554 c 0
 213 522 197 505 162 430 c 0
 138 379 135 362 135 288 c 0
 135 209 140 181 165 116 c 0
 181 75 253 35 325 29 c 0
 381 24 389 25 428 50 c 0
 463 72 477 88 503 142 c 0
 521 179 535 211 535 214 c 0
 535 217 524 211 511 201 c 0
 496 189 472 182 451 182 c 0
 422 182 412 187 396 208 c 0
 386 223 377 239 377 245 c 0
 377 263 363 255 344 227 c 0
 323 195 286 173 253 173 c 0
 196 173 165 266 199 340 c 0
 220 387 310 484 332 484 c 0
 359 484 410 443 428 407 c 0
 443 377 444 367 434 326 c 0
 421 276 430 228 451 228 c 0
 464 228 507 270 507 283 c 0
 507 288 513 292 519 292 c 0
 536 292 552 398 542 439 c 0
 516 539 517 538 467 567 c 0
374 418 m 0
 357 429 337 438 329 438 c 0
 308 438 256 386 256 365 c 0
 256 356 252 345 248 343 c 0
 236 335 227 284 234 259 c 0
 241 229 300 200 313 219 c 0
 318 227 321 239 321 248 c 0
 321 257 325 264 330 264 c 0
 336 264 340 276 340 292 c 0
 340 307 344 326 349 335 c 0
 354 344 359 358 362 367 c 0
 365 376 375 383 385 383 c 0
 413 383 410 394 374 418 c 0
EndSplineSet
EndChar
StartChar: A
Encoding: 33 65 44
Width: 738
Flags: HW
Fore
437 764 m 0
 451 773 455 773 473 762 c 0
 488 752 549 555 549 514 c 0
 550 499 558 460 567 428 c 0
 576 395 588 343 593 312 c 0
 597 281 614 214 630 163 c 0
 663 58 657 34 605 63 c 0
 584 75 575 91 569 122 c 0
 565 145 553 200 543 243 c 2
 524 322 l 1
 475 316 l 2
 448 312 395 306 356 303 c 2
 286 297 l 1
 257 242 l 2
 205 145 167 69 148 23 c 0
 128 -25 111 -38 83 -28 c 0
 61 -19 63 5 88 38 c 0
 100 53 110 74 110 84 c 0
 110 95 116 105 124 108 c 0
 132 111 145 135 153 161 c 0
 161 186 176 217 186 229 c 0
 205 250 218 280 283 449 c 0
 324 555 420 752 437 764 c 0
475 561 m 0
 465 603 453 638 447 640 c 0
 437 643 361 488 325 391 c 2
 313 360 l 1
 392 366 l 2
 507 376 509 377 500 436 c 0
 496 464 485 519 475 561 c 0
EndSplineSet
EndChar
StartChar: B
Encoding: 34 66 45
Width: 655
Flags: HW
Fore
225 771 m 0
 256 779 325 786 378 787 c 0
 467 788 476 786 500 761 c 0
 513 746 525 724 525 714 c 0
 525 668 500 603 462 549 c 0
 417 485 415 479 437 479 c 0
 464 479 534 436 550 410 c 0
 578 365 582 265 560 196 c 0
 523 81 420 -11 358 17 c 0
 337 26 321 26 296 17 c 0
 225 -9 217 6 204 190 c 0
 198 267 190 367 184 413 c 0
 179 458 171 537 167 587 c 2
 160 677 l 1
 121 677 l 2
 79 677 60 693 78 713 c 0
 93 729 155 753 225 771 c 0
457 715 m 0
 441 732 383 736 318 726 c 0
 218 709 225 715 225 652 c 0
 225 620 230 557 237 509 c 0
 247 436 252 424 270 424 c 0
 299 424 413 556 446 628 c 0
 477 696 477 693 457 715 c 0
486 391 m 0
 451 421 395 418 323 385 c 0
 306 377 284 368 273 364 c 0
 254 357 253 348 259 230 c 0
 267 80 272 71 355 68 c 0
 413 66 413 66 462 123 c 0
 502 168 513 190 518 231 c 0
 528 307 516 366 486 391 c 0
EndSplineSet
EndChar
StartChar: C
Encoding: 35 67 46
Width: 727
Flags: HW
Fore
382 799 m 0
 444 815 470 814 511 795 c 0
 547 779 573 744 573 715 c 0
 573 692 530 702 517 727 c 0
 506 750 498 752 454 745 c 0
 388 735 291 684 248 636 c 0
 204 588 186 508 182 353 c 0
 179 254 182 223 200 181 c 0
 225 121 278 80 329 80 c 0
 363 80 443 117 468 145 c 0
 476 153 498 175 519 196 c 0
 540 216 569 252 584 275 c 0
 628 343 651 354 651 307 c 0
 651 276 583 171 525 112 c 0
 374 -41 221 -21 131 164 c 0
 114 199 121 510 141 579 c 0
 167 674 274 770 382 799 c 0
EndSplineSet
EndChar
StartChar: D
Encoding: 36 68 47
Width: 855
Flags: HW
Fore
223 782 m 0
 352 795 388 795 464 781 c 0
 741 733 811 647 771 406 c 0
 740 221 581 40 415 0 c 0
 386 -7 371 -20 366 -43 c 0
 361 -66 349 -76 328 -76 c 0
 311 -76 297 -70 297 -64 c 0
 297 -57 285 -48 271 -44 c 0
 241 -36 236 17 265 29 c 0
 288 39 290 137 271 261 c 0
 263 308 250 423 241 518 c 2
 225 691 l 1
 189 688 l 2
 168 686 139 672 122 654 c 0
 95 626 90 625 72 645 c 0
 55 663 54 673 66 696 c 0
 74 713 87 725 95 725 c 0
 103 725 116 736 125 749 c 0
 136 766 166 776 223 782 c 0
526 691 m 0
 468 702 390 711 357 711 c 0
 286 711 287 718 316 504 c 0
 327 424 341 319 347 269 c 0
 354 219 356 155 352 127 c 2
 344 76 l 1
 398 76 l 2
 460 76 522 115 600 202 c 0
 674 285 707 372 709 490 c 0
 711 582 708 591 673 629 c 0
 642 662 615 674 526 691 c 0
EndSplineSet
EndChar
StartChar: E
Encoding: 37 69 48
Width: 579
Flags: HW
Fore
285 782 m 0
 391 802 485 794 485 764 c 0
 485 756 446 743 389 733 c 0
 284 716 181 679 149 648 c 0
 135 633 131 616 135 584 c 0
 138 560 144 500 148 451 c 0
 154 373 157 362 172 371 c 0
 193 384 364 425 406 427 c 0
 424 428 435 421 438 407 c 0
 443 380 415 367 269 330 c 0
 162 304 158 301 159 270 c 0
 159 251 160 199 161 150 c 2
 164 64 l 1
 215 64 l 2
 275 64 383 93 445 126 c 0
 485 148 491 148 506 132 c 0
 533 101 510 77 418 36 c 0
 312 -11 145 -27 120 8 c 0
 109 22 101 83 95 204 c 0
 90 301 80 439 73 513 c 0
 63 621 63 653 75 677 c 0
 83 693 97 707 105 707 c 0
 113 707 146 722 177 740 c 0
 208 757 258 776 285 782 c 0
EndSplineSet
EndChar
StartChar: F
Encoding: 38 70 49
Width: 602
Flags: HW
Fore
377 777 m 0
 386 783 424 789 461 789 c 0
 511 789 529 784 534 770 c 0
 544 742 527 731 457 718 c 0
 423 712 349 698 294 687 c 2
 193 666 l 1
 193 586 l 2
 193 542 196 487 200 463 c 2
 207 419 l 1
 271 426 l 2
 371 439 460 436 465 421 c 0
 471 403 400 375 300 356 c 2
 216 341 l 1
 224 182 l 2
 231 15 227 -1 182 14 c 0
 162 20 159 32 159 96 c 0
 159 137 151 216 142 272 c 0
 132 331 124 446 124 544 c 2
 124 713 l 1
 197 739 l 2
 237 753 289 765 314 765 c 0
 340 765 367 770 377 777 c 0
EndSplineSet
EndChar
StartChar: G
Encoding: 39 71 50
Width: 700
Flags: HW
Fore
444 744 m 0
 459 770 542 766 575 737 c 0
 599 715 601 708 588 678 c 0
 571 638 549 635 540 672 c 0
 535 694 528 697 496 690 c 0
 385 665 277 567 201 422 c 0
 161 345 157 328 157 238 c 0
 157 107 175 69 238 69 c 0
 304 69 359 97 403 155 c 0
 450 218 487 303 480 332 c 0
 473 361 441 375 424 357 c 0
 409 340 355 340 315 356 c 0
 273 374 274 419 318 430 c 0
 336 435 353 444 357 451 c 0
 370 471 522 448 554 421 c 0
 588 393 607 293 613 116 c 0
 615 31 612 10 596 -1 c 0
 582 -11 571 -10 557 2 c 0
 542 16 537 45 537 132 c 2
 537 246 l 1
 505 193 l 2
 405 30 265 -44 164 13 c 0
 129 32 118 49 100 115 c 0
 82 180 81 209 91 289 c 0
 104 396 120 435 192 541 c 0
 245 620 323 685 393 711 c 0
 415 720 439 735 444 744 c 0
EndSplineSet
EndChar
StartChar: H
Encoding: 40 72 51
Width: 666
Flags: HW
Fore
96 801 m 0
 104 821 118 837 127 837 c 0
 139 837 147 785 160 625 c 0
 174 443 179 414 195 421 c 0
 217 432 307 464 404 494 c 0
 440 506 477 521 484 528 c 0
 492 535 501 575 506 617 c 0
 516 713 524 738 547 738 c 0
 576 738 583 682 585 407 c 0
 587 259 591 119 595 95 c 0
 600 61 597 49 580 42 c 0
 533 21 520 66 515 267 c 0
 513 371 506 456 500 456 c 0
 493 456 456 441 418 422 c 0
 380 404 311 374 264 356 c 2
 180 324 l 1
 186 143 l 2
 192 -37 184 -78 149 -53 c 0
 121 -33 112 47 96 405 c 0
 85 679 85 773 96 801 c 0
EndSplineSet
EndChar
StartChar: I
Encoding: 41 73 52
Width: 587
Flags: HW
Fore
301 775 m 0
 322 783 434 781 454 773 c 0
 464 769 473 753 473 741 c 0
 473 717 455 708 390 700 c 2
 360 696 l 1
 362 522 l 2
 363 426 367 292 372 226 c 0
 379 128 383 108 396 120 c 0
 421 143 467 130 467 101 c 0
 467 72 432 51 309 5 c 0
 241 -21 223 -23 180 -10 c 0
 142 1 129 11 129 30 c 0
 129 50 137 55 168 55 c 0
 189 55 229 66 257 78 c 2
 307 101 l 1
 298 288 l 2
 293 392 289 524 289 584 c 2
 289 691 l 1
 260 683 l 2
 171 658 91 667 110 700 c 0
 114 708 156 726 203 742 c 0
 251 758 294 772 301 775 c 0
EndSplineSet
EndChar
StartChar: J
Encoding: 42 74 53
Width: 689
Flags: HW
Fore
545 781 m 0
 567 787 587 792 591 793 c 0
 594 794 609 785 622 775 c 0
 656 749 637 731 545 705 c 0
 505 694 467 682 461 677 c 0
 455 673 451 617 452 551 c 0
 455 425 432 164 412 83 c 0
 394 14 352 -53 325 -53 c 0
 291 -53 233 -22 233 -3 c 0
 233 6 226 19 217 25 c 0
 191 41 109 194 100 242 c 0
 91 293 114 321 160 314 c 0
 185 310 189 301 191 238 c 0
 193 183 203 153 232 107 c 0
 287 21 302 10 327 40 c 0
 355 74 386 310 386 494 c 0
 386 670 398 662 211 615 c 0
 110 590 89 588 79 604 c 0
 49 656 69 666 354 734 c 0
 438 754 524 776 545 781 c 0
EndSplineSet
EndChar
StartChar: K
Encoding: 43 75 54
Width: 779
Flags: HW
Fore
97 815 m 0
 105 840 138 834 153 805 c 0
 160 791 166 732 167 672 c 0
 167 611 171 538 176 507 c 2
 185 451 l 1
 283 556 l 2
 337 613 389 661 397 661 c 0
 406 661 423 673 436 687 c 0
 448 702 465 713 474 713 c 0
 484 713 499 722 511 734 c 0
 538 763 585 753 590 717 c 0
 593 694 585 686 547 675 c 0
 481 656 192 365 218 342 c 0
 220 340 295 298 385 249 c 0
 476 200 563 149 581 136 c 0
 600 122 622 112 631 112 c 0
 655 112 730 46 730 26 c 0
 730 15 726 7 720 7 c 0
 694 7 573 51 532 75 c 0
 444 127 216 243 203 243 c 0
 193 243 191 223 196 181 c 0
 222 -46 218 -76 170 -63 c 0
 138 -54 133 -28 115 199 c 0
 100 386 88 790 97 815 c 0
EndSplineSet
EndChar
StartChar: L
Encoding: 44 76 55
Width: 708
Flags: HW
Fore
98 779 m 0
 109 799 132 786 147 751 c 0
 154 734 166 593 173 436 c 0
 191 61 190 67 238 67 c 0
 270 67 471 114 599 150 c 0
 620 156 635 153 646 138 c 0
 660 119 659 114 636 94 c 0
 592 58 317 -10 215 -10 c 0
 124 -10 126 -19 108 396 c 0
 99 600 95 773 98 779 c 0
EndSplineSet
EndChar
StartChar: M
Encoding: 45 77 56
Width: 727
Flags: HW
Fore
83 789 m 0
 91 800 107 808 120 808 c 0
 137 808 151 779 178 687 c 0
 219 540 281 403 304 403 c 0
 327 403 407 539 502 741 c 0
 526 791 573 818 599 795 c 0
 628 768 634 712 637 413 c 0
 639 222 645 112 657 71 c 0
 669 30 670 7 660 -4 c 0
 642 -23 598 -7 587 24 c 0
 582 37 574 184 569 351 c 0
 563 519 556 658 551 663 c 0
 547 668 529 638 511 597 c 0
 478 522 472 510 418 416 c 0
 390 366 323 320 280 320 c 0
 269 320 237 358 209 407 c 2
 158 494 l 1
 158 236 l 2
 157 -18 149 -71 112 -71 c 0
 80 -71 74 -5 71 374 c 0
 70 652 73 776 83 789 c 0
EndSplineSet
EndChar
StartChar: N
Encoding: 46 78 57
Width: 829
Flags: HW
Fore
102 761 m 0
 113 787 149 794 177 775 c 0
 194 764 313 595 313 582 c 0
 313 577 335 540 361 499 c 0
 388 457 444 357 486 275 c 0
 528 192 576 111 593 93 c 0
 620 65 625 64 636 84 c 0
 643 96 656 206 663 329 c 0
 685 673 691 708 731 713 c 0
 777 720 783 690 764 541 c 0
 755 468 742 326 734 222 c 0
 718 -4 707 -31 635 -19 c 0
 561 -7 506 51 435 195 c 0
 401 263 366 327 359 336 c 0
 352 345 342 370 337 391 c 0
 332 412 302 467 272 512 c 0
 241 558 209 607 201 622 c 0
 182 655 160 312 175 215 c 0
 186 144 161 33 135 33 c 0
 79 34 77 47 85 398 c 0
 89 585 97 748 102 761 c 0
EndSplineSet
EndChar
StartChar: O
Encoding: 47 79 58
Width: 655
Flags: HW
Fore
404 734 m 0
 418 757 485 749 522 719 c 0
 635 626 636 359 524 129 c 0
 492 64 451 14 428 14 c 0
 419 14 410 7 407 -2 c 0
 404 -11 366 -20 322 -24 c 0
 249 -29 237 -26 194 7 c 0
 139 51 89 143 68 241 c 0
 39 371 105 553 206 624 c 0
 239 647 275 666 286 666 c 0
 296 666 315 678 327 693 c 0
 339 708 360 720 372 720 c 0
 386 720 399 726 404 734 c 0
484 642 m 0
 461 657 410 652 332 627 c 0
 233 596 168 507 146 374 c 0
 131 285 132 272 160 193 c 0
 206 64 272 18 363 54 c 0
 410 72 497 200 507 265 c 0
 511 295 525 359 537 410 c 0
 558 498 558 502 529 566 c 0
 512 603 492 637 484 642 c 0
EndSplineSet
EndChar
StartChar: P
Encoding: 48 80 59
Width: 651
Flags: HW
Fore
305 803 m 0
 337 810 380 814 402 811 c 0
 558 791 584 775 597 691 c 0
 605 638 582 527 563 527 c 0
 555 527 550 519 550 508 c 0
 550 477 442 378 396 368 c 0
 374 362 353 353 349 346 c 0
 345 339 316 333 284 333 c 2
 225 333 l 1
 235 153 l 2
 242 17 240 -32 228 -48 c 0
 201 -82 178 -72 171 -23 c 0
 157 80 131 459 131 558 c 2
 131 665 l 1
 101 644 l 2
 84 632 66 627 59 632 c 0
 34 649 48 684 104 742 c 0
 154 795 167 802 204 796 c 0
 228 793 273 795 305 803 c 0
447 720 m 0
 374 737 374 737 282 717 c 0
 226 706 213 697 206 669 c 0
 196 624 210 430 225 414 c 0
 240 397 364 424 421 456 c 0
 447 471 468 494 470 510 c 0
 472 526 488 555 506 576 c 0
 564 643 541 699 447 720 c 0
EndSplineSet
EndChar
StartChar: Q
Encoding: 49 81 60
Width: 761
Flags: HW
Fore
457 752 m 0
 481 755 514 758 528 759 c 0
 562 762 602 717 630 643 c 0
 657 569 647 425 602 279 c 2
 571 177 l 1
 606 151 l 2
 700 80 768 -18 724 -18 c 0
 709 -18 664 5 643 24 c 0
 635 31 606 51 578 71 c 2
 528 106 l 1
 508 74 l 2
 428 -57 263 -95 156 -8 c 0
 107 32 50 176 50 259 c 0
 50 353 76 467 116 547 c 0
 176 669 282 732 457 752 c 0
546 620 m 0
 514 653 498 658 423 660 c 0
 376 662 328 660 318 657 c 0
 273 641 165 526 165 494 c 0
 165 482 159 465 152 457 c 0
 145 450 136 392 131 328 c 0
 124 226 126 203 151 138 c 0
 184 52 220 23 292 23 c 0
 369 23 468 87 469 138 c 0
 469 154 418 207 349 260 c 0
 313 288 312 291 331 312 c 0
 350 332 357 331 423 286 c 0
 462 259 499 237 506 237 c 0
 512 237 527 267 537 302 c 0
 607 541 607 558 546 620 c 0
EndSplineSet
EndChar
StartChar: R
Encoding: 50 82 61
Width: 636
Flags: HW
Fore
103 691 m 0
 129 719 152 741 155 741 c 0
 195 743 444 712 478 701 c 0
 566 675 567 567 481 468 c 0
 458 442 439 417 439 413 c 0
 439 404 339 338 280 308 c 0
 258 296 241 285 244 282 c 0
 246 280 284 266 328 252 c 0
 372 237 429 211 454 194 c 0
 480 176 505 162 510 162 c 0
 529 161 587 100 587 82 c 0
 587 44 562 48 473 100 c 0
 424 129 348 166 306 182 c 2
 228 213 l 1
 232 96 l 2
 235 -15 234 -20 210 -24 c 0
 181 -28 168 10 168 98 c 0
 168 185 155 232 127 245 c 0
 88 263 87 298 126 316 c 2
 159 331 l 1
 151 445 l 2
 141 590 133 621 111 602 c 0
 89 584 57 595 57 622 c 0
 57 633 77 664 103 691 c 0
412 647 m 0
 376 657 314 666 274 666 c 2
 202 666 l 1
 209 612 l 2
 213 582 219 515 224 461 c 0
 228 407 234 364 236 364 c 0
 255 364 362 423 394 452 c 0
 433 486 497 609 484 623 c 0
 481 626 448 637 412 647 c 0
EndSplineSet
EndChar
StartChar: S
Encoding: 51 83 62
Width: 579
Flags: HW
Fore
236 718 m 0
 254 727 306 735 350 735 c 0
 418 736 438 731 473 703 c 0
 496 684 516 656 516 642 c 0
 516 609 509 610 460 649 c 0
 387 708 262 683 183 594 c 0
 148 554 129 486 146 463 c 0
 165 438 258 392 346 364 c 0
 478 323 528 254 500 154 c 0
 469 50 413 19 230 7 c 2
 140 1 l 1
 113 57 l 2
 72 138 92 215 153 215 c 0
 180 215 182 172 157 150 c 0
 142 136 141 126 152 101 c 0
 165 71 173 69 254 69 c 0
 323 69 350 75 382 99 c 0
 434 136 440 147 440 200 c 0
 440 240 434 247 370 277 c 0
 331 295 291 309 281 309 c 0
 223 309 61 447 61 496 c 0
 61 567 147 676 236 718 c 0
EndSplineSet
EndChar
StartChar: T
Encoding: 52 84 63
Width: 832
Flags: HW
Fore
564 746 m 0
 694 771 720 773 766 756 c 0
 837 731 801 689 708 689 c 0
 672 689 607 681 565 671 c 2
 488 653 l 1
 503 569 l 2
 510 523 522 395 529 285 c 0
 536 174 544 57 548 24 c 0
 554 -27 552 -38 536 -44 c 0
 492 -60 479 -3 462 274 c 0
 450 472 429 612 410 632 c 0
 399 643 380 643 332 633 c 0
 297 626 246 620 221 620 c 0
 195 620 159 615 138 609 c 0
 95 596 45 611 45 636 c 0
 45 657 70 666 158 677 c 0
 246 689 419 718 564 746 c 0
EndSplineSet
EndChar
StartChar: U
Encoding: 53 85 64
Width: 677
Flags: HW
Fore
515 753 m 0
 551 775 571 758 591 689 c 0
 600 657 612 627 618 620 c 0
 624 614 628 568 628 519 c 0
 626 231 515 33 332 -10 c 0
 297 -18 220 9 186 42 c 0
 147 80 112 286 99 544 c 0
 92 697 94 723 111 737 c 0
 145 765 154 746 162 630 c 0
 178 415 221 121 242 90 c 0
 269 48 317 49 387 93 c 0
 466 143 507 210 539 341 c 0
 570 468 567 547 525 668 c 0
 503 729 502 744 515 753 c 0
EndSplineSet
EndChar
StartChar: V
Encoding: 54 86 65
Width: 742
Flags: HW
Fore
76 757 m 0
 99 780 119 772 135 735 c 0
 142 719 153 705 159 705 c 0
 164 705 169 696 169 685 c 0
 169 674 184 632 202 592 c 0
 220 552 256 458 282 382 c 0
 335 227 376 128 387 129 c 0
 398 129 481 334 509 430 c 0
 549 572 627 753 649 757 c 0
 660 759 677 752 687 741 c 0
 700 724 694 695 652 585 c 0
 624 511 587 411 571 362 c 0
 554 312 512 213 478 138 c 0
 428 30 410 5 387 5 c 0
 343 5 329 27 272 183 c 0
 243 263 196 388 167 464 c 0
 138 539 114 606 114 613 c 0
 114 620 102 640 87 660 c 0
 56 699 52 733 76 757 c 0
EndSplineSet
EndChar
StartChar: W
Encoding: 55 87 66
Width: 878
Flags: HW
Fore
734 589 m 0
 756 702 779 794 784 794 c 0
 841 794 844 767 808 591 c 0
 794 522 771 406 756 331 c 0
 741 256 724 179 718 158 c 0
 711 138 706 105 706 85 c 0
 706 18 644 19 617 86 c 0
 608 108 596 125 590 125 c 0
 585 125 576 144 571 167 c 0
 558 230 493 360 459 392 c 2
 429 421 l 1
 399 346 l 2
 346 210 323 145 295 50 c 0
 271 -30 263 -42 237 -42 c 0
 213 -42 205 -32 194 19 c 0
 177 95 143 265 128 350 c 0
 121 386 110 434 103 460 c 0
 96 484 89 520 89 539 c 0
 89 558 84 575 77 577 c 0
 71 580 63 614 61 653 c 0
 58 708 62 724 77 724 c 0
 111 724 141 630 203 322 c 0
 222 228 243 152 249 155 c 0
 256 157 283 225 309 305 c 0
 335 384 364 464 373 480 c 0
 421 571 550 453 615 258 c 0
 626 224 641 195 648 193 c 0
 662 189 693 301 693 354 c 0
 693 370 711 476 734 589 c 0
EndSplineSet
EndChar
StartChar: X
Encoding: 56 88 67
Width: 761
Flags: HW
Fore
43 748 m 0
 61 778 94 756 242 612 c 0
 328 529 399 461 400 461 c 0
 401 461 421 493 445 532 c 0
 495 614 593 721 619 721 c 0
 664 721 650 672 583 602 c 0
 567 585 533 527 507 473 c 2
 459 374 l 1
 503 326 l 2
 527 300 572 256 601 230 c 0
 726 116 747 75 688 56 c 0
 663 48 639 67 538 172 c 2
 418 297 l 1
 386 246 l 2
 368 217 340 167 323 133 c 0
 305 99 288 68 283 65 c 0
 279 61 266 40 254 17 c 0
 231 -30 178 -46 165 -11 c 0
 160 3 191 71 246 167 c 0
 295 253 338 337 343 354 c 0
 349 380 325 412 213 530 c 0
 59 691 31 728 43 748 c 0
EndSplineSet
EndChar
StartChar: Y
Encoding: 57 89 68
Width: 730
Flags: HW
Fore
622 776 m 0
 633 787 636 787 667 770 c 0
 689 757 691 747 684 702 c 0
 675 638 577 441 523 376 c 0
 503 352 483 320 479 306 c 0
 474 291 441 209 404 122 c 0
 367 36 331 -52 323 -72 c 0
 307 -111 276 -116 255 -81 c 0
 241 -59 261 -4 362 210 c 2
 421 336 l 1
 256 504 l 2
 72 690 57 711 79 740 c 0
 97 762 122 742 310 553 c 0
 378 486 442 430 452 430 c 0
 475 430 486 445 539 546 c 0
 563 591 589 641 598 657 c 0
 606 673 614 704 614 726 c 0
 614 749 618 771 622 776 c 0
EndSplineSet
EndChar
StartChar: Z
Encoding: 58 90 69
Width: 932
Flags: HW
Fore
391 701 m 0
 605 726 669 710 669 634 c 0
 669 590 619 487 577 444 c 0
 476 342 323 136 323 102 c 0
 323 66 465 56 555 86 c 0
 585 96 646 105 692 107 c 0
 737 108 778 113 781 118 c 0
 785 123 812 130 840 135 c 0
 882 141 894 139 900 123 c 0
 911 95 884 68 844 68 c 0
 825 68 800 60 786 50 c 0
 772 40 735 33 698 33 c 0
 663 32 596 24 552 14 c 0
 439 -12 250 -7 231 22 c 0
 221 38 221 50 233 68 c 0
 241 81 248 98 248 105 c 0
 248 120 338 264 351 269 c 0
 356 272 360 279 360 288 c 0
 360 301 436 390 506 460 c 0
 541 494 595 591 595 620 c 0
 595 639 582 641 485 641 c 0
 421 641 355 634 325 624 c 0
 297 614 238 600 196 593 c 0
 154 585 115 574 111 567 c 0
 98 547 36 568 41 591 c 0
 47 621 251 685 391 701 c 0
EndSplineSet
EndChar
StartChar: bracketleft
Encoding: 59 91 70
Width: 485
Flags: HW
Fore
253 698 m 0
 292 704 294 704 317 698 c 0
 332 694 337 686 335 672 c 0
 333 655 324 650 277 644 c 0
 246 640 217 633 212 627 c 0
 207 622 192 618 179 618 c 0
 166 618 160 615 165 611 c 0
 176 603 190 459 207 189 c 0
 220 -24 211 -7 298 -2 c 0
 362 2 373 0 378 -14 c 0
 382 -24 380 -37 374 -44 c 0
 361 -61 201 -73 184 -58 c 0
 167 -44 161 -2 150 209 c 0
 145 309 136 441 130 503 c 0
 116 650 119 660 180 679 c 0
 207 687 240 696 253 698 c 0
EndSplineSet
EndChar
StartChar: backslash
Encoding: 60 92 71
Width: 693
Flags: HW
Fore
53 662 m 0
 64 681 113 668 117 646 c 0
 118 635 154 586 197 536 c 0
 297 419 352 347 386 289 c 0
 401 263 419 236 426 229 c 0
 448 207 520 108 541 71 c 0
 551 51 569 24 579 11 c 0
 594 -10 595 -16 583 -27 c 0
 559 -50 530 -34 501 19 c 0
 486 46 445 106 411 152 c 0
 376 198 334 256 317 281 c 0
 282 335 205 431 150 491 c 0
 127 516 106 544 103 554 c 0
 100 564 94 571 90 571 c 0
 78 571 45 650 53 662 c 0
EndSplineSet
EndChar
StartChar: bracketright
Encoding: 61 93 72
Width: 538
Flags: HW
Fore
205 667 m 0
 238 674 328 673 339 666 c 0
 363 650 384 396 384 127 c 2
 384 -9 l 1
 361 -20 l 2
 328 -34 182 -36 177 -22 c 0
 173 -9 189 -3 266 17 c 2
 328 32 l 1
 330 143 l 2
 334 276 318 559 305 599 c 0
 294 631 273 635 205 616 c 0
 174 607 164 607 155 617 c 0
 146 626 149 632 166 646 c 0
 178 656 196 665 205 667 c 0
EndSplineSet
EndChar
StartChar: asciicircum
Encoding: 62 94 73
Width: 447
Flags: HW
Fore
146 724 m 0
 173 767 196 795 205 795 c 0
 219 795 266 750 333 673 c 0
 357 645 368 625 366 613 c 0
 362 574 338 586 273 658 c 0
 200 740 207 740 149 644 c 0
 117 589 107 579 89 579 c 0
 68 579 67 581 74 603 c 0
 78 616 86 634 91 640 c 0
 97 647 121 684 146 724 c 0
EndSplineSet
EndChar
StartChar: underscore
Encoding: 63 95 74
Width: 598
Flags: HW
Fore
401 51 m 0
 403 54 435 55 472 54 c 0
 539 51 539 51 539 34 c 0
 539 16 539 16 459 11 c 0
 415 9 338 2 287 -4 c 0
 122 -24 65 -27 53 -14 c 0
 36 4 41 12 68 14 c 0
 81 14 97 15 102 16 c 0
 108 17 138 20 169 23 c 0
 306 36 397 47 401 51 c 0
EndSplineSet
EndChar
StartChar: grave
Encoding: 64 96 75
Width: 420
Flags: HW
Fore
118 685 m 0
 125 692 133 697 137 697 c 0
 141 697 171 670 204 636 c 0
 253 586 262 573 258 559 c 0
 254 546 249 543 237 547 c 0
 220 553 173 596 132 643 c 0
 109 670 108 673 118 685 c 0
EndSplineSet
EndChar
StartChar: a
Encoding: 65 97 76
Width: 556
Flags: HW
Fore
263 528 m 0
 363 567 418 553 457 477 c 0
 481 430 481 427 483 247 c 0
 484 147 488 57 491 48 c 0
 494 38 490 24 479 11 c 0
 463 -8 461 -9 448 4 c 0
 439 12 431 39 427 74 c 0
 421 127 420 130 409 111 c 0
 383 68 296 10 242 -0 c 0
 212 -6 143 11 120 29 c 0
 102 43 89 102 95 141 c 0
 102 186 130 218 197 255 c 0
 264 294 341 303 370 277 c 0
 381 267 393 259 396 259 c 0
 399 259 410 253 420 245 c 0
 437 231 437 231 433 326 c 0
 429 436 410 488 374 497 c 0
 354 502 279 488 249 474 c 0
 242 471 209 455 176 441 c 0
 111 411 92 414 108 451 c 0
 114 467 130 478 163 490 c 0
 189 499 234 516 263 528 c 0
386 218 m 0
 359 242 279 248 232 229 c 0
 184 210 144 155 144 110 c 0
 144 77 147 70 171 57 c 0
 190 47 206 44 230 48 c 0
 271 55 346 93 346 106 c 0
 346 112 360 129 378 146 c 0
 415 182 416 192 386 218 c 0
EndSplineSet
EndChar
StartChar: b
Encoding: 66 98 77
Width: 655
Flags: HW
Fore
99 840 m 0
 134 874 143 856 151 739 c 0
 155 679 164 591 171 547 c 0
 178 501 186 440 189 409 c 2
 194 354 l 1
 272 431 l 2
 331 490 363 513 403 526 c 0
 475 549 492 548 536 516 c 0
 636 442 605 224 476 95 c 0
 420 39 308 -23 264 -23 c 0
 220 -23 150 16 144 43 c 0
 141 56 136 144 133 239 c 0
 130 335 121 459 112 517 c 0
 103 575 92 667 88 722 c 0
 82 809 84 825 99 840 c 0
511 462 m 0
 494 480 475 482 422 472 c 0
 394 467 316 398 263 331 c 0
 206 257 190 86 237 45 c 0
 256 28 261 27 314 44 c 0
 372 62 443 123 491 197 c 0
 542 276 553 417 511 462 c 0
EndSplineSet
EndChar
StartChar: c
Encoding: 67 99 78
Width: 569
Flags: HW
Fore
249 538 m 0
 271 544 309 546 335 544 c 0
 426 535 520 448 503 387 c 0
 494 352 461 356 456 392 c 0
 455 405 439 432 423 450 c 0
 397 478 384 483 333 487 c 0
 242 495 224 487 177 419 c 0
 116 333 98 275 107 201 c 0
 113 149 120 135 160 97 c 0
 199 60 211 54 248 54 c 0
 304 54 370 94 438 172 c 0
 492 232 529 249 529 213 c 0
 529 189 446 85 400 53 c 0
 307 -13 247 -20 160 23 c 0
 87 59 58 113 51 230 c 0
 45 310 47 322 75 373 c 0
 113 445 197 524 249 538 c 0
EndSplineSet
EndChar
StartChar: d
Encoding: 68 100 79
Width: 715
Flags: HW
Fore
572 952 m 0
 581 973 594 983 611 983 c 2
 638 983 l 1
 630 572 l 2
 625 319 626 124 634 65 c 0
 644 -17 643 -34 628 -50 c 0
 614 -64 604 -66 588 -56 c 0
 572 -46 565 -19 559 50 c 0
 556 101 549 146 545 150 c 0
 541 154 524 141 508 122 c 0
 412 9 299 -34 198 4 c 0
 98 42 59 117 72 245 c 0
 84 360 178 488 279 526 c 0
 336 548 336 548 405 515 c 0
 443 497 488 464 506 441 c 0
 524 418 543 402 549 406 c 0
 555 410 560 527 560 667 c 0
 560 807 566 935 572 952 c 0
407 433 m 0
 375 454 337 472 325 472 c 0
 298 472 169 347 152 304 c 0
 137 266 139 147 155 117 c 0
 162 104 190 83 216 72 c 0
 293 38 349 58 452 157 c 0
 500 203 535 247 534 261 c 0
 533 304 466 393 407 433 c 0
EndSplineSet
EndChar
StartChar: e
Encoding: 69 101 80
Width: 617
Flags: HW
Fore
195 521 m 0
 244 551 247 552 318 546 c 0
 381 541 396 537 430 511 c 0
 472 479 509 421 509 387 c 0
 509 345 483 327 387 306 c 0
 337 295 253 283 203 280 c 2
 110 275 l 1
 110 235 l 2
 110 182 129 143 179 95 c 0
 263 13 358 32 489 156 c 0
 538 202 564 220 571 214 c 0
 584 201 536 123 490 83 c 0
 405 8 310 -24 232 -4 c 0
 159 15 87 90 66 169 c 0
 48 239 46 304 61 352 c 0
 79 408 141 487 195 521 c 0
407 459 m 0
 362 499 352 503 311 502 c 0
 251 501 229 492 196 454 c 0
 139 389 120 360 120 338 c 0
 120 324 129 323 193 328 c 0
 261 334 320 344 402 363 c 0
 426 369 444 380 449 393 c 0
 457 411 450 421 407 459 c 0
EndSplineSet
EndChar
StartChar: f
Encoding: 70 102 81
Width: 624
Flags: HW
Fore
292 967 m 0
 329 1003 333 1004 432 994 c 0
 488 988 502 982 533 952 c 0
 571 914 577 884 551 848 c 0
 529 816 516 821 516 861 c 0
 516 904 498 922 431 944 c 0
 368 964 337 954 313 904 c 0
 295 865 280 562 295 540 c 0
 303 528 316 527 367 537 c 0
 401 544 437 546 446 543 c 0
 483 529 459 510 377 486 c 2
 291 461 l 1
 288 302 l 2
 286 178 289 132 302 90 c 0
 322 26 320 1 291 -3 c 0
 252 -9 234 82 234 276 c 0
 234 368 231 446 228 449 c 0
 225 452 199 448 170 439 c 0
 107 421 67 428 67 457 c 0
 67 472 83 481 148 500 c 2
 229 524 l 1
 231 611 l 2
 232 658 238 751 245 816 c 0
 257 927 260 935 292 967 c 0
EndSplineSet
EndChar
StartChar: g
Encoding: 71 103 82
Width: 704
Flags: HW
Fore
345 581 m 0
 417 605 524 600 572 571 c 0
 625 539 634 503 609 421 c 0
 586 350 587 390 616 10 c 2
 631 -197 l 1
 596 -225 l 2
 567 -248 553 -252 509 -246 c 0
 395 -232 224 -146 224 -104 c 0
 224 -69 273 -2 298 -2 c 0
 324 -2 327 -16 309 -48 c 0
 302 -61 299 -81 304 -94 c 0
 312 -117 368 -149 402 -149 c 0
 413 -149 438 -159 457 -172 c 0
 497 -198 549 -193 560 -162 c 0
 563 -152 561 -80 554 -2 c 0
 547 76 538 67 534 131 c 0
 526 246 526 246 505 215 c 0
 471 165 380 91 331 72 c 0
 306 62 264 55 236 55 c 0
 194 55 177 62 137 97 c 0
 98 131 86 151 77 200 c 0
 70 233 68 274 73 291 c 0
 82 327 132 421 165 464 c 0
 193 502 286 562 345 581 c 0
535 532 m 0
 506 547 432 548 383 534 c 0
 306 512 210 430 164 349 c 0
 130 288 128 278 137 223 c 0
 148 159 191 111 237 111 c 0
 319 111 425 195 483 305 c 0
 526 388 556 520 535 532 c 0
EndSplineSet
EndChar
StartChar: h
Encoding: 72 104 83
Width: 538
Flags: HW
Fore
62 807 m 0
 76 833 90 835 103 815 c 0
 108 807 116 743 120 672 c 0
 125 601 133 490 138 425 c 2
 147 307 l 1
 165 346 l 2
 192 406 333 537 368 537 c 0
 402 537 450 492 462 449 c 0
 467 432 470 324 470 206 c 0
 470 0 470 -7 448 -7 c 0
 427 -7 425 3 419 189 c 0
 415 316 406 403 395 436 c 2
 379 486 l 1
 321 432 l 2
 259 373 202 290 184 233 c 0
 178 212 169 150 164 96 c 0
 154 -11 142 -38 113 -14 c 0
 100 -3 95 22 95 86 c 0
 95 134 90 227 85 296 c 0
 57 616 50 784 62 807 c 0
EndSplineSet
EndChar
StartChar: i
Encoding: 73 105 84
Width: 277
Flags: HW
Fore
114 570 m 0
 162 609 172 565 186 260 c 0
 192 117 192 33 184 23 c 0
 167 0 131 4 123 29 c 0
 119 41 111 165 105 303 c 0
 94 531 95 555 114 570 c 0
116 828 m 0
 135 853 141 853 170 831 c 0
 199 809 184 757 149 763 c 0
 114 768 96 803 116 828 c 0
EndSplineSet
EndChar
StartChar: j
Encoding: 74 106 85
Width: 466
Flags: HW
Fore
256 495 m 0
 251 560 252 564 272 564 c 0
 297 564 296 566 318 452 c 0
 356 252 367 154 361 -9 c 0
 353 -221 339 -243 212 -243 c 0
 147 -243 99 -228 99 -208 c 0
 99 -202 92 -194 84 -191 c 0
 73 -188 69 -171 69 -130 c 0
 69 -29 122 -5 125 -105 c 0
 125 -130 129 -156 133 -162 c 0
 143 -177 262 -188 278 -175 c 0
 285 -170 294 -146 297 -124 c 0
 309 -50 306 209 293 259 c 0
 275 333 261 416 256 495 c 0
228 812 m 0
 247 830 257 830 273 812 c 0
 288 794 279 748 261 748 c 0
 226 749 205 789 228 812 c 0
EndSplineSet
EndChar
StartChar: k
Encoding: 75 107 86
Width: 519
Flags: HW
Fore
54 781 m 0
 67 801 92 795 102 770 c 0
 107 757 117 680 124 599 c 0
 131 518 141 426 146 394 c 2
 154 336 l 1
 268 450 l 2
 364 546 385 562 399 551 c 0
 419 535 420 513 400 502 c 0
 392 497 374 477 359 456 c 0
 332 415 272 357 201 300 c 0
 156 265 149 240 179 225 c 0
 188 221 236 198 286 175 c 0
 384 129 458 76 458 51 c 0
 458 23 428 23 390 51 c 0
 370 67 348 79 341 79 c 0
 335 79 329 83 329 87 c 0
 329 95 301 108 207 143 c 2
 154 163 l 1
 161 80 l 2
 169 -7 163 -22 126 -11 c 0
 101 -3 95 45 87 257 c 0
 84 341 78 435 72 467 c 0
 58 547 46 767 54 781 c 0
EndSplineSet
EndChar
StartChar: l
Encoding: 76 108 87
Width: 299
Flags: HW
Fore
112 970 m 0
 119 982 136 982 144 970 c 0
 149 961 172 660 196 266 c 0
 203 160 210 60 211 44 c 0
 213 20 207 14 185 14 c 0
 151 14 150 23 127 348 c 0
 121 447 109 587 103 658 c 0
 92 774 97 946 112 970 c 0
EndSplineSet
EndChar
StartChar: m
Encoding: 77 109 88
Width: 844
Flags: HW
Fore
145 530 m 0
 155 584 174 566 185 491 c 0
 191 453 199 410 203 396 c 0
 209 373 210 373 221 402 c 0
 227 420 235 436 238 439 c 0
 241 443 254 465 265 488 c 0
 293 545 298 550 336 550 c 0
 359 550 377 538 404 507 c 0
 435 470 442 453 455 371 c 2
 471 277 l 1
 488 337 l 2
 521 453 594 550 647 550 c 0
 680 550 711 508 723 449 c 0
 730 415 733 323 731 194 c 0
 728 -5 728 -9 709 -12 c 0
 689 -16 689 -16 688 172 c 0
 688 497 653 566 572 401 c 0
 525 306 491 161 484 22 c 0
 482 -11 477 -21 464 -21 c 0
 448 -21 446 -10 441 108 c 0
 432 324 420 384 373 454 c 0
 329 518 323 513 248 325 c 0
 238 299 230 261 230 239 c 0
 230 217 226 194 221 187 c 0
 217 181 212 120 210 53 c 0
 208 -61 206 -70 189 -74 c 0
 165 -79 159 -34 159 166 c 0
 159 248 155 357 149 407 c 0
 144 458 142 513 145 530 c 0
EndSplineSet
EndChar
StartChar: n
Encoding: 78 110 89
Width: 619
Flags: HW
Fore
127 555 m 0
 135 582 158 582 164 554 c 0
 167 542 177 461 187 371 c 0
 198 282 207 209 208 207 c 0
 210 206 222 242 237 288 c 0
 264 378 274 397 321 465 c 0
 399 574 442 592 483 531 c 0
 524 470 527 450 531 227 c 0
 536 3 534 -7 497 -8 c 0
 481 -8 480 -0 484 106 c 0
 490 230 479 415 464 453 c 0
 459 466 447 483 438 490 c 0
 423 501 413 494 374 444 c 0
 349 411 307 335 281 272 c 0
 240 177 231 145 222 57 c 0
 216 1 209 -45 206 -45 c 0
 203 -45 192 -38 183 -28 c 0
 170 -15 166 13 161 111 c 0
 157 179 147 302 138 384 c 0
 129 467 124 544 127 555 c 0
EndSplineSet
EndChar
StartChar: o
Encoding: 79 111 90
Width: 651
Flags: HW
Fore
351 564 m 0
 476 579 549 557 575 495 c 0
 632 360 552 96 431 22 c 0
 328 -42 195 -29 125 52 c 0
 68 119 56 150 56 235 c 0
 56 320 86 385 153 449 c 0
 233 525 286 556 351 564 c 0
512 470 m 0
 484 494 448 505 419 500 c 0
 409 498 376 493 345 490 c 0
 299 484 279 474 238 435 c 0
 159 360 129 302 129 228 c 0
 129 117 205 39 314 38 c 0
 417 38 519 193 533 369 c 0
 538 440 536 450 512 470 c 0
EndSplineSet
EndChar
StartChar: p
Encoding: 80 112 91
Width: 655
Flags: HW
Fore
129 558 m 0
 145 587 172 589 187 564 c 0
 197 546 204 546 271 563 c 0
 355 584 415 586 487 570 c 0
 610 542 624 429 529 228 c 0
 468 97 374 31 274 47 c 2
 228 54 l 1
 239 0 l 2
 247 -39 244 -29 257 -93 c 0
 285 -234 280 -246 244 -246 c 0
 220 -246 213 -238 203 -202 c 0
 190 -155 163 -47 140 216 c 0
 125 399 121 414 92 414 c 0
 53 414 49 440 84 465 c 0
 102 478 116 499 116 512 c 0
 116 525 122 545 129 558 c 0
486 502 m 0
 450 516 328 507 262 486 c 2
 195 464 l 1
 197 400 l 2
 198 365 203 291 208 237 c 0
 215 158 221 138 237 137 c 0
 248 137 266 130 278 121 c 0
 362 58 558 334 517 456 c 0
 510 477 496 499 486 502 c 0
EndSplineSet
EndChar
StartChar: q
Encoding: 81 113 92
Width: 662
Flags: HW
Fore
288 566 m 0
 340 577 364 577 393 566 c 0
 440 548 444 520 420 378 c 0
 395 230 392 161 411 161 c 0
 418 161 443 180 467 203 c 0
 530 265 611 305 611 274 c 0
 611 261 479 130 466 130 c 0
 461 130 488 122 504 106 c 0
 570 37 560 53 560 -63 c 0
 560 -127 554 -124 540 -165 c 0
 518 -226 498 -248 463 -248 c 0
 411 -248 385 -254 353 22 c 2
 334 178 l 1
 270 124 l 2
 204 69 168 54 125 65 c 0
 83 77 58 111 47 174 c 0
 16 349 130 533 288 566 c 0
383 508 m 0
 379 517 370 523 360 523 c 0
 212 512 96 392 96 248 c 0
 96 150 126 101 174 120 c 0
 214 136 307 233 328 282 c 0
 339 306 353 356 359 392 c 0
 366 427 375 464 380 474 c 0
 385 483 386 499 383 508 c 0
490 48 m 0
 451 96 409 90 409 43 c 0
 409 -56 451 -185 469 -185 c 0
 474 -185 483 -168 490 -146 c 0
 497 -125 506 -103 510 -97 c 0
 514 -91 514 -91 509 -40 c 0
 501 36 513 19 490 48 c 0
EndSplineSet
EndChar
StartChar: r
Encoding: 82 114 93
Width: 526
Flags: HW
Fore
104 509 m 0
 117 549 148 552 148 514 c 0
 148 454 174 269 183 269 c 0
 188 269 205 294 220 324 c 0
 274 425 388 508 436 480 c 0
 468 460 465 449 419 431 c 0
 336 398 233 245 214 126 c 0
 191 -19 183 -42 156 -37 c 0
 135 -34 131 -24 124 47 c 0
 102 283 94 479 104 509 c 0
EndSplineSet
EndChar
StartChar: s
Encoding: 83 115 94
Width: 492
Flags: HW
Fore
242 527 m 0
 260 532 295 536 319 536 c 0
 358 537 365 534 393 503 c 0
 410 484 424 462 424 455 c 0
 424 434 391 441 372 466 c 0
 336 513 234 489 168 418 c 0
 116 362 114 354 142 322 c 0
 158 303 191 285 237 269 c 0
 368 224 403 193 401 124 c 0
 400 99 393 64 385 45 c 0
 369 5 317 -46 283 -55 c 0
 258 -61 168 -46 132 -28 c 0
 105 -15 78 38 85 64 c 0
 94 93 115 89 131 55 c 0
 147 22 206 -10 248 -10 c 0
 284 -10 320 23 344 78 c 0
 360 118 361 124 348 149 c 0
 339 167 323 180 300 188 c 0
 282 194 249 207 228 217 c 0
 207 227 185 235 181 235 c 0
 167 235 106 277 89 297 c 0
 63 329 61 353 83 392 c 0
 125 466 177 511 242 527 c 0
EndSplineSet
EndChar
StartChar: t
Encoding: 84 116 95
Width: 519
Flags: HW
Fore
221 909 m 0
 227 942 254 956 267 933 c 0
 270 927 277 865 282 794 c 0
 287 723 293 663 294 662 c 0
 296 660 318 664 345 670 c 0
 406 684 453 679 457 659 c 0
 460 641 432 628 347 607 c 2
 297 595 l 1
 303 426 l 2
 306 334 315 202 323 136 c 0
 340 -16 340 -21 322 -28 c 0
 293 -41 272 7 272 85 c 0
 272 124 267 195 262 242 c 0
 256 290 249 382 244 448 c 0
 240 514 235 570 232 573 c 0
 230 575 193 570 150 562 c 0
 66 545 47 547 47 575 c 0
 47 595 81 608 174 627 c 0
 195 631 217 638 223 642 c 0
 237 651 237 710 225 805 c 0
 220 844 218 890 221 909 c 0
EndSplineSet
EndChar
StartChar: u
Encoding: 85 117 96
Width: 606
Flags: HW
Fore
483 543 m 0
 507 558 529 547 528 520 c 0
 527 505 519 439 509 372 c 0
 491 243 495 204 535 62 c 0
 552 4 554 -14 544 -21 c 0
 507 -44 499 -33 465 83 c 0
 432 197 436 195 390 121 c 0
 332 29 252 -40 202 -40 c 0
 122 -40 103 -3 83 197 c 0
 70 326 76 516 94 534 c 0
 101 541 110 540 122 530 c 0
 136 518 139 503 134 451 c 0
 127 374 144 111 160 53 c 0
 174 0 203 1 264 55 c 0
 341 123 422 286 450 430 c 0
 461 488 476 539 483 543 c 0
EndSplineSet
EndChar
StartChar: v
Encoding: 86 118 97
Width: 590
Flags: HW
Fore
484 536 m 0
 493 548 509 558 519 556 c 0
 557 549 548 510 414 145 c 0
 381 53 318 -40 290 -40 c 0
 261 -40 232 12 202 118 c 0
 187 172 161 262 144 317 c 0
 97 472 95 477 88 515 c 0
 82 547 83 550 103 546 c 0
 133 541 183 421 239 214 c 0
 263 126 286 52 291 49 c 0
 303 42 368 174 395 259 c 0
 408 300 429 361 443 397 c 0
 457 433 468 473 468 487 c 0
 468 501 475 523 484 536 c 0
EndSplineSet
EndChar
StartChar: w
Encoding: 87 119 98
Width: 696
Flags: HW
Fore
52 534 m 0
 65 560 76 560 98 533 c 0
 110 519 117 493 121 447 c 0
 124 412 131 374 137 363 c 0
 143 353 162 281 179 203 c 0
 196 126 212 68 215 76 c 0
 232 117 258 191 271 233 c 0
 288 289 309 320 331 320 c 0
 355 320 431 243 452 198 c 0
 462 176 478 150 488 138 c 2
 505 118 l 1
 515 147 l 2
 521 163 533 215 541 263 c 0
 570 421 597 526 612 544 c 0
 629 562 661 541 654 518 c 0
 632 449 621 401 608 323 c 0
 591 225 542 42 528 29 c 0
 524 25 512 23 502 25 c 0
 487 27 461 68 390 202 c 0
 385 212 371 229 359 240 c 0
 335 265 335 265 300 167 c 0
 287 129 272 90 268 80 c 0
 263 70 253 44 244 22 c 0
 229 -20 208 -36 189 -21 c 0
 173 -8 142 104 119 228 c 0
 113 257 101 308 91 342 c 0
 80 376 72 415 72 431 c 0
 72 447 65 472 57 487 c 0
 46 508 44 519 52 534 c 0
EndSplineSet
EndChar
StartChar: x
Encoding: 88 120 99
Width: 583
Flags: HW
Fore
71 502 m 0
 86 536 111 534 124 499 c 0
 133 474 290 302 305 302 c 0
 308 302 330 334 355 374 c 0
 379 414 410 465 424 488 c 0
 450 530 470 535 488 505 c 0
 496 493 493 482 472 457 c 0
 457 440 442 415 438 402 c 0
 435 389 414 352 393 320 c 0
 371 288 354 258 354 253 c 0
 354 248 393 210 439 169 c 0
 485 128 527 85 530 75 c 0
 544 28 501 20 464 61 c 0
 429 99 325 189 315 189 c 0
 310 189 277 146 242 92 c 0
 179 -4 157 -21 133 8 c 0
 124 19 136 44 194 132 c 2
 266 241 l 1
 222 288 l 2
 198 314 163 349 147 365 c 0
 130 380 102 412 87 435 c 0
 63 471 61 480 71 502 c 0
EndSplineSet
EndChar
StartChar: y
Encoding: 89 121 100
Width: 526
Flags: HW
Fore
356 518 m 0
 369 543 402 539 409 511 c 0
 412 498 405 458 394 423 c 0
 370 348 359 229 368 150 c 2
 375 121 l 1
 407 137 l 2
 477 170 499 118 430 83 c 2
 389 62 l 1
 394 -50 l 2
 391 -146 386 -230 381 -237 c 0
 370 -254 344 -253 293 -231 c 0
 261 -217 246 -203 230 -169 c 0
 202 -110 194 -59 209 -33 c 0
 216 -21 226 -9 242 21 c 0
 258 51 281 49 297 67 c 0
 325 96 327 75 321 117 c 0
 312 185 307 188 272 145 c 0
 255 123 223 97 203 87 c 0
 155 63 121 74 93 122 c 0
 75 154 73 175 73 308 c 0
 74 466 83 509 115 503 c 0
 130 500 132 483 129 349 c 0
 126 189 133 140 160 135 c 0
 183 130 261 213 286 270 c 0
 307 316 313 338 336 449 c 0
 342 477 350 507 356 518 c 0
344 -116 m 0
 343 -82 335 -63 331 -30 c 2
 325 30 l 1
 297 -13 l 2
 282 -37 273 -58 267 -73 c 0
 257 -101 257 -121 267 -131 c 0
 270 -134 277 -146 286 -154 c 0
 298 -167 321 -193 335 -185 c 0
 340 -181 344 -150 344 -116 c 0
EndSplineSet
EndChar
StartChar: z
Encoding: 90 122 101
Width: 553
Flags: HW
Fore
307 529 m 0
 345 538 408 526 425 506 c 0
 447 480 440 408 409 341 c 2
 387 295 l 1
 424 290 l 2
 444 288 463 283 467 280 c 0
 477 269 440 250 396 244 c 0
 360 239 346 231 314 197 c 0
 278 159 222 64 230 56 c 0
 232 54 252 57 275 62 c 0
 419 93 514 97 514 70 c 0
 514 55 493 48 413 32 c 0
 123 -24 126 -25 179 84 c 0
 197 122 225 169 239 186 c 0
 253 203 265 220 265 224 c 0
 265 227 246 231 224 231 c 0
 202 231 180 235 176 241 c 0
 165 259 202 275 257 275 c 0
 305 275 312 278 328 300 c 0
 360 348 385 415 385 456 c 0
 385 479 382 481 355 481 c 0
 290 480 141 434 116 408 c 0
 105 395 94 391 76 395 c 0
 33 406 49 430 122 465 c 0
 163 484 253 516 307 529 c 0
EndSplineSet
EndChar
StartChar: braceleft
Encoding: 91 123 102
Width: 315
Flags: HW
Fore
125 595 m 2
 136 628 l 1
 158 624 l 2
 169 623 181 618 183 614 c 0
 190 601 187 592 177 592 c 0
 172 592 168 595 168 598 c 0
 168 612 158 602 151 580 c 0
 144 558 144 548 149 490 c 0
 156 407 153 323 142 298 c 0
 135 283 134 276 138 258 c 0
 141 245 143 188 143 130 c 0
 143 70 146 19 148 12 c 0
 156 -4 186 -14 200 -5 c 0
 216 5 223 -4 216 -25 c 0
 212 -38 209 -40 186 -40 c 0
 159 -40 134 -24 122 -0 c 0
 119 5 116 63 114 128 c 2
 112 247 l 1
 97 249 l 2
 76 252 75 268 95 285 c 0
 124 309 129 372 117 527 c 0
 114 557 115 568 125 595 c 2
EndSplineSet
EndChar
StartChar: bar
Encoding: 92 124 103
Width: 364
Flags: HW
Fore
181 727 m 0
 197 732 204 733 205 731 c 0
 209 718 212 -46 208 -71 c 0
 203 -104 187 -120 174 -107 c 0
 171 -103 165 51 163 235 c 0
 160 418 158 574 157 580 c 0
 157 587 160 621 163 658 c 0
 167 709 171 725 181 727 c 0
EndSplineSet
EndChar
StartChar: braceright
Encoding: 93 125 104
Width: 337
Flags: HW
Fore
117 667 m 0
 124 678 145 673 162 657 c 0
 177 641 178 640 174 576 c 0
 172 540 168 497 166 480 c 0
 161 435 168 382 183 368 c 0
 190 360 203 356 218 356 c 0
 249 356 255 343 235 319 c 0
 209 289 201 227 206 91 c 0
 208 46 206 22 198 -4 c 0
 186 -43 174 -53 143 -50 c 0
 128 -49 123 -45 121 -34 c 0
 119 -16 130 -4 140 -14 c 0
 144 -18 149 -21 152 -21 c 0
 165 -21 172 32 173 149 c 0
 174 243 177 280 184 298 c 2
 193 322 l 1
 175 331 l 2
 166 335 151 350 143 362 c 0
 128 387 127 415 136 553 c 0
 141 629 140 631 127 645 c 0
 119 653 115 663 117 667 c 0
EndSplineSet
EndChar
StartChar: asciitilde
Encoding: 94 126 105
Width: 613
Flags: HW
Fore
469 731 m 0
 480 751 485 756 497 754 c 0
 508 753 511 749 510 735 c 0
 508 713 465 657 436 639 c 0
 407 621 384 625 332 658 c 0
 253 707 230 713 201 688 c 0
 191 680 180 673 177 673 c 0
 174 673 163 663 154 650 c 0
 135 625 117 621 114 642 c 0
 111 658 157 704 194 724 c 0
 216 735 229 738 245 736 c 0
 276 731 312 716 338 696 c 0
 350 686 370 674 382 669 c 2
 404 659 l 1
 430 683 l 2
 445 695 462 717 469 731 c 0
EndSplineSet
EndChar
StartChar: uni0E01
Encoding: 96 3585 107
Width: 662
Flags: HW
Fore
281 515 m 0
 341 542 357 545 411 542 c 0
 489 537 520 519 551 462 c 0
 574 420 576 399 583 228 c 0
 588 82 587 38 576 27 c 0
 559 10 544 10 544 27 c 0
 544 34 539 38 533 35 c 0
 525 31 522 77 523 192 c 0
 524 281 525 357 524 359 c 0
 523 362 520 373 517 385 c 0
 507 430 471 484 445 492 c 0
 400 506 271 465 220 419 c 0
 199 400 197 393 207 378 c 0
 234 336 249 27 225 7 c 0
 192 -22 166 21 185 74 c 0
 191 92 194 121 192 138 c 0
 160 356 161 352 130 319 c 0
 112 300 102 296 84 301 c 0
 57 308 53 325 76 341 c 0
 85 347 92 358 92 365 c 0
 92 390 212 485 281 515 c 0
EndSplineSet
EndChar
StartChar: uni0E02
Encoding: 97 3586 108
Width: 655
Flags: HW
Fore
530 555 m 0
 543 559 557 559 563 554 c 0
 576 543 572 297 557 215 c 0
 546 152 485 9 465 -2 c 0
 447 -12 409 14 394 47 c 0
 365 110 311 356 322 372 c 0
 326 378 321 385 312 388 c 0
 302 391 295 401 295 411 c 0
 295 424 284 418 260 392 c 0
 192 320 76 320 68 391 c 0
 65 418 74 430 125 474 c 0
 241 573 305 553 362 398 c 0
 374 366 388 323 392 304 c 0
 414 206 447 94 454 94 c 0
 464 94 492 152 497 183 c 0
 499 197 502 285 504 378 c 0
 507 536 509 548 530 555 c 0
245 458 m 0
 237 486 233 487 200 476 c 0
 177 468 134 415 134 395 c 0
 134 386 145 384 171 389 c 0
 225 399 254 426 245 458 c 0
EndSplineSet
EndChar
StartChar: uni0E03
Encoding: 98 3587 109
Width: 670
Flags: HW
Fore
162 535 m 0
 173 545 191 554 202 554 c 0
 227 554 272 510 288 471 c 0
 294 455 302 442 305 442 c 0
 309 443 329 468 351 499 c 0
 381 541 396 554 410 552 c 0
 449 547 462 491 481 244 c 0
 486 184 494 127 499 118 c 0
 510 97 510 101 509 197 c 0
 508 243 511 264 517 260 c 0
 523 256 526 294 524 377 c 0
 523 486 524 501 539 510 c 0
 565 527 585 494 578 447 c 0
 575 426 569 340 564 255 c 0
 559 170 552 90 549 76 c 0
 543 50 507 3 492 3 c 0
 470 3 462 26 431 174 c 0
 429 183 424 240 421 300 c 0
 414 437 411 470 405 476 c 0
 402 478 385 459 366 433 c 0
 340 397 327 386 308 386 c 0
 294 386 278 391 272 397 c 0
 263 406 257 405 243 391 c 0
 229 378 218 376 187 383 c 0
 155 389 145 397 130 425 c 0
 114 457 114 462 127 488 c 0
 135 504 150 524 162 535 c 0
223 474 m 0
 204 516 167 502 162 450 c 0
 159 427 175 414 208 414 c 0
 224 413 233 450 223 474 c 0
EndSplineSet
EndChar
StartChar: uni0E04
Encoding: 99 3588 110
Width: 612
Flags: HW
Fore
263 499 m 0
 335 548 417 528 455 453 c 0
 477 409 484 363 492 192 c 0
 495 130 499 70 502 59 c 0
 509 30 497 13 474 17 c 0
 462 19 451 24 448 30 c 0
 444 35 440 94 438 163 c 0
 437 232 434 305 434 328 c 0
 432 374 402 442 373 466 c 0
 353 482 350 482 319 469 c 0
 300 461 271 442 253 426 c 2
 219 398 l 1
 253 385 l 2
 272 377 292 371 299 371 c 0
 305 371 311 364 311 358 c 0
 311 352 318 346 326 346 c 0
 334 346 345 336 352 323 c 0
 376 273 318 216 231 206 c 0
 214 204 199 200 195 196 c 0
 192 193 189 151 188 103 c 0
 186 -16 186 -16 165 -16 c 0
 140 -16 135 -6 130 55 c 0
 128 83 124 113 121 121 c 0
 118 130 119 139 125 142 c 0
 135 148 128 183 116 183 c 0
 102 183 100 267 112 306 c 0
 138 388 183 445 263 499 c 0
284 330 m 0
 256 352 249 353 223 343 c 0
 202 334 199 327 202 294 c 0
 204 259 207 256 231 256 c 0
 288 256 320 301 284 330 c 0
EndSplineSet
EndChar
StartChar: uni0E05
Encoding: 100 3589 111
Width: 670
Flags: HW
Fore
201 515 m 0
 238 537 260 538 314 524 c 0
 351 514 382 479 397 430 c 0
 404 405 405 406 438 453 c 0
 457 481 479 505 488 508 c 0
 541 527 569 504 587 427 c 0
 601 364 602 28 588 15 c 0
 583 10 569 9 558 12 c 0
 538 18 536 27 536 196 c 0
 536 293 533 386 531 402 c 0
 528 419 526 437 525 445 c 0
 522 489 429 345 429 296 c 0
 429 260 419 242 398 242 c 0
 375 242 368 258 365 319 c 0
 363 344 359 368 356 373 c 0
 352 378 343 400 335 422 c 0
 318 469 296 487 261 480 c 0
 226 472 199 449 181 409 c 0
 173 391 166 375 166 374 c 0
 166 373 185 374 208 376 c 0
 299 384 345 353 345 283 c 0
 345 243 342 239 306 225 c 0
 284 217 247 212 221 214 c 2
 175 217 l 1
 178 100 l 2
 182 -12 181 -17 160 -20 c 0
 131 -24 116 -6 109 42 c 0
 101 96 98 109 89 123 c 0
 84 130 78 169 76 210 c 0
 73 274 77 298 103 366 c 0
 138 463 156 490 201 515 c 0
283 327 m 0
 265 339 245 349 237 349 c 0
 216 349 187 317 187 293 c 0
 187 276 196 272 233 268 c 0
 312 261 338 290 283 327 c 0
EndSplineSet
EndChar
StartChar: uni0E06
Encoding: 101 3590 112
Width: 829
Flags: HW
Fore
334 515 m 2
 375 564 401 571 430 541 c 0
 449 520 486 403 486 361 c 0
 486 345 496 337 523 331 c 0
 566 323 611 298 639 268 c 0
 650 257 661 248 665 248 c 0
 668 248 668 312 665 390 c 0
 660 508 661 534 676 546 c 0
 686 554 701 557 712 553 c 0
 727 548 732 508 739 328 c 0
 744 208 748 94 749 76 c 0
 750 54 744 42 731 39 c 0
 717 37 700 57 672 111 c 0
 627 198 559 270 523 270 c 0
 501 270 498 265 503 234 c 0
 522 102 522 70 503 42 c 0
 481 11 433 4 422 31 c 0
 418 41 410 46 403 42 c 0
 383 30 353 92 348 158 c 0
 344 219 346 225 386 270 c 0
 417 306 427 325 422 347 c 0
 419 363 413 397 409 423 c 0
 400 475 389 482 365 449 c 0
 342 418 288 397 272 413 c 0
 256 428 227 410 227 386 c 0
 227 371 159 347 143 355 c 0
 137 358 133 368 133 376 c 0
 133 385 126 393 117 393 c 0
 97 393 83 438 94 467 c 0
 105 495 166 548 187 548 c 0
 196 548 225 530 249 509 c 2
 295 469 l 1
 334 515 l 2
207 467 m 0
 217 482 178 506 161 495 c 0
 145 484 141 407 157 398 c 0
 175 388 205 414 201 436 c 0
 199 446 202 460 207 467 c 0
450 132 m 0
 450 162 446 196 441 206 c 0
 434 223 430 221 412 192 c 0
 389 156 393 128 427 98 c 0
 450 78 450 79 450 132 c 0
EndSplineSet
EndChar
StartChar: uni0E07
Encoding: 102 3591 113
Width: 420
Flags: HW
Fore
149 516 m 0
 191 550 237 556 282 534 c 0
 336 507 359 388 355 161 c 0
 352 13 351 8 329 5 c 0
 316 4 297 11 286 21 c 0
 275 31 245 53 219 69 c 0
 144 115 121 137 125 156 c 0
 132 187 165 181 229 135 c 0
 267 109 294 95 294 102 c 0
 299 155 293 383 287 405 c 2
 279 433 l 1
 254 403 l 2
 223 367 195 352 148 346 c 0
 104 341 59 365 59 393 c 0
 59 419 103 480 149 516 c 0
250 475 m 0
 234 493 210 493 175 473 c 0
 149 458 117 404 128 393 c 0
 136 386 208 421 208 432 c 0
 208 437 221 445 236 450 c 0
 259 459 261 462 250 475 c 0
EndSplineSet
EndChar
StartChar: uni0E08
Encoding: 103 3592 114
Width: 451
Flags: HW
Fore
229 525 m 0
 271 555 293 560 321 545 c 0
 338 536 343 525 356 461 c 0
 365 417 362 167 351 92 c 0
 342 24 332 2 309 2 c 0
 297 2 294 18 289 113 c 0
 286 162 279 206 273 211 c 0
 266 218 263 217 263 210 c 0
 263 204 256 198 248 198 c 0
 240 198 226 194 216 188 c 0
 176 163 69 202 69 242 c 0
 69 264 88 294 99 287 c 0
 104 284 108 289 108 299 c 0
 108 322 146 347 191 354 c 0
 222 359 236 355 266 335 c 0
 287 321 306 312 308 314 c 0
 312 318 294 460 287 470 c 0
 272 494 243 485 196 444 c 0
 148 401 105 385 92 406 c 0
 85 418 111 447 156 476 c 0
 175 488 208 510 229 525 c 0
247 296 m 0
 201 322 186 320 156 285 c 0
 121 243 121 238 151 231 c 0
 193 221 239 234 253 260 c 0
 265 282 265 286 247 296 c 0
EndSplineSet
EndChar
StartChar: uni0E09
Encoding: 104 3593 115
Width: 636
Flags: HW
Fore
360 541 m 0
 397 560 399 560 439 541 c 0
 492 517 505 484 505 372 c 0
 505 278 506 274 529 265 c 0
 566 250 582 220 577 169 c 0
 571 102 546 55 512 52 c 0
 493 50 485 53 485 63 c 0
 485 71 478 80 469 83 c 0
 461 86 455 97 457 106 c 0
 464 153 441 143 372 73 c 0
 302 1 264 -21 243 -1 c 0
 227 15 216 87 214 190 c 0
 213 242 212 284 211 284 c 0
 211 284 188 273 161 260 c 0
 64 211 -12 276 58 349 c 0
 122 415 180 424 229 373 c 0
 249 352 256 333 261 274 c 0
 275 116 281 74 287 74 c 0
 290 74 328 111 369 155 c 2
 445 235 l 1
 444 340 l 2
 443 402 438 458 430 479 c 0
 423 497 416 507 416 501 c 0
 415 495 408 492 400 495 c 0
 392 498 360 484 328 465 c 0
 296 446 265 430 258 430 c 0
 251 430 245 426 245 420 c 0
 245 404 208 409 202 425 c 0
 198 435 204 449 218 462 c 0
 242 483 325 535 328 529 c 0
 329 528 343 533 360 541 c 0
182 346 m 0
 160 368 151 366 115 332 c 0
 91 309 86 299 96 293 c 0
 104 288 121 291 138 299 c 0
 154 308 171 311 176 308 c 0
 193 298 199 331 182 346 c 0
520 159 m 0
 526 198 524 206 511 206 c 0
 495 206 488 171 494 128 c 0
 500 88 511 102 520 159 c 0
EndSplineSet
EndChar
StartChar: uni0E0A
Encoding: 105 3594 116
Width: 575
Flags: HW
Fore
480 652 m 0
 536 684 541 686 550 671 c 0
 559 658 509 592 484 582 c 0
 473 578 446 554 424 530 c 2
 384 485 l 1
 407 457 l 2
 428 431 429 419 424 326 c 0
 414 164 364 16 314 3 c 0
 252 -12 245 14 245 232 c 0
 245 325 240 377 233 377 c 0
 227 377 208 366 192 355 c 0
 156 328 55 329 37 356 c 0
 23 380 35 419 68 450 c 0
 83 464 104 486 114 496 c 0
 138 522 186 545 212 545 c 0
 225 545 247 534 262 519 c 0
 292 489 290 487 377 572 c 0
 409 602 454 637 480 652 c 0
223 465 m 0
 211 498 208 498 153 468 c 0
 104 442 94 432 94 406 c 0
 94 383 150 380 169 403 c 0
 176 412 191 419 202 419 c 0
 229 419 236 433 223 465 c 0
353 432 m 0
 345 448 335 461 331 460 c 0
 301 456 298 444 299 299 c 0
 300 217 304 135 308 118 c 0
 315 87 316 87 328 109 c 0
 359 164 377 389 353 432 c 0
EndSplineSet
EndChar
StartChar: uni0E0B
Encoding: 106 3595 117
Width: 666
Flags: HW
Fore
531 553 m 0
 593 602 626 615 639 594 c 0
 649 578 634 557 581 515 c 0
 472 429 475 432 494 409 c 0
 504 399 512 386 512 382 c 0
 512 378 519 368 528 359 c 0
 540 346 542 328 537 274 c 0
 534 236 527 189 522 169 c 0
 517 149 508 111 501 84 c 0
 487 27 451 -17 420 -17 c 0
 375 -17 350 98 332 380 c 2
 326 484 l 1
 278 429 l 2
 229 372 204 367 191 410 c 2
 184 433 l 1
 167 407 l 2
 122 342 93 331 54 363 c 0
 40 375 30 398 25 430 c 0
 19 476 21 482 54 515 c 0
 73 535 99 554 113 557 c 0
 142 565 195 545 195 526 c 0
 195 519 203 503 213 490 c 2
 231 468 l 1
 270 516 l 2
 332 591 368 579 384 478 c 0
 388 456 392 438 394 438 c 0
 396 438 413 453 432 470 c 0
 450 488 495 525 531 553 c 0
144 500 m 0
 144 519 95 508 81 486 c 0
 76 480 73 457 73 435 c 0
 73 383 93 389 112 446 c 0
 120 470 130 490 135 490 c 0
 141 490 144 494 144 500 c 0
472 344 m 0
 455 377 445 386 425 386 c 0
 402 386 400 382 400 337 c 0
 400 262 418 77 426 64 c 0
 437 45 454 85 468 169 c 0
 476 212 485 259 488 274 c 0
 491 291 485 317 472 344 c 0
EndSplineSet
EndChar
StartChar: uni0E0C
Encoding: 107 3596 118
Width: 817
Flags: HW
Fore
260 532 m 0
 282 540 332 547 370 547 c 0
 430 548 445 543 482 517 c 0
 529 482 546 440 564 308 c 0
 573 242 580 222 596 213 c 0
 608 207 631 193 647 182 c 2
 676 162 l 1
 677 261 l 2
 677 316 681 395 685 436 c 0
 691 500 695 511 713 513 c 0
 758 519 764 503 752 413 c 0
 745 367 738 259 736 174 c 0
 734 88 728 11 724 1 c 0
 712 -28 686 -23 686 8 c 0
 686 48 645 120 612 137 c 2
 584 151 l 1
 572 80 l 2
 555 -19 512 -53 457 -11 c 0
 439 3 430 24 425 64 c 0
 421 103 422 120 431 120 c 0
 438 120 443 126 443 133 c 0
 443 140 460 162 481 181 c 2
 519 217 l 1
 507 289 l 2
 475 473 448 504 332 485 c 0
 275 476 183 437 155 410 c 0
 147 403 162 312 195 171 c 0
 209 111 215 99 229 106 c 0
 239 110 264 115 285 118 c 0
 318 122 324 119 329 99 c 0
 333 83 328 63 315 44 c 0
 297 19 286 14 249 14 c 0
 224 14 190 5 171 -7 c 0
 141 -25 135 -26 124 -12 c 0
 114 1 117 10 139 33 c 0
 155 49 166 65 163 68 c 0
 161 70 151 111 142 158 c 0
 108 335 101 357 75 374 c 0
 62 383 51 395 51 402 c 0
 51 417 202 512 260 532 c 0
512 84 m 0
 516 111 517 136 514 139 c 0
 503 149 473 89 477 66 c 0
 483 22 504 33 512 84 c 0
EndSplineSet
EndChar
StartChar: uni0E0D
Encoding: 108 3597 119
Width: 821
Flags: HW
Fore
568 -54 m 4
 585 -42 591 -43 616 -62 c 4
 637 -78 637 -80 617 -95 c 4
 589 -116 596 -167 628 -172 c 4
 644 -174 668 -158 700 -125 c 4
 733 -90 751 -79 760 -88 c 4
 769 -98 767 -111 754 -135 c 4
 744 -154 733 -176 729 -187 c 4
 721 -210 665 -244 636 -244 c 4
 605 -244 545 -186 535 -147 c 4
 528 -115 543 -71 568 -54 c 4
644 536 m 0
 666 563 699 559 708 528 c 0
 712 514 717 463 719 414 c 0
 721 364 726 290 731 247 c 0
 745 115 737 96 639 34 c 0
 483 -67 474 -55 442 313 c 0
 435 383 430 399 401 428 c 0
 361 468 342 466 232 410 c 0
 182 384 162 368 165 355 c 0
 168 345 176 290 184 234 c 0
 200 120 209 109 264 131 c 0
 284 140 311 143 327 139 c 0
 350 133 356 125 356 96 c 0
 356 57 302 -9 269 -9 c 0
 257 -9 231 -15 211 -23 c 0
 182 -34 166 -34 144 -24 c 0
 109 -7 106 15 139 23 c 0
 159 29 162 35 155 66 c 0
 151 86 145 121 142 143 c 0
 131 223 100 331 84 344 c 0
 59 366 67 395 106 418 c 0
 232 493 282 512 353 513 c 0
 473 514 500 465 518 215 c 0
 525 128 532 54 535 51 c 0
 538 48 570 67 606 93 c 0
 669 138 673 144 671 187 c 0
 670 242 659 336 642 439 c 0
 632 501 632 522 644 536 c 0
294 64 m 0
 298 70 299 76 296 78 c 0
 290 84 241 58 241 48 c 0
 241 37 286 50 294 64 c 0
EndSplineSet
Substitution: 0 65534 'nds0' uni0E0D.descless
Substitution: 0 65534 'ndsc' uni0E0D.descless
EndChar
StartChar: uni0E0E
Encoding: 109 3598 120
Width: 598
Flags: HW
AnchorPoint: "BelowBase" 416 -251 basechar 0
Fore
307 484 m 0
 395 542 432 551 460 520 c 0
 497 480 509 406 519 185 c 0
 524 66 531 -41 534 -110 c 0
 540 -223 539 -237 523 -243 c 0
 498 -253 475 -236 454 -194 c 0
 445 -175 429 -152 420 -144 c 0
 405 -133 399 -134 375 -156 c 0
 326 -202 272 -218 214 -204 c 0
 124 -183 112 -127 180 -56 c 0
 215 -19 219 -18 269 -23 c 0
 304 -26 330 -36 346 -50 c 0
 373 -75 393 -78 393 -58 c 0
 393 -49 410 -31 430 -16 c 2
 467 12 l 1
 461 142 l 2
 456 305 430 493 415 486 c 0
 412 484 367 455 317 422 c 0
 227 362 225 360 257 357 c 0
 306 352 325 317 317 246 c 0
 313 214 304 176 296 161 c 0
 289 147 279 119 275 100 c 0
 272 82 258 56 245 43 c 0
 201 0 102 -33 102 -4 c 0
 102 1 95 6 87 6 c 0
 68 6 53 80 70 86 c 0
 76 88 82 101 82 115 c 0
 82 133 89 142 110 150 c 0
 126 155 147 164 156 170 c 0
 165 175 189 177 208 174 c 2
 243 168 l 1
 257 231 l 2
 265 266 268 297 264 301 c 0
 260 305 231 309 201 309 c 0
 141 309 118 320 147 336 c 0
 157 342 180 366 196 388 c 0
 213 411 264 454 307 484 c 0
207 113 m 0
 195 143 193 144 147 124 c 0
 117 111 113 104 113 68 c 0
 113 20 126 13 173 35 c 0
 213 53 222 74 207 113 c 0
477 -90 m 0
 477 -63 475 -41 474 -41 c 0
 454 -41 450 -98 467 -123 c 0
 474 -134 477 -125 477 -90 c 0
323 -88 m 0
 274 -63 233 -66 213 -97 c 0
 184 -141 191 -154 244 -154 c 0
 270 -154 296 -149 303 -143 c 0
 310 -137 324 -126 336 -119 c 0
 355 -105 355 -104 323 -88 c 0
EndSplineSet
EndChar
StartChar: uni0E0F
Encoding: 110 3599 121
Width: 606
Flags: HW
AnchorPoint: "BelowBase" 424 -251 basechar 0
Fore
324 545 m 0
 361 565 403 581 418 581 c 0
 461 582 510 543 523 496 c 0
 553 391 563 -205 535 -235 c 0
 517 -254 473 -235 466 -205 c 0
 463 -190 443 -177 436 -169 c 0
 428 -161 422 -150 408 -127 c 0
 395 -104 381 -85 377 -85 c 0
 373 -85 363 -110 356 -138 c 0
 324 -262 304 -271 271 -177 c 0
 259 -142 244 -107 239 -101 c 0
 223 -82 182 -90 172 -114 c 0
 147 -170 -5 -218 -41 -180 c 0
 -56 -165 -57 -157 -47 -134 c 0
 -25 -84 50 1 83 14 c 0
 123 28 189 29 203 14 c 0
 210 7 227 13 252 33 c 0
 274 50 298 59 307 55 c 0
 321 49 320 41 297 4 c 0
 273 -33 271 -42 283 -62 c 0
 301 -94 311 -92 324 -53 c 0
 345 11 408 -6 451 -86 c 0
 464 -110 479 -130 484 -130 c 0
 490 -130 491 -117 486 54 c 0
 477 449 476 451 460 485 c 0
 447 513 441 516 408 509 c 0
 388 505 357 494 341 485 c 0
 310 469 310 469 331 448 c 0
 364 416 369 362 344 288 c 0
 333 253 316 212 307 198 c 0
 299 185 291 166 291 158 c 0
 291 143 237 95 220 95 c 0
 215 95 204 85 194 72 c 0
 170 42 149 44 118 77 c 0
 66 131 96 222 174 249 c 0
 206 260 220 260 239 249 c 0
 268 233 272 240 292 324 c 0
 305 380 305 386 286 400 c 0
 261 419 228 419 228 400 c 0
 228 391 217 382 202 378 c 0
 97 350 187 474 324 545 c 0
244 205 m 0
 232 226 155 202 155 178 c 0
 155 170 152 156 149 148 c 0
 147 140 148 127 152 120 c 0
 165 99 240 138 233 162 c 0
 230 172 232 184 238 188 c 0
 245 192 247 200 244 205 c 0
165 -53 m 0
 165 -46 149 -41 129 -41 c 0
 100 -41 86 -49 60 -82 c 0
 29 -122 28 -124 50 -128 c 0
 79 -133 134 -109 134 -91 c 0
 134 -83 141 -74 149 -70 c 0
 158 -67 165 -59 165 -53 c 0
EndSplineSet
EndChar
StartChar: uni0E10
Encoding: 111 3600 122
Width: 606
Flags: HW
Fore
217 -46 m 0
 256 -32 259 -46 226 -85 c 0
 210 -104 198 -127 198 -138 c 0
 198 -154 201 -154 222 -131 c 0
 246 -106 285 -96 285 -114 c 0
 285 -127 352 -192 359 -185 c 0
 362 -182 358 -172 349 -163 c 0
 336 -150 334 -137 340 -105 c 0
 346 -69 351 -63 373 -60 c 0
 396 -58 401 -62 410 -98 c 0
 422 -138 411 -194 387 -225 c 0
 369 -248 327 -237 294 -200 c 0
 266 -169 263 -167 252 -183 c 0
 213 -246 193 -250 161 -199 c 2
 144 -172 l 1
 126 -198 l 2
 102 -232 56 -243 38 -220 c 0
 14 -189 25 -114 57 -93 c 0
 63 -89 87 -86 110 -86 c 0
 135 -86 162 -79 177 -69 c 0
 192 -59 209 -49 217 -46 c 0
121 -146 m 0
 121 -129 93 -130 86 -148 c 0
 83 -155 83 -164 85 -167 c 0
 94 -175 121 -159 121 -146 c 0
492 560 m 0
 503 595 512 607 524 605 c 0
 547 601 549 574 530 508 c 0
 510 435 490 424 448 465 c 0
 432 480 407 495 389 498 c 0
 353 505 333 496 354 482 c 0
 382 462 399 412 414 309 c 0
 430 201 434 62 423 10 c 0
 419 -13 412 -19 394 -19 c 0
 367 -19 365 -11 357 104 c 0
 349 217 342 232 307 199 c 0
 295 187 275 182 240 182 c 0
 146 182 124 239 191 306 c 0
 233 348 282 361 322 341 c 0
 338 332 352 328 352 330 c 0
 352 333 347 356 341 383 c 0
 329 438 317 441 267 405 c 0
 237 383 233 382 220 395 c 0
 196 417 212 456 262 501 c 0
 330 562 405 571 460 525 c 0
 474 514 477 517 492 560 c 0
311 293 m 0
 288 309 286 309 264 300 c 0
 229 286 197 253 203 239 c 0
 216 206 332 231 332 267 c 0
 332 273 323 285 311 293 c 0
EndSplineSet
Substitution: 0 65534 'nds0' uni0E10.descless
Substitution: 0 65534 'ndsc' uni0E10.descless
EndChar
StartChar: uni0E11
Encoding: 112 3601 123
Width: 772
Flags: HW
Fore
573 533 m 0
 608 557 613 557 639 543 c 0
 678 522 695 449 701 275 c 0
 711 3 709 -13 665 2 c 0
 647 8 646 22 645 170 c 0
 644 341 635 440 619 466 c 0
 605 488 581 456 525 341 c 0
 484 258 469 211 436 58 c 0
 422 -6 396 -40 377 -19 c 0
 371 -13 362 94 357 218 c 0
 352 342 344 448 339 453 c 0
 329 463 298 421 270 360 c 0
 258 334 246 314 244 314 c 0
 223 314 206 331 206 353 c 0
 206 389 173 388 125 351 c 0
 81 316 64 321 49 373 c 0
 34 425 48 467 88 491 c 0
 136 520 171 515 207 473 c 2
 239 436 l 1
 272 474 l 2
 361 578 403 542 416 355 c 2
 423 254 l 1
 448 322 l 2
 481 415 536 508 573 533 c 0
153 438 m 0
 153 452 145 467 137 470 c 0
 126 474 119 464 110 432 c 0
 104 408 100 384 102 378 c 0
 108 359 153 412 153 438 c 0
EndSplineSet
EndChar
StartChar: uni0E12
Encoding: 113 3602 124
Width: 730
Flags: HW
Fore
377 515 m 0
 392 534 410 549 415 549 c 0
 449 549 488 463 502 354 c 0
 506 330 511 293 513 273 c 0
 516 253 524 237 532 237 c 0
 539 237 562 216 581 192 c 2
 617 147 l 1
 611 313 l 1
 604 479 l 1
 628 486 l 2
 660 496 691 456 683 415 c 0
 680 400 675 299 672 192 c 0
 666 -23 665 -31 644 -31 c 0
 618 -31 600 -1 578 77 c 0
 558 144 545 169 527 170 c 0
 524 170 520 138 519 100 c 0
 518 62 512 17 506 0 c 0
 493 -36 467 -50 455 -25 c 0
 450 -16 440 -9 432 -9 c 0
 424 -9 415 3 411 16 c 0
 407 29 398 48 390 56 c 0
 367 82 376 129 417 194 c 0
 455 256 456 260 447 312 c 0
 426 436 422 454 413 454 c 0
 408 454 383 412 356 360 c 0
 329 307 303 259 297 251 c 0
 292 244 282 211 276 179 c 0
 256 67 246 37 221 3 c 0
 183 -47 146 -43 109 14 c 0
 41 116 48 302 124 424 c 0
 144 457 169 486 180 489 c 0
 206 499 245 465 270 412 c 0
 280 390 292 373 296 376 c 0
 300 379 313 403 325 431 c 0
 338 459 361 496 377 515 c 0
226 383 m 0
 215 401 200 415 193 415 c 0
 180 415 131 317 140 307 c 0
 142 304 155 308 167 315 c 0
 179 323 199 326 212 322 c 0
 245 313 252 343 226 383 c 0
216 230 m 0
 226 244 226 250 214 264 c 0
 201 279 198 278 178 253 c 0
 167 239 157 223 157 220 c 0
 157 207 205 216 216 230 c 0
227 161 m 0
 227 172 223 180 219 180 c 0
 200 176 114 148 111 144 c 0
 98 130 149 25 169 25 c 0
 180 25 226 134 227 161 c 0
461 99 m 0
 468 168 466 176 449 157 c 0
 435 141 432 52 445 42 c 0
 450 39 457 64 461 99 c 0
EndSplineSet
EndChar
StartChar: uni0E13
Encoding: 114 3603 125
Width: 779
Flags: HW
Fore
259 517 m 0
 294 531 332 542 344 542 c 0
 426 545 480 431 495 219 c 0
 499 165 504 121 507 121 c 0
 511 121 578 177 608 206 c 0
 622 220 625 244 627 358 c 0
 629 468 633 495 645 504 c 0
 654 510 669 511 678 507 c 0
 694 500 695 488 690 382 c 0
 684 275 686 263 704 236 c 0
 735 192 743 125 725 66 c 0
 700 -18 667 -13 641 79 c 2
 623 142 l 1
 560 84 l 2
 457 -9 452 -3 433 241 c 0
 425 345 417 388 401 420 c 0
 389 445 375 467 370 471 c 0
 349 488 305 477 238 440 c 2
 168 400 l 1
 163 253 l 2
 160 172 159 102 161 97 c 0
 163 93 176 97 192 105 c 0
 253 140 304 113 293 54 c 0
 285 7 251 -26 214 -26 c 0
 128 -26 105 22 105 210 c 0
 105 335 104 340 86 335 c 0
 62 328 51 354 66 384 c 0
 82 416 188 490 259 517 c 0
240 60 m 0
 240 75 224 70 206 47 c 0
 193 33 191 23 199 15 c 0
 206 7 214 11 225 27 c 0
 233 41 240 55 240 60 c 0
EndSplineSet
EndChar
StartChar: uni0E14
Encoding: 115 3604 126
Width: 511
Flags: HW
Fore
263 530 m 0
 307 554 351 553 382 527 c 0
 433 484 443 433 446 186 c 0
 448 32 447 12 432 4 c 0
 395 -19 390 5 386 226 c 0
 383 419 381 437 362 463 c 0
 321 520 266 489 195 370 c 0
 132 265 132 264 181 270 c 0
 272 281 294 175 227 44 c 0
 205 0 192 -13 162 -23 c 0
 111 -41 87 -28 61 32 c 0
 40 82 42 118 72 241 c 0
 94 331 204 499 263 530 c 0
198 217 m 0
 203 234 146 225 127 207 c 0
 105 185 103 169 122 169 c 0
 144 169 196 192 196 201 c 0
 196 207 196 213 198 217 c 0
218 132 m 0
 212 151 208 151 176 132 c 0
 163 124 139 118 121 118 c 0
 96 118 90 114 90 98 c 0
 90 67 117 16 133 16 c 0
 163 16 228 105 218 132 c 0
EndSplineSet
EndChar
StartChar: uni0E15
Encoding: 116 3605 127
Width: 549
Flags: HW
Fore
418 537 m 0
 438 554 469 538 481 505 c 0
 513 420 523 25 495 13 c 0
 486 10 472 14 463 24 c 0
 451 38 447 75 445 233 c 0
 443 338 438 429 432 435 c 0
 427 441 416 433 405 416 c 0
 370 361 303 289 292 296 c 0
 279 305 278 296 292 269 c 0
 303 246 279 117 258 88 c 0
 216 28 182 -1 156 -1 c 0
 127 -1 82 36 82 60 c 0
 82 67 77 75 70 78 c 0
 61 81 58 112 59 190 c 0
 63 383 127 525 206 517 c 0
 232 514 242 503 273 445 c 0
 307 380 310 377 321 400 c 0
 338 434 400 522 418 537 c 0
237 385 m 2
 220 423 201 454 195 454 c 0
 168 454 112 288 134 274 c 0
 139 270 151 279 161 292 c 0
 175 311 189 316 223 316 c 2
 267 316 l 1
 237 385 l 2
232 253 m 0
 232 262 228 271 224 273 c 0
 212 280 177 269 169 256 c 0
 157 234 161 224 179 232 c 0
 189 237 204 240 214 239 c 0
 224 239 232 245 232 253 c 0
252 195 m 0
 252 208 242 206 194 183 c 0
 159 166 146 165 126 175 c 0
 96 190 84 178 100 151 c 0
 107 138 112 118 112 104 c 0
 112 75 129 53 153 53 c 0
 189 53 252 143 252 195 c 0
EndSplineSet
EndChar
StartChar: uni0E16
Encoding: 117 3606 128
Width: 538
Flags: HW
Fore
283 528 m 0
 335 546 374 546 399 527 c 0
 449 490 477 370 483 164 c 0
 488 29 486 13 472 7 c 0
 444 -4 425 18 428 61 c 0
 432 134 412 389 399 418 c 0
 393 433 379 456 370 468 c 0
 353 489 351 489 315 476 c 0
 293 468 251 447 220 429 c 0
 174 402 165 393 169 375 c 0
 172 364 174 289 174 210 c 2
 174 65 l 1
 219 90 l 2
 281 125 307 124 307 86 c 0
 307 19 263 -47 219 -47 c 0
 204 -47 177 -40 160 -31 c 0
 130 -16 128 -12 122 54 c 0
 119 93 119 169 123 226 c 2
 130 329 l 1
 100 329 l 2
 76 329 70 334 70 350 c 0
 70 396 190 496 283 528 c 0
241 30 m 0
 241 40 213 32 203 19 c 0
 190 2 196 -27 212 -27 c 0
 220 -27 241 14 241 30 c 0
EndSplineSet
EndChar
StartChar: uni0E17
Encoding: 118 3607 129
Width: 617
Flags: HW
Fore
413 496 m 0
 449 536 476 544 511 524 c 0
 552 501 557 464 547 235 c 0
 542 117 536 15 533 8 c 0
 531 1 519 -4 507 -2 c 0
 486 1 486 4 488 108 c 0
 490 167 495 247 500 288 c 0
 509 362 499 457 480 469 c 0
 470 475 394 399 394 383 c 0
 394 378 379 347 362 315 c 0
 344 282 322 234 312 209 c 0
 303 184 289 157 282 148 c 0
 275 140 267 111 263 82 c 0
 256 23 237 -7 213 -2 c 0
 190 2 177 94 185 192 c 0
 192 282 185 311 157 311 c 0
 144 311 132 304 129 296 c 0
 121 274 62 277 42 300 c 0
 18 327 29 371 70 416 c 0
 110 460 143 469 181 449 c 0
 214 430 231 378 234 286 c 0
 237 180 236 181 255 209 c 0
 264 224 274 237 277 240 c 0
 281 243 289 264 295 288 c 0
 310 344 370 448 413 496 c 0
153 406 m 0
 143 416 134 423 131 422 c 0
 113 419 103 408 103 391 c 0
 103 381 99 372 94 372 c 0
 88 372 84 365 84 356 c 0
 84 343 90 341 111 346 c 0
 125 350 145 354 155 354 c 0
 177 356 176 385 153 406 c 0
EndSplineSet
EndChar
StartChar: uni0E18
Encoding: 119 3608 130
Width: 492
Flags: HW
Fore
393 628 m 0
 399 638 433 637 440 625 c 0
 443 620 441 604 436 588 c 0
 431 572 424 542 421 522 c 0
 417 501 406 474 396 461 c 2
 378 438 l 1
 348 461 l 2
 331 473 310 483 301 483 c 0
 286 483 286 480 304 460 c 0
 353 405 358 313 322 146 c 0
 277 -63 220 -76 184 117 c 0
 174 174 168 246 170 287 c 0
 173 351 175 357 195 360 c 0
 216 363 217 360 217 300 c 0
 217 237 246 90 258 90 c 0
 266 90 286 206 291 277 c 0
 292 305 287 353 279 385 c 0
 265 437 261 443 238 443 c 0
 223 443 203 437 192 429 c 0
 166 411 107 401 90 412 c 0
 62 430 103 490 166 522 c 0
 211 546 334 552 353 533 c 0
 360 526 367 537 376 571 c 0
 383 597 391 623 393 628 c 0
EndSplineSet
EndChar
StartChar: uni0E19
Encoding: 120 3609 131
Width: 681
Flags: HW
Fore
125 537 m 0
 170 569 186 570 235 545 c 0
 269 527 272 521 276 466 c 0
 299 171 309 89 319 93 c 0
 326 96 345 123 362 152 c 0
 379 181 413 228 437 255 c 2
 481 304 l 1
 488 416 l 2
 492 478 499 534 503 541 c 0
 507 549 523 553 536 551 c 0
 561 547 561 546 558 457 c 0
 554 367 554 366 586 337 c 0
 615 311 618 302 620 244 c 0
 621 177 605 92 586 69 c 0
 581 62 563 53 548 48 c 0
 509 38 493 65 493 136 c 0
 493 168 488 197 483 200 c 0
 477 204 450 174 423 133 c 0
 395 93 355 40 334 16 c 0
 302 -21 292 -26 276 -16 c 0
 262 -6 255 21 246 109 c 0
 239 171 233 261 232 309 c 0
 231 418 223 434 184 402 c 0
 152 376 98 372 69 394 c 0
 50 408 50 411 68 459 c 0
 81 493 100 519 125 537 c 0
204 479 m 0
 208 495 202 498 173 498 c 0
 149 498 137 494 137 483 c 0
 137 475 135 461 131 452 c 0
 127 439 132 439 162 449 c 0
 182 455 201 469 204 479 c 0
566 187 m 0
 566 281 550 301 541 217 c 0
 537 181 531 143 528 134 c 0
 524 124 530 119 545 119 c 0
 564 119 567 125 566 187 c 0
EndSplineSet
EndChar
StartChar: uni0E1A
Encoding: 121 3610 132
Width: 624
Flags: HW
Fore
496 539 m 0
 541 587 563 543 569 388 c 0
 575 240 562 177 508 92 c 0
 465 23 422 -6 351 -14 c 0
 317 -18 308 -15 296 6 c 0
 268 55 253 142 247 284 c 2
 241 428 l 1
 212 390 l 2
 179 348 135 334 85 349 c 0
 61 356 54 364 51 391 c 0
 47 435 71 473 128 514 c 0
 173 546 227 556 239 535 c 0
 242 529 253 524 263 524 c 0
 278 524 284 510 294 449 c 0
 300 408 305 351 305 324 c 0
 305 258 335 67 348 54 c 0
 360 40 417 73 458 118 c 0
 481 143 493 169 501 217 c 0
 515 295 509 465 492 483 c 0
 475 501 476 519 496 539 c 0
213 475 m 0
 194 500 169 495 139 461 c 0
 114 434 101 394 117 394 c 0
 123 394 176 429 182 438 c 0
 185 441 196 448 207 452 c 0
 222 458 223 462 213 475 c 0
EndSplineSet
EndChar
StartChar: uni0E1B
Encoding: 122 3611 133
Width: 594
Flags: HW
AnchorPoint: "AboveBase" 448 560 basechar 0
Fore
472 895 m 0
 487 919 513 913 519 883 c 0
 526 842 528 337 522 263 c 0
 513 169 503 143 458 87 c 0
 359 -37 281 -44 242 66 c 0
 230 100 229 128 234 208 c 0
 237 263 237 336 234 370 c 0
 228 420 225 430 213 423 c 0
 205 418 183 412 163 409 c 0
 135 405 123 410 102 434 c 0
 68 473 75 493 136 532 c 0
 178 560 190 562 215 551 c 0
 273 525 277 506 281 293 c 0
 283 187 289 92 294 80 c 0
 298 68 312 59 324 59 c 0
 345 59 428 129 449 163 c 0
 473 204 481 373 472 629 c 0
 466 797 466 884 472 895 c 0
194 504 m 0
 179 516 178 516 152 502 c 0
 125 488 135 466 168 466 c 0
 197 466 212 488 194 504 c 0
EndSplineSet
EndChar
StartChar: uni0E1C
Encoding: 123 3612 134
Width: 575
Flags: HW
Fore
474 521 m 0
 481 527 495 530 503 529 c 0
 525 524 527 403 508 197 c 0
 500 105 493 25 493 21 c 0
 493 1 445 16 436 39 c 0
 380 179 350 220 316 205 c 0
 307 201 283 155 262 103 c 0
 241 51 216 0 206 -9 c 0
 176 -37 146 16 131 124 c 0
 125 174 114 252 108 296 c 0
 93 406 109 460 165 491 c 0
 219 521 293 522 321 493 c 0
 345 468 349 409 330 380 c 0
 312 354 238 334 196 343 c 0
 155 351 155 351 171 249 c 0
 176 212 183 163 186 142 c 0
 191 105 193 105 211 124 c 0
 222 135 231 156 231 171 c 0
 231 187 242 204 261 217 c 0
 278 229 292 244 292 252 c 0
 292 261 303 270 317 274 c 0
 349 283 418 234 435 189 c 0
 445 163 448 186 453 334 c 0
 457 469 462 514 474 521 c 0
260 462 m 0
 217 478 207 477 188 454 c 0
 157 415 166 404 229 408 c 0
 272 410 287 416 289 430 c 0
 291 442 281 453 260 462 c 0
EndSplineSet
EndChar
StartChar: uni0E1D
Encoding: 124 3613 135
Width: 549
Flags: HW
AnchorPoint: "AboveBase" 403 560 basechar 0
Fore
429 879 m 0
 429 881 441 882 455 882 c 0
 489 882 493 865 480 751 c 0
 474 698 467 530 466 379 c 0
 463 91 453 15 418 7 c 0
 400 4 398 6 330 143 c 0
 280 244 274 242 235 117 c 0
 220 69 197 19 184 5 c 0
 163 -19 158 -19 132 -5 c 0
 111 7 102 22 96 58 c 0
 91 83 84 125 79 151 c 0
 67 220 83 400 106 448 c 0
 120 479 138 494 181 511 c 2
 237 535 l 5
 268 509 l 2
 293 488 299 475 299 440 c 0
 298 375 271 345 202 332 c 0
 170 326 141 321 137 321 c 0
 134 321 129 301 126 277 c 0
 121 224 141 92 154 93 c 0
 165 93 202 172 212 217 c 0
 215 233 232 258 249 273 c 0
 278 298 282 298 305 280 c 0
 319 270 345 238 362 208 c 2
 395 156 l 1
 403 194 l 2
 408 216 409 315 407 414 c 0
 403 530 406 646 415 736 c 0
 422 813 428 878 429 879 c 0
234 432 m 0
 234 464 231 467 198 470 c 0
 160 474 149 461 149 413 c 0
 149 393 154 390 191 393 c 0
 232 397 234 399 234 432 c 0
EndSplineSet
EndChar
StartChar: uni0E1E
Encoding: 125 3614 136
Width: 647
Flags: HW
Fore
512 520 m 0
 537 536 552 532 560 505 c 0
 564 491 574 475 582 468 c 0
 594 459 596 416 594 228 c 0
 591 18 589 -1 572 -4 c 0
 546 -9 527 21 511 89 c 0
 504 120 496 147 492 150 c 0
 489 153 473 177 457 203 c 0
 407 286 383 264 312 73 c 0
 279 -17 259 -43 239 -22 c 0
 233 -16 228 71 227 170 c 0
 225 291 221 352 213 352 c 0
 207 352 190 337 175 319 c 0
 126 260 52 259 30 317 c 0
 18 348 20 355 50 402 c 0
 120 510 157 522 227 457 c 2
 269 418 l 1
 276 305 l 1
 283 192 l 1
 311 230 l 2
 369 308 385 321 415 313 c 0
 443 306 495 257 521 212 c 0
 532 194 533 212 529 312 c 0
 526 381 517 452 510 472 c 0
 498 504 499 511 512 520 c 0
194 413 m 0
 190 424 174 430 148 430 c 0
 106 430 85 410 70 355 c 0
 62 328 87 312 118 325 c 0
 150 338 200 396 194 413 c 0
EndSplineSet
EndChar
StartChar: uni0E1F
Encoding: 126 3615 137
Width: 670
Flags: HW
AnchorPoint: "AboveBase" 524 560 basechar 0
Fore
565 782 m 0
 571 786 584 788 592 787 c 0
 610 783 611 661 594 340 c 0
 577 28 571 -10 545 -15 c 0
 522 -18 510 2 474 113 c 0
 450 185 408 237 373 237 c 0
 350 237 342 228 326 188 c 0
 316 161 304 113 300 83 c 0
 292 24 271 -9 245 -3 c 0
 231 -0 227 28 220 177 c 2
 211 354 l 1
 185 347 l 2
 100 325 80 325 60 350 c 0
 48 363 40 385 40 400 c 0
 40 433 120 533 154 542 c 0
 229 564 275 483 275 332 c 0
 275 236 275 236 298 249 c 0
 310 257 327 273 335 285 c 0
 346 303 356 306 386 299 c 0
 440 288 456 276 490 223 c 0
 509 193 522 182 525 192 c 0
 527 201 532 291 535 392 c 0
 544 664 552 772 565 782 c 0
203 460 m 0
 182 506 111 496 111 448 c 0
 111 440 106 433 101 433 c 0
 86 433 89 403 105 388 c 0
 123 371 158 380 192 409 c 0
 216 429 216 433 203 460 c 0
EndSplineSet
EndChar
StartChar: uni0E20
Encoding: 127 3616 138
Width: 621
Flags: HW
Fore
367 546 m 0
 404 569 480 541 503 498 c 0
 538 429 576 9 549 -20 c 0
 528 -42 495 -25 494 7 c 0
 494 22 490 119 486 223 c 0
 478 401 477 413 452 453 c 0
 438 477 421 496 415 496 c 0
 399 496 299 446 299 438 c 0
 299 434 306 421 313 411 c 0
 334 383 340 315 328 258 c 0
 300 122 283 76 248 37 c 0
 215 0 208 -3 175 2 c 0
 134 9 103 34 103 61 c 0
 103 71 98 82 92 86 c 0
 79 94 88 153 105 183 c 0
 123 212 167 224 211 212 c 0
 232 206 254 203 258 206 c 0
 270 214 282 328 274 364 c 0
 267 397 245 403 208 383 c 0
 194 375 185 376 175 386 c 0
 162 399 167 407 209 447 c 0
 235 472 279 503 305 515 c 0
 331 527 359 541 367 546 c 0
237 149 m 0
 219 164 178 173 165 164 c 0
 153 155 127 71 135 63 c 0
 138 60 158 55 180 52 c 0
 216 47 222 50 226 69 c 0
 230 81 236 90 241 90 c 0
 254 90 251 137 237 149 c 0
EndSplineSet
EndChar
StartChar: uni0E21
Encoding: 128 3617 139
Width: 658
Flags: HW
Fore
541 528 m 0
 556 558 579 557 594 527 c 0
 604 509 603 487 594 439 c 0
 584 394 583 328 588 222 c 0
 594 94 593 65 580 47 c 0
 560 19 549 30 511 110 c 0
 496 142 467 181 446 199 c 0
 414 226 404 229 373 221 c 0
 353 216 337 205 336 196 c 0
 328 118 305 13 293 1 c 0
 273 -20 264 -18 231 12 c 0
 207 34 203 46 203 94 c 0
 203 131 208 156 220 168 c 0
 230 178 238 193 238 201 c 0
 238 209 250 226 264 240 c 0
 285 261 290 277 290 318 c 0
 290 379 283 391 260 368 c 0
 163 268 76 259 55 347 c 0
 47 382 70 427 122 477 c 0
 156 509 173 517 207 517 c 0
 284 517 323 465 339 341 c 0
 346 286 347 285 380 285 c 0
 423 285 467 267 496 239 c 2
 518 217 l 1
 524 362 l 2
 527 441 535 516 541 528 c 0
249 445 m 0
 216 487 132 446 117 382 c 0
 107 339 133 333 183 367 c 0
 258 419 264 426 249 445 c 0
273 132 m 0
 277 149 278 163 275 163 c 0
 266 163 249 121 249 101 c 0
 249 74 265 94 273 132 c 0
EndSplineSet
EndChar
StartChar: uni0E22
Encoding: 129 3618 140
Width: 530
Flags: HW
Fore
191 523 m 0
 236 549 266 548 278 518 c 0
 285 497 280 486 246 450 c 0
 222 425 182 397 155 385 c 0
 98 361 88 351 102 324 c 0
 118 290 213 308 259 354 c 0
 279 373 308 363 308 336 c 0
 308 325 303 315 299 315 c 0
 294 315 280 291 268 259 c 0
 241 189 244 100 275 66 c 0
 295 44 297 44 339 62 c 0
 410 91 422 121 419 282 c 0
 418 355 413 419 408 422 c 0
 403 426 395 446 391 468 c 0
 386 501 388 509 406 520 c 0
 444 542 455 516 466 371 c 0
 485 142 460 59 357 8 c 0
 296 -22 257 -9 219 57 c 0
 190 106 188 116 191 181 c 2
 195 251 l 1
 148 244 l 2
 105 238 99 240 71 271 c 0
 39 305 35 325 52 377 c 0
 63 411 139 491 191 523 c 0
EndSplineSet
EndChar
StartChar: uni0E23
Encoding: 130 3619 141
Width: 454
Flags: HW
Fore
364 633 m 0
 370 647 405 646 411 632 c 0
 415 626 413 604 407 584 c 0
 402 564 391 516 382 476 c 0
 370 421 361 404 346 404 c 0
 314 404 294 419 284 449 c 0
 272 489 210 504 182 474 c 0
 155 444 163 434 222 425 c 0
 291 413 317 385 323 316 c 0
 331 226 311 97 281 48 c 0
 250 -1 181 -33 154 -12 c 0
 135 2 122 49 115 127 c 0
 111 173 114 185 137 211 c 0
 159 235 174 240 217 238 c 2
 269 236 l 1
 273 289 l 2
 275 331 272 344 257 351 c 0
 247 355 236 365 232 372 c 0
 228 379 197 385 163 386 c 0
 129 386 98 391 94 396 c 0
 86 405 112 479 123 479 c 0
 127 479 131 486 131 493 c 0
 131 521 177 554 216 554 c 0
 255 555 316 523 316 502 c 0
 316 473 335 511 346 563 c 0
 354 596 362 628 364 633 c 0
252 133 m 0
 249 170 246 173 211 177 c 0
 167 181 159 168 164 102 c 0
 167 67 171 60 196 57 c 0
 234 52 256 82 252 133 c 0
EndSplineSet
EndChar
StartChar: uni0E24
Encoding: 131 3620 142
Width: 606
Flags: HW
Fore
258 521 m 0
 341 550 373 552 420 528 c 0
 492 493 511 390 522 -16 c 0
 529 -284 529 -229 507 -236 c 4
 495 -240 481 -241 476 -238 c 4
 471 -235 464 -164 460 -12 c 0
 455 140 448 299 443 342 c 0
 432 433 405 483 365 483 c 0
 322 483 244 459 215 437 c 2
 188 416 l 1
 194 281 l 2
 197 206 200 145 201 143 c 0
 203 142 225 149 250 159 c 0
 295 176 299 176 324 159 c 0
 370 128 357 35 302 2 c 0
 259 -24 259 -24 196 5 c 0
 139 31 131 49 136 141 c 0
 137 167 138 226 136 272 c 2
 134 355 l 1
 99 349 l 2
 53 339 41 367 74 406 c 0
 87 421 103 439 109 446 c 0
 126 466 185 495 258 521 c 0
289 89 m 0
 289 117 255 113 227 82 c 0
 203 56 203 54 223 40 c 0
 234 31 246 24 250 24 c 0
 262 23 289 69 289 89 c 0
EndSplineSet
EndChar
StartChar: uni0E25
Encoding: 132 3621 143
Width: 432
Flags: HW
Fore
276 529 m 0
 287 533 301 538 307 538 c 0
 331 539 369 514 375 493 c 0
 378 482 378 368 374 239 c 0
 367 46 364 5 351 0 c 0
 343 -3 330 -1 322 5 c 0
 309 14 307 33 309 111 c 0
 312 199 310 209 290 230 c 0
 248 271 223 257 150 151 c 0
 128 119 131 115 173 127 c 0
 243 146 290 114 277 57 c 0
 269 22 177 -17 124 -10 c 0
 76 -3 76 -3 69 49 c 0
 65 83 70 107 93 160 c 0
 144 278 223 338 287 307 c 0
 301 300 314 294 316 294 c 0
 323 294 319 424 312 452 c 2
 306 477 l 1
 270 447 l 2
 251 430 216 397 194 374 c 0
 150 329 131 322 126 350 c 0
 123 370 244 514 276 529 c 0
203 50 m 2
 225 72 l 1
 202 70 l 2
 155 68 134 60 134 44 c 0
 134 22 176 25 203 50 c 2
EndSplineSet
EndChar
StartChar: uni0E26
Encoding: 133 3622 144
Width: 662
Flags: HW
Fore
288 513 m 0
 373 559 397 560 441 515 c 0
 481 474 490 438 513 238 c 0
 525 134 537 -86 530 -224 c 0
 530 -232 520 -237 506 -235 c 2
 494 -224 l 1
 486 88 l 1
 469 328 457 340 439 403 c 1
 428 440 391 489 373 489 c 0
 366 489 339 477 313 462 c 0
 268 437 267 435 287 421 c 0
 381 357 292 27 173 2 c 0
 136 -6 85 17 61 52 c 0
 46 75 46 79 78 135 c 0
 122 211 149 222 231 196 c 0
 251 190 254 195 267 252 c 0
 285 335 273 380 231 385 c 0
 215 387 196 383 190 377 c 0
 175 362 141 364 141 379 c 0
 141 404 220 477 288 513 c 0
209 157 m 0
 169 186 142 173 121 116 c 0
 106 73 116 48 150 48 c 0
 203 48 247 130 209 157 c 0
EndSplineSet
EndChar
StartChar: uni0E27
Encoding: 134 3623 145
Width: 432
Flags: HW
Fore
265 537 m 0
 322 568 336 564 363 514 c 0
 397 451 402 364 380 224 c 0
 357 78 337 39 272 14 c 2
 225 -4 l 1
 195 33 l 2
 161 76 156 118 180 165 c 0
 203 211 229 222 277 209 c 0
 298 202 319 200 322 202 c 0
 325 205 330 257 333 319 c 0
 339 435 328 485 295 485 c 0
 287 485 260 463 236 435 c 0
 211 408 186 386 179 386 c 0
 172 386 157 368 145 347 c 0
 122 308 93 297 83 325 c 0
 72 353 199 500 265 537 c 0
291 116 m 0
 288 142 282 149 260 152 c 0
 229 156 217 132 226 84 c 0
 236 31 297 61 291 116 c 0
EndSplineSet
EndChar
StartChar: uni0E28
Encoding: 135 3624 146
Width: 526
Flags: HW
Fore
471 542 m 0
 526 601 544 609 566 588 c 0
 585 568 580 542 555 535 c 0
 543 531 509 501 480 468 c 2
 428 408 l 1
 433 213 l 2
 438 26 437 17 419 17 c 0
 379 17 375 39 373 232 c 2
 371 417 l 1
 343 453 l 2
 322 481 308 489 283 489 c 0
 228 489 136 409 136 362 c 0
 136 334 148 333 182 355 c 0
 204 370 212 370 249 358 c 0
 329 332 351 278 299 237 c 0
 276 220 261 217 209 220 c 2
 146 223 l 1
 144 188 l 2
 143 169 141 133 140 108 c 0
 136 -34 138 -24 108 -21 c 2
 81 -18 l 1
 78 173 l 2
 76 288 79 378 85 401 c 0
 97 443 168 508 231 534 c 0
 289 558 343 547 385 502 c 0
 403 483 417 472 417 477 c 0
 417 481 442 511 471 542 c 0
252 310 m 0
 220 335 191 334 172 307 c 0
 148 273 152 268 204 268 c 0
 265 268 284 285 252 310 c 0
EndSplineSet
EndChar
StartChar: uni0E29
Encoding: 136 3625 147
Width: 711
Flags: HW
Fore
540 559 m 0
 549 569 552 568 578 554 c 0
 596 544 600 529 600 452 c 2
 600 361 l 1
 628 372 l 2
 644 379 659 384 662 384 c 0
 676 384 664 349 635 303 c 0
 616 274 598 229 594 196 c 0
 575 64 521 8 412 8 c 0
 282 8 263 41 262 272 c 0
 261 436 258 441 189 412 c 0
 143 393 91 398 70 424 c 0
 36 465 133 543 218 543 c 0
 261 543 297 513 312 464 c 0
 317 448 324 355 327 259 c 2
 334 82 l 1
 406 79 l 2
 470 76 480 78 505 105 c 0
 535 138 544 224 517 224 c 0
 489 224 374 294 374 311 c 0
 374 341 396 372 431 390 c 0
 469 409 509 403 509 377 c 0
 509 368 514 361 520 361 c 0
 527 361 532 400 532 456 c 0
 532 509 535 555 540 559 c 0
227 490 m 0
 211 504 171 509 171 497 c 0
 171 489 162 477 151 468 c 0
 133 454 133 453 160 453 c 0
 189 452 238 480 227 490 c 0
492 332 m 0
 473 351 444 354 420 339 c 0
 402 328 413 304 437 304 c 0
 446 304 453 299 453 292 c 0
 453 276 501 284 506 301 c 0
 509 308 502 321 492 332 c 0
EndSplineSet
EndChar
StartChar: uni0E2A
Encoding: 137 3626 148
Width: 473
Flags: HW
Fore
451 633 m 0
 503 654 530 651 530 626 c 0
 530 613 523 601 512 597 c 0
 502 594 475 578 452 563 c 0
 429 547 397 528 381 520 c 0
 361 510 353 500 358 489 c 0
 376 440 387 340 386 211 c 0
 385 41 376 -6 345 -10 c 0
 324 -13 323 -8 319 124 c 0
 314 273 306 296 259 296 c 0
 222 296 122 187 122 145 c 2
 122 116 l 1
 159 131 l 2
 189 144 204 144 235 134 c 0
 270 122 274 117 277 82 c 0
 281 29 244 -12 191 -12 c 0
 171 -12 152 -7 148 -1 c 0
 145 5 133 9 122 9 c 0
 110 9 92 24 80 44 c 0
 64 71 61 89 66 132 c 0
 75 202 93 237 154 298 c 0
 206 351 255 370 300 355 c 0
 319 349 322 351 317 367 c 0
 314 378 308 405 304 427 c 0
 295 480 272 478 217 419 c 0
 172 370 147 360 137 387 c 0
 123 423 235 530 286 530 c 0
 315 530 358 556 393 594 c 0
 407 609 433 626 451 633 c 0
215 74 m 0
 199 84 188 85 164 76 c 0
 156 73 141 69 134 66 c 0
 122 62 124 56 142 40 c 0
 166 17 195 20 217 48 c 0
 228 61 228 66 215 74 c 0
EndSplineSet
EndChar
StartChar: uni0E2B
Encoding: 138 3627 149
Width: 685
Flags: HW
Fore
587 562 m 0
 587 578 612 576 636 558 c 0
 666 536 652 485 591 392 c 0
 543 317 541 313 547 246 c 0
 550 207 558 145 565 106 c 0
 579 25 573 -8 543 -8 c 0
 517 -8 500 25 498 78 c 0
 498 102 492 140 485 165 c 2
 472 209 l 1
 448 176 l 2
 434 158 419 138 415 132 c 0
 410 126 398 107 388 90 c 0
 362 49 289 1 266 10 c 0
 234 22 227 52 220 207 c 2
 212 356 l 1
 173 336 l 2
 134 315 70 317 47 339 c 0
 34 352 49 421 71 447 c 0
 111 493 194 522 210 495 c 0
 214 488 229 478 243 473 c 0
 264 465 269 455 269 426 c 0
 268 368 290 92 295 86 c 0
 302 79 401 207 444 278 c 0
 468 320 478 349 478 384 c 0
 478 482 489 516 525 534 c 0
 543 544 564 551 572 551 c 0
 580 551 587 556 587 562 c 0
559 454 m 0
 582 489 578 502 550 481 c 0
 539 473 532 457 535 444 c 0
 538 425 541 426 559 454 c 0
182 441 m 0
 173 446 157 450 144 451 c 0
 113 451 99 390 124 364 c 0
 139 349 142 350 161 367 c 0
 190 394 200 429 182 441 c 0
EndSplineSet
EndChar
StartChar: uni0E2C
Encoding: 139 3628 150
Width: 772
Flags: HW
AnchorPoint: "AboveBase" 556 560 basechar 0
Fore
564 895 m 0
 614 951 654 938 672 861 c 2
 686 798 l 1
 751 857 l 2
 855 950 892 929 816 820 c 0
 794 787 753 748 723 730 c 2
 671 699 l 1
 675 369 l 2
 677 182 674 36 667 31 c 0
 640 14 611 42 595 99 c 0
 586 131 574 161 570 165 c 0
 565 169 548 191 532 212 c 2
 503 252 l 1
 450 202 l 2
 410 164 393 133 375 69 c 0
 351 -17 322 -47 289 -18 c 0
 275 -6 270 41 270 166 c 0
 270 259 264 338 257 342 c 0
 249 347 226 341 203 329 c 0
 154 303 90 301 68 324 c 0
 35 358 49 415 101 463 c 0
 193 547 241 549 309 474 c 0
 348 431 349 427 341 318 c 0
 334 210 335 206 360 220 c 0
 374 228 400 251 419 272 c 0
 448 305 461 309 518 303 c 2
 583 297 l 1
 586 433 l 2
 592 669 586 736 556 762 c 0
 519 795 523 848 564 895 c 0
242 449 m 0
 242 496 179 485 153 433 c 2
 132 390 l 1
 170 399 l 2
 237 415 242 418 242 449 c 0
EndSplineSet
EndChar
StartChar: uni0E2D
Encoding: 140 3629 151
Width: 648
Flags: HW
Fore
339 516 m 0
 368 533 400 547 409 547 c 0
 436 547 464 516 491 455 c 0
 527 377 517 178 474 105 c 0
 457 77 444 47 444 39 c 0
 444 18 393 -16 362 -16 c 0
 296 -16 204 88 211 155 c 0
 213 173 206 198 196 212 c 0
 185 228 183 240 192 244 c 0
 199 247 215 264 228 283 c 0
 256 325 329 345 391 329 c 2
 434 318 l 1
 426 387 l 2
 414 495 403 495 264 387 c 0
 227 357 169 351 159 375 c 0
 154 387 259 469 339 516 c 0
383 269 m 0
 326 302 326 302 300 274 c 0
 279 252 279 250 308 238 c 0
 344 223 411 220 422 233 c 0
 426 238 409 254 383 269 c 0
378 164 m 0
 357 167 326 173 308 177 c 0
 279 185 277 183 286 155 c 0
 303 105 347 33 357 40 c 0
 367 48 416 141 416 153 c 0
 416 156 399 161 378 164 c 0
EndSplineSet
EndChar
StartChar: uni0E2E
Encoding: 141 3630 152
Width: 638
Flags: HW
Fore
469 522 m 0
 533 566 541 568 562 548 c 0
 574 537 566 524 524 485 c 0
 495 458 461 431 448 424 c 0
 429 413 425 397 425 321 c 0
 425 216 403 81 383 61 c 0
 376 54 364 39 356 27 c 0
 349 15 327 -0 310 -7 c 0
 257 -27 220 -7 176 64 c 0
 109 176 111 267 184 322 c 0
 223 352 304 370 318 352 c 0
 332 334 351 341 347 364 c 0
 345 379 332 389 312 392 c 0
 183 416 155 455 229 509 c 0
 254 527 286 542 300 542 c 0
 333 542 387 514 387 496 c 0
 387 473 407 480 469 522 c 0
337 456 m 0
 337 464 327 475 313 481 c 0
 293 490 286 488 275 473 c 0
 264 457 267 453 290 448 c 0
 331 439 337 440 337 456 c 0
337 256 m 0
 337 269 328 287 315 298 c 0
 297 314 286 316 254 307 c 0
 232 302 208 286 201 273 c 0
 183 243 182 181 199 181 c 0
 207 181 212 184 212 189 c 0
 212 194 232 201 257 204 c 0
 313 212 337 227 337 256 c 0
350 152 m 0
 350 161 291 162 239 154 c 0
 206 149 206 150 238 90 c 0
 264 40 282 32 300 60 c 0
 323 95 350 144 350 152 c 0
EndSplineSet
EndChar
StartChar: uni0E2F
Encoding: 142 3631 153
Width: 590
Flags: HW
Fore
154 523 m 0
 176 535 221 535 247 523 c 0
 259 518 282 499 298 482 c 2
 328 451 l 1
 357 491 l 2
 390 537 423 546 441 515 c 0
 463 477 481 -7 462 -36 c 0
 457 -42 445 -46 435 -44 c 0
 417 -41 416 -26 409 202 c 0
 406 335 401 446 399 448 c 0
 396 450 377 432 356 407 c 0
 299 340 249 313 193 318 c 0
 129 324 96 360 96 426 c 0
 96 457 127 510 154 523 c 0
234 474 m 0
 195 493 174 491 153 468 c 0
 135 447 130 415 146 415 c 0
 150 415 156 406 157 395 c 0
 159 383 172 369 188 362 c 0
 213 351 219 352 254 374 c 0
 276 387 293 399 293 402 c 0
 293 420 259 462 234 474 c 0
EndSplineSet
EndChar
StartChar: uni0E30
Encoding: 143 3632 154
Width: 532
Flags: HW
Fore
187 169 m 0
 196 173 212 177 221 177 c 0
 246 178 278 148 278 125 c 0
 278 104 278 104 301 114 c 0
 313 120 336 136 351 148 c 0
 380 173 397 174 397 151 c 0
 397 132 360 99 323 87 c 0
 306 81 288 73 282 68 c 0
 272 60 266 60 237 66 c 0
 218 70 197 74 190 74 c 0
 177 74 140 96 140 104 c 0
 140 117 173 163 187 169 c 0
222 127 m 0
 216 137 207 136 191 125 c 0
 177 115 184 104 204 104 c 0
 219 104 228 116 222 127 c 0
186 403 m 0
 212 417 239 428 247 428 c 0
 255 428 278 417 299 403 c 2
 337 377 l 1
 349 393 l 2
 364 413 385 419 397 405 c 0
 404 397 399 387 376 364 c 0
 339 327 322 317 281 307 c 0
 230 294 188 299 162 324 c 0
 126 356 132 373 186 403 c 0
258 386 m 0
 253 392 244 398 240 398 c 0
 227 398 199 369 199 355 c 0
 199 339 212 335 243 342 c 0
 271 349 277 365 258 386 c 0
EndSplineSet
EndChar
StartChar: uni0E31
Encoding: 144 3633 155
Width: 0
Flags: HW
AnchorPoint: "AboveBase" -62 560 mark 0
Fore
-90 756 m 0
 -82 772 -74 778 -62 776 c 0
 -36 772 -39 747 -70 707 c 0
 -154 598 -226 559 -296 586 c 0
 -332 599 -345 626 -339 674 c 0
 -336 698 -328 722 -321 729 c 0
 -280 768 -272 770 -238 749 c 0
 -209 731 -194 694 -206 673 c 0
 -217 655 -218 634 -209 634 c 0
 -192 634 -107 721 -90 756 c 0
-249 706 m 0
 -269 728 -281 726 -299 695 c 0
 -317 664 -318 647 -302 633 c 0
 -293 625 -288 626 -277 636 c 0
 -270 643 -259 650 -255 650 c 0
 -239 650 -235 689 -249 706 c 0
EndSplineSet
EndChar
StartChar: uni0E32
Encoding: 145 3634 156
Width: 428
Flags: HW
Fore
240 533 m 0
 299 553 315 552 336 528 c 0
 361 500 372 433 373 306 c 0
 373 248 376 160 380 110 c 0
 388 15 384 -3 354 -3 c 0
 326 -3 321 36 321 241 c 0
 321 354 317 450 312 464 c 0
 301 495 283 492 177 441 c 0
 134 421 94 404 86 404 c 0
 72 404 69 421 79 437 c 0
 91 455 196 517 240 533 c 0
EndSplineSet
EndChar
StartChar: uni0E33
Encoding: 146 3635 157
Width: 432
Flags: HW
Fore
194 538 m 0
 227 555 265 567 280 567 c 0
 317 567 362 516 363 473 c 0
 364 427 375 101 377 51 c 0
 378 18 374 11 354 8 c 0
 310 2 302 40 300 259 c 0
 298 491 290 522 240 496 c 0
 223 487 189 464 165 445 c 0
 115 405 90 401 90 430 c 0
 90 465 131 507 194 538 c 0
-197 902 m 0
 -168 928 -133 949 -119 949 c 0
 -77 949 -34 908 -34 867 c 0
 -34 811 -96 732 -156 713 c 0
 -191 701 -197 703 -228 732 c 0
 -258 760 -262 770 -256 809 c 0
 -251 845 -239 864 -197 902 c 0
-102 843 m 0
 -102 858 -108 870 -115 870 c 0
 -148 867 -192 842 -198 823 c 0
 -208 793 -193 758 -171 758 c 0
 -143 758 -102 809 -102 843 c 0
EndSplineSet
MultipleSubs: 0 0 'ccmp' uni0E4D uni0E32
EndChar
StartChar: uni0E3F
Encoding: 154 3647 158
Width: 662
Flags: HW
Fore
329 815 m 0
 332 818 340 820 348 818 c 0
 359 816 362 801 364 746 c 2
 367 676 l 1
 415 679 l 2
 497 684 527 645 503 565 c 0
 490 520 461 477 406 419 c 2
 371 382 l 1
 419 387 l 2
 460 392 471 390 497 372 c 0
 556 333 572 258 536 189 c 0
 512 143 421 82 340 58 c 0
 318 52 298 43 295 38 c 0
 292 34 287 -12 284 -63 c 0
 276 -191 271 -219 255 -225 c 0
 219 -239 214 -197 236 -43 c 0
 244 13 243 19 225 38 c 0
 214 49 190 65 170 75 c 0
 135 92 80 145 61 180 c 0
 54 194 55 201 65 211 c 0
 73 219 80 225 84 225 c 0
 94 225 121 196 121 186 c 0
 121 173 190 108 197 115 c 0
 200 117 198 152 192 192 c 0
 187 232 181 320 178 390 c 0
 175 459 170 522 167 532 c 0
 161 549 161 549 126 531 c 0
 92 512 78 517 78 546 c 0
 78 561 137 593 238 633 c 2
 322 667 l 1
 322 738 l 2
 322 777 325 811 329 815 c 0
460 592 m 2
 465 636 l 1
 435 636 l 2
 363 634 363 633 351 527 c 0
 345 474 342 431 342 430 c 0
 346 426 415 493 435 520 c 0
 446 535 457 568 460 592 c 2
295 476 m 0
 310 613 311 612 256 588 c 2
 211 568 l 1
 223 486 l 2
 229 442 234 389 234 371 c 2
 235 338 l 1
 259 355 l 2
 282 372 285 379 295 476 c 0
489 312 m 0
 472 336 466 339 420 338 c 0
 393 337 360 333 348 329 c 0
 321 319 317 302 308 173 c 2
 302 95 l 1
 342 107 l 2
 396 123 469 170 484 198 c 0
 508 244 510 283 489 312 c 0
264 208 m 0
 267 249 269 282 268 282 c 0
 267 283 261 282 255 280 c 0
 247 277 244 257 244 217 c 0
 244 130 258 124 264 208 c 0
EndSplineSet
EndChar
StartChar: uni0E40
Encoding: 155 3648 159
Width: 364
Flags: HW
Fore
113 539 m 0
 166 570 166 570 162 318 c 2
 159 149 l 1
 189 157 l 2
 205 161 232 168 247 172 c 0
 291 183 322 149 322 92 c 0
 322 67 316 36 310 24 c 0
 285 -25 147 -12 128 40 c 0
 110 89 93 263 93 394 c 0
 93 508 96 528 113 539 c 0
264 89 m 0
 264 108 238 110 199 94 c 0
 170 82 166 53 192 42 c 0
 215 33 264 65 264 89 c 0
EndSplineSet
EndChar
StartChar: uni0E41
Encoding: 156 3649 160
Width: 621
Flags: HW
Fore
444 516 m 0
 469 544 492 544 503 517 c 0
 510 497 504 335 491 233 c 2
 486 187 l 1
 538 183 l 2
 582 180 591 174 594 148 c 0
 597 131 592 96 583 69 c 0
 571 30 561 20 527 14 c 0
 493 7 481 12 448 48 c 2
 408 89 l 1
 417 292 l 2
 423 450 430 499 444 516 c 0
520 94 m 0
 523 103 516 110 505 110 c 0
 494 110 486 101 486 89 c 0
 486 67 512 71 520 94 c 0
128 434 m 2
 129 539 l 1
 168 539 l 1
 207 539 l 1
 199 390 l 2
 194 308 187 223 183 199 c 0
 175 160 177 157 198 166 c 0
 211 172 242 179 267 182 c 0
 306 187 314 184 326 156 c 0
 344 117 318 10 289 -2 c 0
 279 -6 262 -17 253 -26 c 0
 224 -56 81 -1 90 35 c 0
 103 84 128 343 128 434 c 2
252 60 m 0
 260 89 264 114 262 117 c 0
 260 119 240 112 218 101 c 0
 186 85 178 74 181 48 c 0
 183 25 193 14 211 11 c 0
 234 8 241 17 252 60 c 0
EndSplineSet
EndChar
StartChar: uni0E42
Encoding: 157 3650 161
Width: 522
Flags: HW
Fore
423 904 m 0
 469 954 487 872 448 789 c 0
 433 759 416 733 408 730 c 0
 401 728 372 748 342 776 c 0
 279 835 239 839 172 793 c 2
 127 762 l 1
 172 769 l 2
 254 781 274 744 285 569 c 0
 289 499 298 381 305 309 c 2
 318 177 l 1
 363 185 l 2
 442 200 474 132 432 39 c 0
 418 8 404 -5 377 -10 c 0
 325 -21 284 -1 276 41 c 0
 266 91 227 459 217 592 c 2
 209 705 l 1
 168 698 l 2
 145 694 113 687 96 683 c 0
 70 677 64 680 58 705 c 0
 50 741 92 825 118 825 c 0
 127 825 136 832 139 842 c 0
 149 868 250 901 291 891 c 0
 310 887 339 868 358 848 c 0
 400 803 404 803 404 848 c 0
 404 869 412 893 423 904 c 0
382 89 m 0
 382 123 358 127 331 98 c 0
 308 73 309 59 336 50 c 0
 367 40 382 52 382 89 c 0
EndSplineSet
EndChar
StartChar: uni0E43
Encoding: 158 3651 162
Width: 477
Flags: HW
Fore
156 881 m 0
 177 893 200 903 206 903 c 0
 227 903 243 876 243 842 c 0
 243 824 248 800 253 789 c 0
 258 778 265 668 269 544 c 0
 276 247 294 162 338 209 c 0
 362 235 400 216 416 171 c 0
 430 133 430 122 416 92 c 0
 396 50 334 -1 303 -1 c 0
 290 -1 269 8 255 19 c 0
 231 36 230 43 236 108 c 0
 239 147 235 241 227 318 c 0
 218 394 208 502 204 558 c 0
 201 614 195 659 192 659 c 0
 189 659 174 649 159 636 c 0
 143 624 124 613 116 613 c 0
 89 613 47 672 47 710 c 0
 47 759 108 854 156 881 c 0
200 786 m 0
 200 805 196 823 191 826 c 0
 182 832 80 737 80 723 c 0
 80 710 110 683 124 683 c 0
 150 683 200 751 200 786 c 0
368 143 m 0
 364 153 358 162 353 162 c 0
 338 162 287 97 287 77 c 0
 287 49 325 53 352 83 c 0
 376 111 377 115 368 143 c 0
EndSplineSet
EndChar
StartChar: uni0E44
Encoding: 159 3652 163
Width: 469
Flags: HW
Fore
237 926 m 0
 242 935 254 942 264 942 c 0
 287 942 308 868 301 813 c 0
 298 791 301 644 307 486 c 2
 318 199 l 1
 343 208 l 2
 358 213 382 218 399 219 c 0
 427 221 429 217 432 171 c 0
 441 33 357 -59 292 17 c 0
 268 45 266 56 260 214 c 0
 248 534 231 791 222 791 c 0
 217 791 213 787 213 781 c 0
 213 764 152 653 142 653 c 0
 105 653 37 859 62 897 c 0
 69 908 79 917 84 917 c 0
 95 917 143 788 143 759 c 0
 143 721 160 744 193 825 c 0
 212 872 232 918 237 926 c 0
374 103 m 0
 380 132 383 156 381 159 c 0
 372 170 334 104 334 78 c 0
 334 30 362 48 374 103 c 0
EndSplineSet
EndChar
StartChar: uni0E45
Encoding: 160 3653 164
Width: 534
Flags: HW
Fore
214 553 m 0
 231 559 256 562 270 559 c 0
 344 545 364 507 388 328 c 0
 397 262 409 176 415 138 c 0
 420 100 425 3 427 -79 c 0
 428 -202 426 -229 413 -235 c 0
 379 -253 373 -244 373 -181 c 0
 373 -82 354 149 333 300 c 0
 300 536 283 552 171 457 c 0
 105 400 78 391 83 427 c 0
 86 452 176 539 214 553 c 0
EndSplineSet
EndChar
StartChar: uni0E46
Encoding: 161 3654 165
Width: 594
Flags: HW
Fore
139 507 m 0
 152 516 167 523 174 523 c 0
 196 523 242 479 264 436 c 2
 286 393 l 1
 333 448 l 2
 382 504 407 514 435 487 c 0
 464 457 473 395 483 172 c 0
 489 50 495 -75 498 -107 c 0
 505 -175 494 -202 466 -185 c 0
 449 -175 446 -150 440 -11 c 0
 428 274 422 354 410 398 c 2
 398 441 l 1
 361 388 l 2
 330 345 317 334 293 334 c 0
 273 334 263 329 263 318 c 0
 263 309 250 290 236 276 c 0
 198 241 133 240 115 273 c 0
 95 308 75 368 75 390 c 0
 74 418 113 489 139 507 c 0
199 448 m 0
 175 474 175 474 154 451 c 0
 133 428 129 374 150 395 c 0
 156 402 176 408 192 408 c 0
 226 408 228 417 199 448 c 0
208 336 m 0
 205 364 183 371 156 355 c 0
 126 338 133 307 168 294 c 0
 204 281 215 292 208 336 c 0
EndSplineSet
EndChar
StartChar: uni0E47
Encoding: 162 3655 166
Width: 0
Flags: HW
AnchorPoint: "AboveBase" 22 560 mark 0
AnchorPoint: "AboveMark" -183 639 mark 0
Fore
2 922 m 0
 14 948 25 963 32 963 c 0
 49 963 52 946 40 921 c 0
 34 909 29 896 29 894 c 0
 29 891 23 876 16 861 c 0
 9 847 -1 825 -6 814 c 0
 -21 780 -37 775 -67 794 c 0
 -95 813 -112 816 -108 803 c 0
 -107 799 -119 784 -134 771 c 0
 -165 744 -163 734 -129 745 c 0
 -109 752 -105 751 -94 738 c 0
 -77 719 -79 690 -97 673 c 0
 -105 666 -116 660 -119 660 c 0
 -128 660 -158 687 -158 695 c 0
 -158 703 -180 719 -191 719 c 0
 -195 719 -202 708 -207 694 c 0
 -218 659 -229 646 -246 651 c 0
 -295 663 -278 789 -222 830 c 0
 -200 846 -192 848 -138 848 c 0
 -92 848 -74 845 -60 836 c 2
 -42 825 l 1
 -30 853 l 2
 -23 868 -9 900 2 922 c 0
-144 816 m 0
 -144 818 -156 818 -175 813 c 0
 -197 809 -255 746 -238 746 c 0
 -220 746 -144 803 -144 816 c 0
-119 685 m 0
 -117 689 -117 696 -119 701 c 0
 -121 706 -122 702 -122 693 c 0
 -122 684 -121 680 -119 685 c 0
EndSplineSet
EndChar
StartChar: uni0E4A
Encoding: 165 3658 167
Width: 0
Flags: HW
AnchorPoint: "AboveMark" -76 780 mark 0
Fore
-36 1014 m 0
 -35 1018 -28 1020 -20 1019 c 2
 -7 1018 l 1
 -7 971 l 2
 -7 931 -9 921 -20 900 c 0
 -27 885 -39 871 -48 865 c 0
 -58 860 -77 845 -91 832 c 0
 -110 814 -120 808 -128 809 c 0
 -143 812 -146 829 -135 844 c 0
 -125 859 -126 871 -138 888 c 0
 -148 902 -148 902 -158 894 c 0
 -162 890 -167 882 -167 878 c 0
 -167 867 -177 858 -190 858 c 0
 -198 858 -203 864 -212 882 c 0
 -229 917 -236 920 -260 899 c 0
 -282 881 -280 873 -255 873 c 0
 -232 873 -211 861 -211 848 c 0
 -211 843 -209 837 -206 836 c 0
 -200 832 -200 797 -207 790 c 0
 -217 780 -264 783 -279 794 c 0
 -296 807 -310 844 -310 877 c 0
 -310 909 -294 932 -265 944 c 0
 -235 956 -217 954 -199 937 c 0
 -185 923 -182 922 -177 929 c 0
 -173 934 -162 937 -148 937 c 0
 -127 937 -123 935 -111 918 c 0
 -103 908 -95 897 -93 893 c 0
 -89 887 -87 887 -76 892 c 4
 -58 902 -43 937 -40 975 c 0
 -39 993 -37 1011 -36 1014 c 0
-246 825 m 0
 -246 829 -249 834 -253 835 c 0
 -257 836 -260 836 -260 834 c 0
 -260 831 -257 827 -253 823 c 0
 -247 819 -246 819 -246 825 c 0
EndSplineSet
Substitution: 0 65534 'loww' uni0E4A.low
Substitution: 0 65534 'amni' uni0E4D
EndChar
StartChar: uni0E4D
Encoding: 168 3661 168
Width: 0
Flags: HW
AnchorPoint: "AboveMark" -96 780 basemark 0
AnchorPoint: "AboveBase" -2 560 mark 0
Fore
-161 743 m 0
 -126 779 -71 776 -39 738 c 0
 0 691 -8 652 -64 617 c 0
 -82 606 -105 598 -117 598 c 0
 -177 598 -207 697 -161 743 c 0
-72 680 m 0
 -76 697 -112 722 -121 714 c 0
 -131 703 -127 665 -115 661 c 0
 -94 654 -69 665 -72 680 c 0
EndSplineSet
Substitution: 0 65534 'high' uni0E4D.high
Substitution: 0 65534 'G007' uni0E4B
Substitution: 0 65534 'G006' uni0E4A
Substitution: 0 65534 'G005' uni0E49
Substitution: 0 65534 'G004' uni0E48
EndChar
StartChar: uni0E4E
Encoding: 169 3662 169
Width: 0
Flags: HW
AnchorPoint: "AboveBase" 22 560 mark 0
Fore
16 859 m 0
 25 873 30 877 38 876 c 0
 53 874 52 857 35 832 c 0
 27 820 13 797 6 782 c 0
 -15 742 -29 718 -37 715 c 0
 -44 711 -74 723 -74 729 c 0
 -74 735 -98 731 -100 724 c 0
 -101 721 -96 712 -90 705 c 0
 -83 697 -75 685 -71 679 c 0
 -64 667 -64 666 -71 658 c 0
 -78 650 -80 650 -89 662 c 0
 -111 690 -140 700 -170 690 c 0
 -182 686 -183 666 -173 640 c 0
 -168 626 -162 621 -141 612 c 0
 -127 607 -113 602 -110 602 c 0
 -103 602 -107 586 -116 580 c 0
 -122 576 -129 577 -144 586 c 0
 -155 592 -167 597 -169 597 c 0
 -180 597 -202 632 -205 654 c 0
 -211 698 -200 713 -153 720 c 0
 -136 722 -129 726 -124 735 c 0
 -114 757 -80 764 -61 749 c 0
 -55 745 -48 743 -46 745 c 0
 -44 748 -32 770 -19 795 c 0
 -6 820 9 848 16 859 c 0
EndSplineSet
EndChar
StartChar: uni0E4F
Encoding: 170 3663 170
Width: 677
Flags: HW
Fore
272 361 m 0
 296 387 363 386 398 359 c 0
 426 337 429 318 411 260 c 0
 383 165 272 159 243 252 c 0
 235 277 251 337 272 361 c 0
380 322 m 0
 360 348 340 349 317 323 c 0
 288 291 291 239 322 235 c 0
 338 233 345 238 350 257 c 0
 354 271 362 282 369 282 c 0
 387 282 393 305 380 322 c 0
289 531 m 0
 322 538 352 544 356 545 c 0
 374 548 444 508 493 466 c 0
 557 411 569 380 569 281 c 0
 569 151 523 73 420 27 c 0
 365 3 315 6 242 39 c 0
 175 69 137 112 113 190 c 0
 83 284 84 325 121 395 c 0
 163 475 213 516 289 531 c 0
325 476 m 0
 325 490 319 490 280 475 c 0
 204 446 159 378 159 294 c 0
 159 215 175 165 212 130 c 0
 270 76 387 58 436 96 c 0
 499 146 526 255 501 359 c 0
 491 401 484 411 456 424 c 0
 438 433 423 443 423 448 c 0
 423 460 368 477 346 471 c 0
 334 468 325 470 325 476 c 0
EndSplineSet
EndChar
StartChar: uni0E50
Encoding: 171 3664 171
Width: 844
Flags: HW
Fore
395 515 m 0
 468 527 564 522 667 501 c 0
 755 483 797 425 783 340 c 0
 772 271 757 243 685 155 c 0
 565 9 396 -54 246 -8 c 0
 38 56 5 241 173 407 c 0
 235 469 299 500 395 515 c 0
600 432 m 0
 585 446 553 450 479 448 c 0
 346 445 332 442 274 401 c 0
 187 341 135 260 135 185 c 0
 135 137 196 84 278 59 c 0
 376 30 388 31 466 68 c 0
 589 126 719 285 720 377 c 0
 720 409 715 412 670 412 c 0
 642 412 612 421 600 432 c 0
EndSplineSet
EndChar
StartChar: uni0E51
Encoding: 172 3665 172
Width: 640
Flags: HW
Fore
317 515 m 0
 368 532 482 518 509 492 c 0
 548 454 577 371 577 295 c 0
 578 240 570 209 540 153 c 0
 520 112 492 68 478 53 c 0
 464 38 438 8 419 -15 c 0
 400 -39 376 -55 366 -53 c 0
 330 -45 340 -6 390 44 c 0
 442 96 507 208 507 246 c 0
 507 257 512 268 519 268 c 0
 525 268 530 284 530 305 c 0
 530 349 470 443 434 456 c 0
 403 467 273 438 237 413 c 0
 201 387 207 383 263 397 c 0
 310 408 363 395 379 367 c 0
 394 341 390 297 371 275 c 0
 361 265 353 249 353 242 c 0
 353 217 278 177 233 177 c 0
 200 177 179 188 136 229 c 0
 77 286 70 306 99 337 c 0
 108 348 116 363 116 370 c 0
 116 394 212 485 249 495 c 0
 270 501 301 510 317 515 c 0
315 324 m 0
 202 358 195 357 172 312 c 0
 159 287 208 229 242 229 c 0
 273 229 294 246 316 291 c 0
 327 313 327 320 315 324 c 0
EndSplineSet
EndChar
StartChar: uni0E52
Encoding: 173 3666 173
Width: 700
Flags: HW
Fore
85 766 m 0
 116 789 122 788 142 756 c 0
 175 706 190 572 192 325 c 2
 193 81 l 1
 379 78 l 1
 565 74 l 1
 573 204 l 2
 581 327 574 385 546 433 c 0
 537 449 529 444 502 402 c 0
 455 331 419 292 400 292 c 0
 391 292 384 281 384 268 c 0
 384 254 374 238 360 231 c 0
 327 213 322 214 322 242 c 0
 322 262 314 267 279 267 c 0
 227 267 211 292 211 376 c 0
 211 429 216 442 242 459 c 0
 282 484 322 475 375 428 c 2
 415 392 l 1
 445 449 l 2
 479 510 519 534 571 521 c 0
 625 507 636 455 636 224 c 2
 636 15 l 1
 445 14 l 2
 341 14 229 9 197 4 c 0
 154 -4 138 -2 130 11 c 0
 124 20 116 160 111 322 c 0
 105 547 98 633 83 683 c 0
 64 746 64 750 85 766 c 0
340 363 m 0
 344 369 337 383 325 394 c 0
 307 410 299 411 288 400 c 0
 264 376 272 353 304 353 c 0
 320 353 336 358 340 363 c 0
EndSplineSet
EndChar
StartChar: uni0E53
Encoding: 174 3667 174
Width: 662
Flags: HW
Fore
403 476 m 0
 465 538 546 505 587 400 c 0
 610 345 618 126 602 33 c 0
 593 -15 584 -29 558 -36 c 0
 541 -40 523 -42 519 -39 c 0
 516 -36 521 22 529 89 c 0
 542 182 542 233 530 299 c 0
 505 440 458 458 406 346 c 0
 376 281 321 212 300 212 c 0
 293 212 281 230 271 254 c 0
 257 291 243 313 191 377 c 0
 152 425 132 375 144 257 c 0
 152 182 157 170 175 177 c 0
 237 203 281 202 309 172 c 0
 348 132 345 88 302 40 c 0
 257 -10 234 -9 151 44 c 0
 73 94 67 111 65 275 c 0
 63 381 66 396 96 429 c 0
 152 492 223 469 286 368 c 2
 306 334 l 1
 339 389 l 2
 356 419 386 459 403 476 c 0
258 106 m 0
 236 134 224 133 196 103 c 0
 175 81 176 79 212 69 c 0
 258 56 282 76 258 106 c 0
EndSplineSet
EndChar
StartChar: uni0E54
Encoding: 175 3668 175
Width: 715
Flags: HW
Fore
726 782 m 0
 734 785 745 789 751 789 c 0
 770 791 732 597 708 569 c 0
 702 562 698 544 698 526 c 0
 698 484 661 409 625 381 c 0
 574 338 499 354 429 421 c 0
 406 443 384 448 320 447 c 0
 244 447 237 444 198 397 c 0
 160 352 157 340 157 261 c 0
 157 183 161 169 195 126 c 0
 217 99 237 78 242 78 c 0
 246 78 269 97 291 120 c 0
 335 164 334 168 269 236 c 0
 245 261 242 273 249 320 c 0
 266 432 346 460 437 387 c 0
 500 337 508 281 458 245 c 0
 418 217 426 205 501 180 c 0
 584 153 637 118 637 89 c 0
 637 41 568 44 463 98 c 2
 405 128 l 1
 359 83 l 2
 269 -4 263 -7 210 20 c 0
 113 68 62 173 78 291 c 0
 91 393 128 451 205 491 c 0
 300 540 405 532 500 468 c 0
 564 425 566 424 588 449 c 0
 614 479 686 670 686 710 c 0
 686 725 691 737 698 737 c 0
 705 737 710 745 710 756 c 0
 710 767 717 778 726 782 c 0
417 355 m 0
 406 380 393 388 362 387 c 0
 303 387 282 368 301 334 c 0
 310 319 317 300 317 292 c 0
 317 275 348 239 362 240 c 0
 368 241 385 259 402 281 c 0
 426 315 429 327 417 355 c 0
EndSplineSet
EndChar
StartChar: uni0E55
Encoding: 176 3669 176
Width: 810
Flags: HW
Fore
800 721 m 0
 863 775 908 789 908 753 c 0
 908 725 793 611 718 565 c 0
 684 544 660 521 664 513 c 0
 673 498 640 429 613 405 c 0
 602 396 589 370 585 350 c 0
 574 297 497 261 415 270 c 0
 364 276 355 274 355 253 c 0
 355 241 366 218 380 205 c 0
 400 186 418 183 477 191 c 0
 521 197 567 194 594 185 c 0
 651 166 704 111 693 82 c 0
 683 54 592 53 505 81 c 0
 469 92 436 102 431 102 c 0
 426 102 398 77 370 47 c 0
 313 -13 306 -15 232 7 c 0
 173 24 112 111 98 198 c 0
 85 277 122 415 168 459 c 0
 222 511 322 520 440 485 c 0
 555 451 558 451 575 490 c 0
 587 519 584 525 548 539 c 0
 525 547 491 567 474 582 c 0
 447 607 445 615 458 645 c 0
 474 682 547 733 584 733 c 0
 611 733 652 690 664 649 c 0
 674 617 688 617 717 646 c 0
 729 659 767 693 800 721 c 0
577 642 m 0
 558 686 544 687 536 644 c 0
 529 608 546 582 575 582 c 0
 596 582 597 597 577 642 c 0
339 423 m 0
 316 443 264 439 228 413 c 0
 190 386 187 377 179 283 c 0
 171 187 172 178 207 124 c 0
 248 60 262 56 308 93 c 0
 349 125 349 129 307 193 c 0
 265 258 268 346 314 391 c 0
 330 407 341 421 339 423 c 0
476 380 m 0
 464 384 444 391 433 396 c 0
 421 401 400 391 382 370 c 2
 352 336 l 1
 397 332 l 2
 468 324 531 363 476 380 c 0
EndSplineSet
EndChar
StartChar: uni0E56
Encoding: 177 3670 177
Width: 757
Flags: HW
Fore
37 633 m 0
 46 644 63 654 75 654 c 0
 105 654 252 496 273 440 c 2
 292 393 l 1
 353 440 l 2
 443 511 488 531 551 531 c 0
 599 531 615 524 653 484 c 0
 708 425 720 381 701 309 c 0
 693 278 678 224 669 190 c 0
 637 67 517 -41 437 -20 c 0
 418 -15 378 15 348 47 c 2
 293 105 l 1
 319 162 l 2
 334 193 362 232 383 247 c 0
 418 274 424 275 474 258 c 0
 513 244 530 229 539 201 c 0
 557 146 526 92 472 86 c 0
 425 81 417 56 462 56 c 0
 548 56 614 155 629 306 c 0
 643 447 606 493 500 462 c 0
 452 448 345 355 320 306 c 0
 292 251 261 266 216 359 c 0
 174 446 83 559 54 559 c 0
 32 559 20 611 37 633 c 0
464 190 m 0
 455 207 391 211 377 197 c 0
 356 175 370 151 403 152 c 0
 446 152 476 171 464 190 c 0
EndSplineSet
EndChar
StartChar: uni0E57
Encoding: 178 3671 178
Width: 1002
Flags: HW
Fore
892 866 m 0
 918 892 933 880 956 815 c 0
 974 767 975 733 962 636 c 0
 938 458 919 391 862 287 c 0
 783 142 583 -7 515 29 c 0
 475 51 480 77 529 105 c 0
 558 123 578 154 598 214 c 0
 623 289 624 307 608 370 c 0
 598 409 584 447 577 454 c 0
 570 461 546 440 523 405 c 0
 490 355 484 332 490 276 c 0
 499 197 475 163 437 201 c 0
 423 215 409 243 403 266 c 0
 390 324 325 388 280 388 c 0
 194 387 176 374 176 311 c 2
 176 251 l 1
 227 261 l 2
 267 268 285 263 310 238 c 0
 337 211 340 195 332 133 c 0
 327 92 319 50 315 38 c 0
 302 6 235 -17 182 -7 c 0
 121 5 83 68 96 134 c 0
 101 158 96 212 87 254 c 0
 65 347 81 398 149 448 c 0
 186 476 208 480 274 475 c 0
 322 471 365 458 380 444 c 0
 402 422 409 425 474 487 c 0
 513 523 550 553 557 553 c 0
 563 553 589 541 616 524 c 0
 674 489 701 402 689 288 c 0
 685 245 686 209 692 209 c 0
 708 210 793 332 817 389 c 0
 858 484 891 672 883 763 c 0
 878 817 882 856 892 866 c 0
277 139 m 0
 270 182 220 193 220 151 c 0
 220 134 209 114 195 106 c 0
 163 88 180 44 219 44 c 0
 254 44 283 92 277 139 c 0
EndSplineSet
EndChar
StartChar: uni0E58
Encoding: 179 3672 179
Width: 919
Flags: HW
Fore
832 710 m 0
 886 730 894 664 843 609 c 0
 830 595 791 524 756 453 c 0
 700 340 654 282 620 282 c 0
 614 282 576 315 537 356 c 0
 460 433 444 438 334 421 c 0
 299 415 262 394 226 361 c 2
 172 310 l 1
 177 218 l 2
 183 114 212 64 249 94 c 0
 260 103 270 118 270 126 c 0
 270 136 280 151 294 163 c 0
 307 175 337 206 362 232 c 0
 433 308 518 297 568 204 c 0
 602 140 544 -26 487 -26 c 0
 482 -26 450 0 414 34 c 0
 379 68 346 94 339 94 c 0
 332 94 320 76 311 51 c 0
 270 -57 261 -59 174 27 c 0
 77 125 60 181 96 298 c 0
 114 358 213 470 248 470 c 0
 261 470 285 478 302 490 c 0
 386 544 489 522 562 435 c 0
 610 377 637 361 637 390 c 0
 637 424 806 700 832 710 c 0
513 201 m 0
 472 234 442 236 417 207 c 0
 389 173 391 146 421 138 c 0
 434 135 446 126 446 120 c 0
 446 93 449 87 468 77 c 0
 493 63 531 104 520 133 c 0
 516 144 520 157 530 163 c 0
 542 170 537 181 513 201 c 0
EndSplineSet
EndChar
StartChar: uni0E59
Encoding: 180 3673 180
Width: 984
Flags: HW
Fore
890 802 m 0
 902 812 918 819 926 819 c 0
 952 820 960 778 940 746 c 0
 930 731 903 661 879 591 c 0
 788 321 768 303 656 391 c 0
 588 444 576 447 537 417 c 0
 513 397 513 394 569 255 c 0
 628 108 639 22 597 22 c 0
 577 22 519 127 518 166 c 0
 518 178 491 218 461 254 c 0
 377 351 216 422 161 386 c 0
 139 372 126 250 141 199 c 0
 150 169 160 159 178 162 c 0
 305 183 328 181 356 153 c 0
 393 115 391 63 351 22 c 0
 324 -7 306 -12 239 -12 c 0
 170 -12 155 -7 121 27 c 0
 88 59 79 85 65 187 c 0
 44 333 58 408 113 445 c 0
 163 479 317 468 387 425 c 0
 428 400 437 398 437 415 c 0
 437 443 497 489 560 508 c 0
 609 523 616 521 672 481 c 0
 739 433 750 433 764 489 c 0
 786 577 870 787 890 802 c 0
317 93 m 0
 317 117 219 117 199 93 c 0
 190 82 187 63 192 50 c 0
 199 31 210 28 241 34 c 0
 289 45 317 66 317 93 c 0
EndSplineSet
EndChar
StartChar: uni0E5A
Encoding: 181 3674 181
Width: 632
Flags: HW
Fore
470 522 m 0
 506 544 513 524 513 406 c 0
 513 359 518 252 523 168 c 0
 532 37 531 15 520 4 c 0
 510 -6 505 -6 494 2 c 0
 482 11 478 47 468 201 c 0
 453 442 454 512 470 522 c 0
107 521 m 0
 127 532 168 531 191 520 c 0
 201 515 222 497 236 481 c 2
 263 452 l 1
 289 490 l 2
 318 533 348 542 364 512 c 0
 384 477 400 20 382 -7 c 0
 379 -13 367 -17 359 -15 c 0
 343 -13 341 2 336 217 c 0
 332 343 328 447 326 449 c 0
 324 451 307 434 288 411 c 0
 237 348 193 322 143 327 c 0
 85 332 57 366 57 429 c 0
 57 458 84 507 107 521 c 0
179 474 m 0
 144 492 126 490 107 468 c 0
 91 448 87 419 100 419 c 0
 105 419 110 410 111 399 c 0
 112 388 124 375 138 369 c 0
 161 358 166 359 197 379 c 0
 217 392 232 403 232 406 c 0
 232 423 201 463 179 474 c 0
EndSplineSet
EndChar
StartChar: uni0E5B
Encoding: 182 3675 182
Width: 874
Flags: HW
Fore
727 526 m 0
 765 535 773 533 786 511 c 0
 799 489 771 465 733 465 c 0
 702 465 645 442 630 423 c 0
 624 416 611 385 600 354 c 0
 580 298 555 274 514 274 c 0
 501 274 494 264 490 241 c 0
 467 117 444 82 401 103 c 0
 387 109 375 114 374 112 c 0
 373 110 365 87 355 60 c 0
 328 -16 287 -58 232 -64 c 0
 196 -68 182 -65 167 -50 c 0
 126 -12 96 73 80 191 c 0
 67 293 78 358 120 421 c 0
 169 496 221 503 266 441 c 0
 299 396 308 353 288 336 c 0
 266 316 244 339 244 381 c 0
 244 413 242 415 213 415 c 0
 196 415 176 411 169 407 c 0
 150 393 129 308 129 238 c 0
 129 175 158 57 183 16 c 0
 198 -9 246 -15 263 7 c 0
 323 84 320 73 323 219 c 0
 325 338 328 359 342 369 c 0
 371 388 382 362 383 269 c 0
 385 186 395 155 416 168 c 0
 422 172 427 182 427 191 c 0
 427 200 432 214 440 223 c 0
 451 236 452 256 446 325 c 0
 438 413 445 438 474 433 c 0
 483 431 493 412 499 380 c 0
 505 352 515 330 522 330 c 0
 535 330 576 406 584 447 c 0
 588 467 602 478 643 496 c 0
 673 508 710 521 727 526 c 0
EndSplineSet
EndChar
StartChar: endash
Encoding: 184 8211 184
Width: 587
Flags: HW
Fore
50 281 m 1
 106 282 164 289 220 297 c 0
 258 302 341 289 378 294 c 0
 421 300 458 309 502 306 c 0
 513 305 548 292 527 272 c 0
 507 253 459 265 437 265 c 0
 361 260 238 258 161 252 c 0
 125 248 64 224 50 281 c 1
EndSplineSet
EndChar
StartChar: emdash
Encoding: 185 8212 185
Width: 706
Flags: HW
Fore
33 311 m 5
 96 312 163 319 226 328 c 4
 268 333 416 307 459 312 c 4
 507 319 549 328 598 325 c 4
 611 324 651 311 627 291 c 4
 605 272 551 284 525 284 c 4
 438 278 246 289 159 282 c 4
 117 278 48 255 33 311 c 5
EndSplineSet
EndChar
StartChar: quoteleft
Encoding: 186 8216 186
Width: 322
Flags: HW
Fore
224 493 m 1
 203 485 l 1
 172 509 39 686 91 718 c 0
 156 759 221 533 224 493 c 1
EndSplineSet
EndChar
StartChar: quoteright
Encoding: 187 8217 187
Width: 315
Flags: HW
Fore
117 495 m 0
 57 508 160 704 216 699 c 0
 292 689 176 483 117 495 c 0
EndSplineSet
EndChar
StartChar: quotedblleft
Encoding: 188 8220 188
Width: 349
Flags: HW
Fore
165 757 m 1
 187 764 l 1
 216 738 341 555 289 526 c 0
 222 488 167 716 165 757 c 1
72 685 m 0
 114 729 229 541 197 495 c 0
 149 435 31 641 72 685 c 0
EndSplineSet
EndChar
StartChar: quotedblright
Encoding: 189 8221 189
Width: 398
Flags: HW
Fore
323 704 m 1
 341 689 l 1
 335 650 246 447 193 476 c 0
 125 513 290 681 323 704 c 1
213 744 m 0
 273 732 174 534 118 538 c 0
 42 547 154 755 213 744 c 0
EndSplineSet
EndChar
StartChar: bullet
Encoding: 190 8226 190
Width: 674
Flags: HW
Fore
265 423 m 4
 436 472 558 200 401 166 c 4
 208 125 120 384 265 423 c 4
EndSplineSet
EndChar
StartChar: ellipsis
Encoding: 191 8230 191
Width: 632
Flags: HW
Fore
213 88 m 1
 209 73 205 59 197 45 c 0
 123 -63 82 150 174 112 c 0
 188 106 200 97 213 88 c 1
508 77 m 1
 504 62 500 48 491 34 c 0
 418 -74 377 139 469 101 c 0
 483 94 495 86 508 77 c 1
358 82 m 1
 354 67 350 53 341 39 c 0
 268 -69 227 144 319 106 c 0
 333 100 345 91 358 82 c 1
EndSplineSet
LCarets: 0 65535 '    ' 2 0 0 
Ligature: 8 2 'liga' period period period
EndChar
StartChar: uniF000
Encoding: 192 61440 192
Width: 768
Flags: HW
Fore
173 227 m 0
 168 259 177 259 194 226 c 0
 205 206 209 160 200 160 c 0
 192 160 177 196 173 227 c 0
292 323 m 0
 292 340 303 340 321 324 c 0
 338 309 344 309 375 322 c 0
 388 328 405 334 412 335 c 2
 426 336 l 1
 414 323 l 2
 408 315 396 304 387 297 c 0
 354 271 292 288 292 323 c 0
526 472 m 0
 533 496 545 478 554 433 c 0
 579 310 586 217 576 154 c 0
 569 109 552 71 538 71 c 0
 525 71 521 81 531 90 c 0
 545 103 559 162 559 208 c 0
 559 248 553 294 537 378 c 0
 525 437 523 459 526 472 c 0
591 461 m 0
 589 485 590 489 598 488 c 0
 604 487 608 481 609 471 c 0
 610 463 615 443 619 427 c 0
 623 411 630 383 633 365 c 0
 640 329 642 229 637 225 c 0
 629 218 625 232 623 276 c 0
 622 330 614 377 602 410 c 0
 597 422 592 445 591 461 c 0
241 486 m 0
 287 503 335 486 331 455 c 0
 329 437 309 438 299 456 c 0
 288 474 264 474 240 454 c 0
 221 440 205 435 205 445 c 0
 205 458 225 480 241 486 c 0
90 484 m 0
 97 496 106 496 107 485 c 0
 107 480 111 451 116 420 c 0
 121 389 127 322 130 270 c 0
 136 162 142 141 176 111 c 0
 202 88 204 82 190 78 c 0
 181 75 165 87 130 123 c 0
 120 134 112 173 109 232 c 0
 102 381 94 466 87 472 c 0
 85 474 86 479 90 484 c 0
382 495 m 0
 385 497 397 498 409 499 c 0
 444 499 487 461 465 449 c 0
 452 442 443 444 435 458 c 0
 425 476 396 479 378 464 c 0
 360 449 351 458 365 477 c 0
 371 485 378 493 382 495 c 0
144 501 m 0
 148 510 152 510 162 502 c 0
 168 496 186 415 197 336 c 0
 201 306 243 222 261 208 c 0
 268 202 274 194 274 191 c 0
 274 182 354 150 375 150 c 0
 385 150 397 155 407 163 c 0
 416 171 436 185 451 196 c 0
 467 207 486 220 493 227 c 0
 501 233 511 236 515 235 c 0
 534 229 521 213 461 169 c 2
 400 124 l 1
 368 126 l 2
 325 129 289 144 259 170 c 0
 232 194 203 231 201 245 c 0
 199 251 195 260 190 266 c 0
 177 283 166 317 162 349 c 0
 161 365 158 384 156 390 c 0
 149 420 141 495 144 501 c 0
371 672 m 0
 381 680 389 674 405 647 c 0
 427 610 457 583 488 571 c 0
 501 566 511 560 509 557 c 0
 503 549 464 552 443 563 c 0
 418 577 405 590 383 625 c 0
 367 651 364 666 371 672 c 0
238 702 m 0
 246 708 253 701 266 673 c 0
 292 620 318 581 331 576 c 0
 346 570 348 565 335 560 c 0
 309 552 298 559 274 597 c 0
 266 609 258 620 256 621 c 0
 243 630 229 694 238 702 c 0
73 711 m 0
 89 724 92 725 94 718 c 0
 95 713 93 706 89 702 c 0
 79 691 87 663 111 625 c 0
 133 588 165 561 204 547 c 0
 228 538 236 528 221 527 c 0
 169 523 115 553 84 604 c 0
 48 663 45 688 73 711 c 0
200 824 m 0
 217 830 228 827 228 818 c 0
 228 812 224 808 219 808 c 0
 215 808 211 805 211 803 c 0
 211 800 206 796 201 795 c 0
 196 793 177 780 160 765 c 0
 142 751 127 739 126 739 c 0
 125 739 124 744 124 750 c 0
 124 763 144 793 153 793 c 0
 156 793 166 799 175 807 c 0
 185 815 195 822 200 824 c 0
374 867 m 0
 413 871 473 868 492 861 c 0
 534 845 587 809 612 779 c 0
 641 743 693 621 700 570 c 0
 713 483 720 368 715 324 c 0
 703 226 695 132 696 109 c 0
 697 96 694 80 688 71 c 0
 680 58 677 56 671 62 c 0
 664 68 664 73 668 86 c 0
 672 95 674 115 673 130 c 0
 673 145 674 160 676 164 c 0
 690 197 694 427 681 540 c 0
 677 580 656 649 636 688 c 0
 632 696 627 708 625 715 c 0
 609 763 550 815 483 841 c 0
 455 852 446 853 405 850 c 0
 378 849 351 844 338 838 c 0
 315 829 309 829 309 841 c 0
 309 852 336 862 374 867 c 0
EndSplineSet
Ligature: 8 2 'liga' T M
LCarets: 0 65535 '    ' 1 0 
EndChar
StartChar: uniF001
Encoding: 193 61441 193
Width: 549
Flags: HW
Fore
167 291 m 0
 171 301 185 301 193 292 c 0
 196 288 203 266 209 243 c 0
 220 198 233 170 241 170 c 0
 255 170 292 210 304 239 c 0
 314 261 321 270 329 270 c 0
 360 270 339 210 292 164 c 0
 254 126 222 125 200 162 c 0
 187 185 162 279 167 291 c 0
265 676 m 0
 273 679 280 682 281 682 c 0
 282 682 282 676 282 669 c 0
 282 661 269 641 253 623 c 2
 223 591 l 1
 224 529 l 2
 226 482 223 462 216 444 c 0
 210 431 204 415 202 408 c 0
 194 378 156 357 134 373 c 0
 114 387 107 402 96 454 c 2
 86 505 l 1
 100 517 l 2
 108 524 119 532 123 535 c 0
 130 538 130 541 125 548 c 0
 117 558 121 564 136 564 c 0
 142 564 147 567 147 570 c 0
 147 573 143 576 138 576 c 0
 128 576 126 608 135 614 c 0
 138 616 141 625 141 634 c 0
 141 669 177 674 198 642 c 2
 211 623 l 1
 231 647 l 2
 242 660 258 673 265 676 c 0
177 610 m 0
 173 618 169 623 168 623 c 0
 167 623 164 614 160 603 c 0
 154 581 157 578 174 590 c 0
 182 597 183 600 177 610 c 0
193 505 m 0
 195 561 194 564 183 564 c 0
 170 564 166 556 176 550 c 0
 185 544 184 519 173 499 c 0
 167 487 158 480 146 478 c 0
 129 474 128 474 132 448 c 0
 135 420 144 399 153 399 c 0
 156 399 164 410 171 423 c 0
 179 436 186 446 188 446 c 0
 190 446 192 473 193 505 c 0
434 671 m 2
 450 690 l 1
 452 671 l 2
 454 654 442 624 420 588 c 0
 414 577 412 564 415 539 c 0
 417 509 415 491 403 436 c 0
 399 419 377 405 361 409 c 0
 354 411 341 423 333 435 c 0
 320 454 318 465 318 499 c 0
 318 528 320 542 327 547 c 0
 338 556 338 561 328 571 c 0
 310 591 305 610 312 631 c 0
 326 674 368 680 390 643 c 0
 399 627 403 624 410 629 c 0
 414 633 418 639 418 644 c 0
 418 648 425 660 434 671 c 2
364 620 m 0
 355 638 348 639 344 620 c 0
 339 600 344 588 358 588 c 0
 372 588 374 598 364 620 c 0
386 501 m 0
 391 516 381 514 364 495 c 0
 350 480 349 478 357 463 c 0
 368 441 374 442 379 469 c 0
 381 481 385 496 386 501 c 0
144 781 m 0
 170 789 181 789 201 779 c 0
 235 761 217 727 156 696 c 0
 135 685 123 683 105 686 c 0
 78 690 77 697 96 735 c 0
 111 766 119 774 144 781 c 0
176 735 m 2
 200 759 l 1
 181 758 l 2
 158 758 135 748 118 733 c 0
 108 723 107 721 115 713 c 0
 128 700 149 708 176 735 c 2
333 798 m 0
 342 802 352 805 355 805 c 0
 364 806 397 790 405 780 c 0
 412 772 411 768 393 753 c 0
 383 743 368 733 360 731 c 0
 353 730 347 725 347 723 c 0
 347 716 320 716 292 724 c 0
 275 729 271 732 271 744 c 0
 271 752 273 759 275 759 c 0
 278 759 287 766 297 775 c 0
 307 785 323 795 333 798 c 0
371 766 m 0
 362 774 325 775 314 767 c 0
 298 756 296 747 309 747 c 0
 314 747 318 744 318 741 c 0
 318 730 338 735 356 749 c 0
 366 757 372 764 371 766 c 0
EndSplineSet
EndChar
StartChar: uniF002
Encoding: 194 61442 194
Width: 832
Flags: HW
Fore
714 388 m 0
 740 396 747 397 751 391 c 0
 759 378 670 325 659 336 c 0
 651 344 688 380 714 388 c 0
114 481 m 0
 133 490 150 491 162 483 c 0
 170 479 169 477 159 469 c 0
 142 456 95 442 84 446 c 0
 75 449 75 451 86 461 c 0
 93 468 106 476 114 481 c 0
725 493 m 0
 743 502 751 500 753 486 c 0
 754 477 748 472 729 463 c 0
 688 445 647 430 638 430 c 0
 624 430 641 451 665 462 c 0
 677 468 692 476 699 479 c 0
 705 483 717 489 725 493 c 0
70 567 m 0
 77 568 85 570 86 570 c 0
 93 572 147 553 155 547 c 0
 171 533 164 524 141 527 c 0
 76 535 33 560 70 567 c 0
448 570 m 0
 465 580 479 578 500 562 c 0
 512 553 520 541 522 528 c 0
 525 515 530 507 537 505 c 0
 545 503 549 505 549 510 c 0
 549 514 554 519 559 521 c 0
 564 523 567 526 564 528 c 0
 559 534 585 559 596 559 c 0
 621 559 624 538 613 457 c 0
 590 282 562 187 526 161 c 0
 505 146 493 146 488 161 c 0
 486 167 481 176 477 180 c 0
 461 197 455 217 449 262 c 0
 446 289 441 322 438 337 c 0
 421 416 418 505 432 531 c 0
 435 536 438 546 438 553 c 0
 438 559 442 567 448 570 c 0
491 530 m 0
 474 547 468 545 461 518 c 0
 455 500 455 476 461 408 c 0
 465 361 470 314 473 304 c 0
 476 295 479 274 482 258 c 0
 486 228 501 184 508 185 c 0
 514 185 543 241 547 263 c 0
 549 275 553 285 556 287 c 0
 559 289 561 300 561 312 c 0
 561 324 566 360 572 392 c 0
 578 425 585 468 586 489 c 2
 590 527 l 1
 577 501 l 2
 570 486 562 474 560 473 c 0
 558 472 554 462 552 451 c 0
 550 440 546 430 544 430 c 0
 541 430 536 419 532 405 c 0
 523 371 505 343 494 343 c 0
 476 343 478 359 499 402 c 0
 510 425 520 451 520 460 c 0
 520 482 513 501 508 498 c 0
 505 496 502 500 502 506 c 0
 502 513 497 524 491 530 c 0
218 687 m 0
 225 690 233 694 237 694 c 0
 247 694 297 660 297 653 c 0
 297 650 301 644 305 640 c 0
 309 636 317 624 322 614 c 2
 331 595 l 1
 344 621 l 2
 358 648 377 671 385 671 c 0
 387 671 394 665 400 658 c 0
 415 642 418 586 406 524 c 0
 401 497 396 460 393 442 c 0
 389 403 369 321 360 304 c 0
 348 282 324 260 310 260 c 0
 270 260 237 336 206 495 c 0
 195 556 193 671 204 678 c 0
 205 679 212 683 218 687 c 0
286 609 m 0
 276 629 262 652 255 661 c 2
 241 677 l 1
 233 661 l 2
 223 639 225 582 239 504 c 0
 261 382 290 290 308 290 c 0
 323 290 345 352 358 430 c 0
 363 461 371 511 376 542 c 0
 386 601 382 617 365 590 c 0
 359 582 350 571 346 568 c 0
 336 560 325 510 334 516 c 0
 338 519 339 516 336 511 c 0
 335 506 330 491 326 477 c 0
 317 450 302 438 292 450 c 0
 287 457 287 466 295 487 c 0
 309 527 306 566 286 609 c 0
EndSplineSet
EndChar
StartChar: uniF003
Encoding: 195 61443 195
Width: 727
Flags: HW
Fore
152 278 m 0
 168 288 177 283 210 249 c 0
 239 218 243 216 249 226 c 0
 257 239 279 241 279 228 c 0
 279 223 272 212 264 203 c 0
 256 195 250 185 250 181 c 0
 250 177 240 166 229 156 c 0
 203 133 178 134 160 158 c 0
 145 178 139 270 152 278 c 0
208 217 m 0
 200 225 190 234 185 237 c 0
 170 246 168 217 182 189 c 0
 191 170 193 168 203 175 c 0
 221 186 223 201 208 217 c 0
481 284 m 0
 509 316 538 311 551 272 c 0
 563 237 554 176 537 169 c 0
 526 165 482 186 468 202 c 0
 462 209 453 214 447 214 c 0
 423 214 427 222 481 284 c 0
525 235 m 0
 522 253 517 269 513 270 c 0
 504 274 480 245 484 235 c 0
 486 230 490 225 493 225 c 0
 497 225 499 221 499 217 c 0
 499 207 521 193 527 199 c 0
 529 201 528 217 525 235 c 0
382 685 m 0
 401 697 437 699 447 688 c 0
 450 684 455 672 457 662 c 0
 459 652 462 642 465 641 c 0
 467 639 481 651 496 667 c 0
 526 699 533 701 551 686 c 0
 561 677 565 666 569 624 c 0
 572 595 573 571 572 569 c 0
 571 567 567 531 564 490 c 0
 556 398 552 380 537 377 c 0
 531 376 521 370 515 364 c 0
 503 351 508 352 440 351 c 0
 388 350 382 349 369 335 c 2
 354 321 l 1
 363 234 l 2
 367 186 374 137 377 126 c 0
 383 100 372 85 355 96 c 0
 344 103 339 131 331 251 c 0
 328 302 324 345 323 346 c 0
 321 347 300 350 275 351 c 0
 215 354 189 371 158 428 c 0
 146 450 147 587 159 627 c 0
 170 666 197 693 217 687 c 0
 235 681 259 657 280 624 c 2
 297 596 l 1
 310 613 l 2
 328 638 364 674 382 685 c 0
424 654 m 0
 424 661 421 667 417 667 c 0
 402 666 365 634 340 599 c 0
 324 576 309 562 303 562 c 0
 297 562 284 572 275 583 c 0
 241 625 213 655 208 655 c 0
 199 655 191 631 184 587 c 0
 174 523 179 423 192 423 c 0
 195 423 201 416 204 406 c 0
 209 390 211 390 260 385 c 0
 338 378 490 381 504 390 c 0
 508 392 511 398 511 403 c 0
 511 408 514 410 517 408 c 0
 520 406 523 406 523 407 c 0
 524 411 535 517 538 555 c 0
 542 599 536 661 529 661 c 0
 526 661 510 642 492 619 c 0
 461 578 441 565 433 580 c 0
 430 585 426 619 424 654 c 0
EndSplineSet
EndChar
StartChar: uniF004
Encoding: 196 61444 196
Width: 1074
Flags: HW
Fore
901 396 m 0
 919 401 960 399 978 391 c 0
 1001 381 1018 363 1015 349 c 0
 1012 332 994 334 972 353 c 0
 961 363 946 371 939 370 c 0
 923 370 878 362 875 358 c 0
 873 356 876 344 880 331 c 0
 888 310 888 304 881 288 c 0
 866 252 837 243 798 262 c 0
 784 270 771 279 769 283 c 0
 766 291 776 313 793 336 c 0
 807 355 797 362 757 361 c 0
 718 360 649 335 632 315 c 0
 618 300 600 297 600 309 c 0
 600 337 656 371 728 386 c 0
 764 393 772 393 801 384 c 0
 831 375 836 375 863 384 c 0
 879 389 896 394 901 396 c 0
851 314 m 0
 845 335 838 339 824 329 c 0
 813 320 801 291 806 283 c 0
 811 275 841 277 849 287 c 0
 854 293 855 301 851 314 c 0
519 580 m 0
 524 582 535 584 545 584 c 2
 561 585 l 1
 558 540 l 2
 556 508 548 477 531 433 c 0
 518 399 508 366 508 359 c 0
 508 352 503 339 498 330 c 2
 489 314 l 1
 552 248 l 2
 587 213 629 168 643 150 c 0
 658 132 674 116 679 114 c 0
 690 110 689 87 678 87 c 0
 673 87 660 91 650 96 c 0
 640 100 618 107 600 110 c 0
 583 114 562 120 553 124 c 0
 545 128 510 134 475 136 c 0
 428 140 396 146 349 161 c 0
 313 172 261 187 230 195 c 0
 152 215 80 252 89 267 c 0
 90 270 89 273 86 275 c 0
 78 280 91 307 101 307 c 0
 107 307 169 349 213 383 c 0
 221 389 235 398 245 402 c 0
 254 407 280 426 303 444 c 0
 325 463 354 484 367 493 c 0
 424 531 466 555 479 559 c 0
 487 561 497 566 502 570 c 0
 507 574 515 578 519 580 c 0
520 507 m 0
 523 525 525 541 523 542 c 0
 518 548 420 492 366 452 c 0
 334 428 307 407 305 405 c 0
 304 403 283 389 259 374 c 0
 235 360 208 341 198 333 c 0
 182 320 182 319 194 319 c 0
 200 319 218 321 234 324 c 0
 249 327 296 332 336 336 c 0
 444 345 473 352 473 367 c 0
 473 374 482 401 493 427 c 0
 504 454 516 490 520 507 c 0
477 283 m 0
 451 310 446 313 424 313 c 0
 411 313 398 312 397 310 c 0
 395 308 346 302 287 296 c 0
 229 290 170 281 155 277 c 2
 130 269 l 1
 155 255 l 2
 169 248 201 237 224 231 c 0
 271 219 353 194 372 186 c 0
 390 178 450 168 482 168 c 0
 498 168 526 164 543 159 c 0
 605 142 603 142 593 157 c 0
 587 165 566 189 544 212 c 0
 523 234 493 266 477 283 c 0
EndSplineSet
EndChar
StartChar: uniF005
Encoding: 197 61445 197
Width: 1195
Flags: HW
Fore
454 399 m 0
 534 416 551 408 557 347 c 0
 559 326 559 307 557 304 c 0
 555 302 540 300 523 300 c 0
 494 300 472 294 439 278 c 0
 429 273 424 274 416 281 c 0
 404 293 402 376 414 386 c 0
 418 389 436 395 454 399 c 0
532 379 m 0
 529 393 505 394 496 380 c 0
 493 374 491 373 490 377 c 0
 490 382 483 381 465 372 c 0
 436 357 432 352 432 330 c 0
 432 312 438 311 473 323 c 0
 487 328 503 332 510 332 c 0
 524 332 538 359 532 379 c 0
1078 232 m 0
 1083 238 1091 240 1107 238 c 0
 1120 236 1131 234 1132 233 c 0
 1132 232 1135 209 1137 183 c 0
 1141 137 1140 134 1127 120 c 0
 1109 103 1100 102 1100 117 c 0
 1100 123 1096 129 1091 131 c 0
 1078 136 1081 145 1099 155 c 0
 1118 165 1126 189 1116 206 c 0
 1112 215 1106 216 1093 214 c 0
 1074 210 1067 219 1078 232 c 0
1053 309 m 0
 1053 321 1067 325 1080 316 c 0
 1085 313 1085 309 1079 301 c 0
 1070 288 1053 293 1053 309 c 0
1008 375 m 0
 1007 381 1010 384 1018 384 c 0
 1026 384 1030 380 1030 372 c 0
 1030 357 1011 359 1008 375 c 0
1077 441 m 0
 1099 447 1128 440 1139 426 c 0
 1143 421 1146 404 1146 389 c 0
 1146 373 1151 354 1156 346 c 0
 1168 327 1164 293 1146 272 c 0
 1130 254 1111 252 1111 268 c 0
 1111 275 1114 280 1117 280 c 0
 1127 280 1141 314 1137 327 c 0
 1134 337 1133 338 1124 330 c 0
 1113 320 1100 318 1100 326 c 0
 1100 329 1105 335 1112 340 c 0
 1123 348 1124 352 1120 381 c 0
 1117 408 1114 414 1103 417 c 0
 1095 419 1085 418 1079 415 c 0
 1073 412 1059 411 1048 413 c 2
 1028 416 l 1
 1043 426 l 2
 1051 432 1066 438 1077 441 c 0
594 550 m 0
 598 554 614 553 624 547 c 0
 631 543 632 528 632 475 c 0
 632 438 633 408 634 408 c 0
 639 408 728 431 740 435 c 0
 748 439 773 441 795 440 c 0
 817 439 848 442 862 446 c 0
 897 456 928 456 937 446 c 0
 941 441 947 417 950 392 c 0
 954 367 957 346 957 346 c 0
 958 345 968 347 980 349 c 0
 999 354 1003 353 1011 340 c 0
 1018 329 1019 318 1017 296 c 0
 1012 260 1001 245 977 248 c 2
 960 250 l 1
 963 217 l 2
 965 199 968 177 970 169 c 0
 973 152 960 137 947 143 c 0
 942 144 927 140 914 134 c 0
 891 123 806 110 796 116 c 0
 792 118 791 117 789 96 c 0
 786 70 769 32 751 16 c 0
 730 -4 685 -9 658 6 c 0
 635 19 621 52 625 83 c 0
 628 102 627 106 619 103 c 0
 614 101 592 98 569 96 c 0
 492 91 476 89 458 86 c 0
 437 81 439 83 418 41 c 0
 404 12 395 2 377 -8 c 0
 364 -14 350 -19 346 -19 c 0
 342 -18 335 -17 329 -17 c 0
 311 -15 287 11 275 43 c 2
 263 75 l 1
 221 67 l 2
 164 56 128 57 118 69 c 0
 114 74 109 95 108 117 c 0
 105 171 104 172 85 152 c 0
 64 131 57 130 49 147 c 0
 39 164 38 258 47 267 c 0
 51 271 65 274 78 274 c 2
 102 274 l 1
 100 318 l 2
 98 350 100 364 106 368 c 0
 111 373 148 376 211 377 c 0
 264 379 310 382 312 384 c 0
 315 387 313 403 309 420 c 0
 297 462 291 505 297 509 c 0
 300 510 321 512 344 513 c 0
 368 513 402 519 425 527 c 0
 452 536 486 542 529 544 c 0
 563 546 593 549 594 550 c 0
597 458 m 2
 601 518 l 1
 582 517 l 2
 530 515 469 506 434 495 c 0
 411 487 380 482 361 482 c 0
 342 482 328 481 328 479 c 0
 328 476 331 459 335 441 c 0
 340 423 342 407 340 405 c 0
 339 403 340 398 343 394 c 0
 352 384 357 359 352 353 c 0
 350 349 303 346 241 345 c 0
 182 344 132 341 130 338 c 0
 129 335 128 319 129 302 c 0
 130 285 130 257 130 239 c 0
 129 222 132 181 137 148 c 2
 144 89 l 1
 162 92 l 2
 253 102 267 107 284 135 c 0
 301 162 340 188 355 183 c 0
 399 169 421 155 426 139 c 0
 430 129 432 117 432 111 c 0
 432 103 435 101 443 105 c 0
 471 119 494 123 617 131 c 0
 631 132 641 138 656 155 c 0
 667 167 676 180 676 182 c 0
 676 184 685 190 697 196 c 0
 732 212 764 200 783 162 c 0
 789 150 793 149 839 151 c 0
 896 153 940 169 935 185 c 0
 933 195 930 220 922 332 c 0
 921 356 918 386 916 398 c 2
 913 420 l 1
 886 417 l 2
 871 415 832 411 798 408 c 0
 764 406 729 400 720 396 c 0
 710 392 686 385 667 380 c 0
 600 364 601 364 597 382 c 0
 595 390 595 425 597 458 c 2
994 304 m 0
 992 320 969 330 964 317 c 0
 958 302 960 282 969 275 c 0
 979 266 997 286 994 304 c 0
87 193 m 0
 93 200 95 210 94 225 c 0
 92 242 91 245 87 238 c 0
 85 233 79 230 74 231 c 0
 65 235 63 207 72 193 c 0
 77 185 79 185 87 193 c 0
749 157 m 0
 734 174 720 176 700 162 c 0
 662 136 645 62 670 36 c 0
 688 18 717 21 738 44 c 0
 748 54 758 70 762 80 c 0
 769 102 762 143 749 157 c 0
359 142 m 0
 356 149 350 156 344 157 c 0
 334 159 310 130 310 114 c 0
 310 108 307 95 304 85 c 0
 298 69 299 63 311 41 c 0
 323 19 327 16 345 14 c 0
 375 12 391 28 398 70 c 0
 402 88 403 111 401 120 c 0
 397 134 395 136 381 133 c 0
 368 130 364 132 359 142 c 0
EndSplineSet
EndChar
StartChar: uniF006
Encoding: 198 61446 198
Width: 840
Flags: HW
Fore
381 263 m 0
 425 279 459 274 446 254 c 0
 442 249 380 223 360 219 c 0
 357 218 348 216 342 214 c 0
 330 210 329 212 329 226 c 0
 329 234 330 240 332 238 c 0
 334 236 339 238 342 243 c 0
 346 248 363 257 381 263 c 0
143 530 m 0
 144 536 146 541 149 541 c 0
 158 541 165 525 169 498 c 0
 173 464 173 464 194 462 c 0
 226 460 279 453 283 450 c 0
 286 449 312 445 342 442 c 0
 378 438 397 434 402 428 c 0
 408 419 421 418 427 425 c 0
 428 427 449 437 473 447 c 0
 497 458 522 469 528 473 c 0
 577 500 588 501 611 476 c 2
 628 458 l 1
 635 492 l 2
 644 540 645 542 659 540 c 0
 671 538 672 535 671 507 c 0
 670 490 667 472 663 468 c 0
 659 463 659 460 664 457 c 0
 667 455 672 454 674 456 c 0
 681 464 698 447 698 432 c 0
 698 409 667 368 649 367 c 0
 645 367 638 349 633 328 c 0
 623 287 594 212 564 149 c 0
 556 132 497 64 481 53 c 0
 470 45 412 40 390 45 c 0
 385 46 364 58 344 71 c 0
 302 97 270 142 213 249 c 0
 196 280 180 307 177 308 c 0
 175 310 172 314 172 317 c 0
 172 321 162 324 146 324 c 0
 116 325 94 341 88 368 c 0
 82 399 106 424 140 420 c 0
 149 419 149 421 145 441 c 0
 141 459 141 494 143 530 c 0
663 412 m 0
 667 420 670 427 668 428 c 0
 664 433 651 414 654 406 c 0
 655 402 659 404 663 412 c 0
149 388 m 0
 141 397 123 398 117 390 c 0
 112 381 126 350 135 350 c 0
 139 350 147 348 153 346 c 0
 161 343 162 345 159 361 c 0
 157 372 152 384 149 388 c 0
219 352 m 0
 213 359 203 371 196 379 c 2
 185 393 l 1
 189 372 l 2
 195 346 267 204 288 176 c 0
 296 165 309 147 316 134 c 0
 325 120 342 106 368 91 c 0
 433 55 466 65 516 136 c 0
 553 190 578 246 594 315 c 0
 596 326 600 343 603 353 c 0
 607 369 606 369 576 340 c 0
 539 305 526 298 497 296 c 0
 481 296 470 300 453 312 c 0
 429 331 404 367 404 383 c 0
 404 390 400 387 392 374 c 0
 369 337 334 315 294 315 c 0
 276 315 234 335 219 352 c 0
207 635 m 0
 218 636 234 636 242 635 c 0
 250 634 269 632 285 631 c 0
 340 626 409 600 409 584 c 0
 409 572 397 567 390 576 c 0
 386 581 379 583 373 582 c 0
 367 581 350 585 335 591 c 0
 314 599 294 601 242 600 c 0
 205 600 164 596 149 593 c 0
 135 589 117 585 109 583 c 0
 101 582 83 576 70 571 c 0
 42 561 31 565 35 584 c 0
 36 592 47 598 71 605 c 0
 125 619 185 633 207 635 c 0
625 671 m 0
 719 696 779 697 779 673 c 0
 779 660 769 656 740 660 c 0
 723 662 696 658 648 644 c 0
 555 619 509 599 483 574 c 0
 471 562 458 552 454 552 c 0
 450 552 441 548 434 543 c 0
 423 536 422 536 419 543 c 0
 417 548 418 552 421 552 c 0
 424 552 443 569 463 589 c 0
 508 633 533 646 625 671 c 0
179 726 m 0
 204 730 273 726 308 719 c 0
 345 712 407 683 411 671 c 0
 416 660 389 661 359 673 c 0
 318 689 251 698 210 694 c 0
 182 692 173 693 167 699 c 0
 157 711 163 724 179 726 c 0
574 749 m 0
 619 758 640 759 652 751 c 0
 665 743 645 732 593 720 c 0
 563 713 519 699 493 688 c 0
 467 677 444 668 442 668 c 0
 440 668 438 673 438 679 c 0
 438 701 500 732 574 749 c 0
253 812 m 0
 309 819 332 819 349 812 c 0
 364 807 369 790 356 789 c 0
 352 789 327 787 300 786 c 0
 272 785 241 781 229 777 c 0
 205 769 190 773 190 786 c 0
 190 799 209 807 253 812 c 0
544 814 m 0
 571 823 656 822 666 812 c 0
 678 800 659 795 590 791 c 0
 528 788 519 788 519 796 c 0
 519 802 529 809 544 814 c 0
EndSplineSet
EndChar
StartChar: uniF007
Encoding: 199 61447 199
Width: 685
Flags: HW
Fore
475 331 m 0
 489 339 500 333 500 317 c 0
 500 309 491 279 480 250 c 0
 469 221 459 194 459 190 c 0
 459 187 447 164 431 140 c 0
 401 94 372 73 341 73 c 0
 323 73 291 105 278 136 c 0
 247 208 227 292 239 292 c 0
 253 292 269 268 278 237 c 0
 299 155 324 108 346 108 c 0
 363 108 406 156 423 194 c 0
 439 230 465 307 465 318 c 0
 465 322 470 328 475 331 c 0
198 597 m 0
 216 604 221 603 238 590 c 0
 255 576 281 526 281 506 c 0
 281 500 285 484 290 473 c 0
 301 447 298 435 279 435 c 0
 267 435 263 440 258 457 c 0
 255 469 252 482 252 487 c 0
 252 514 223 568 209 568 c 0
 198 568 173 541 142 497 c 0
 129 479 117 464 116 464 c 0
 115 464 109 467 102 470 c 0
 92 476 92 477 106 503 c 0
 122 532 178 589 198 597 c 0
471 605 m 0
 475 610 483 614 489 614 c 0
 506 614 544 572 549 549 c 0
 551 539 558 515 564 496 c 0
 578 450 578 441 561 441 c 0
 548 441 545 445 537 475 c 0
 523 524 504 569 493 575 c 0
 485 580 481 578 470 565 c 0
 463 556 452 543 444 535 c 0
 436 528 427 513 422 502 c 0
 412 477 403 472 393 483 c 0
 386 489 385 495 390 507 c 0
 399 530 448 597 457 597 c 0
 461 597 467 601 471 605 c 0
EndSplineSet
EndChar
StartChar: uni0E10.descless
Encoding: 200 63232 200
Width: 606
Flags: HW
Fore
492 560 m 0
 503 595 512 607 524 605 c 0
 547 601 549 574 530 508 c 0
 510 435 490 424 448 465 c 0
 432 480 407 495 389 498 c 0
 353 505 333 496 354 482 c 0
 382 462 399 412 414 309 c 0
 430 201 434 62 423 10 c 0
 419 -13 412 -19 394 -19 c 0
 367 -19 365 -11 357 104 c 0
 349 217 342 232 307 199 c 0
 295 187 275 182 240 182 c 0
 146 182 124 239 191 306 c 0
 233 348 282 361 322 341 c 0
 338 332 352 328 352 330 c 0
 352 333 347 356 341 383 c 0
 329 438 317 441 267 405 c 0
 237 383 233 382 220 395 c 0
 196 417 212 456 262 501 c 0
 330 562 405 571 460 525 c 0
 474 514 477 517 492 560 c 0
311 293 m 0
 288 309 286 309 264 300 c 0
 229 286 197 253 203 239 c 0
 216 206 332 231 332 267 c 0
 332 273 323 285 311 293 c 0
EndSplineSet
EndChar
StartChar: uni0E4A.low_left
Encoding: 207 63239 207
Width: 0
Flags: HW
Fore
-192 853 m 0
 -191 857 -185 859 -177 858 c 2
 -163 857 l 1
 -163 810 l 2
 -164 770 -165 759 -176 738 c 0
 -183 724 -195 710 -205 704 c 0
 -214 699 -233 683 -247 670 c 0
 -266 653 -277 647 -285 648 c 0
 -299 650 -302 668 -291 683 c 0
 -281 698 -282 709 -294 727 c 0
 -304 741 -305 741 -314 733 c 0
 -319 729 -323 721 -323 717 c 0
 -323 705 -333 697 -346 697 c 0
 -354 697 -359 703 -368 720 c 0
 -385 756 -392 758 -417 738 c 0
 -438 720 -436 711 -412 711 c 0
 -389 711 -367 699 -367 686 c 0
 -367 681 -365 676 -362 674 c 0
 -356 670 -357 636 -363 629 c 0
 -373 619 -421 622 -435 633 c 0
 -452 646 -466 683 -466 715 c 0
 -466 747 -450 771 -422 782 c 0
 -391 794 -373 793 -355 775 c 0
 -341 762 -339 761 -333 768 c 0
 -329 773 -319 775 -304 775 c 0
 -283 775 -280 774 -267 757 c 0
 -259 747 -251 735 -249 731 c 0
 -245 725 -243 725 -232 731 c 0
 -214 741 -199 775 -196 814 c 0
 -195 832 -193 850 -192 853 c 0
-402 664 m 0
 -402 668 -405 672 -409 674 c 0
 -413 675 -417 674 -417 672 c 0
 -417 670 -413 665 -409 662 c 0
 -403 657 -402 658 -402 664 c 0
EndSplineSet
EndChar
StartChar: uni0E4A.low
Encoding: 212 63244 212
Width: 0
Flags: HW
AnchorPoint: "AboveBase" 0 560 mark 0
Fore
-36 846 m 0
 -35 849 -28 851 -20 850 c 2
 -7 849 l 1
 -7 802 l 2
 -7 762 -9 752 -20 731 c 0
 -27 716 -39 702 -48 696 c 0
 -58 691 -77 676 -91 663 c 0
 -110 646 -120 639 -128 641 c 0
 -143 643 -146 660 -135 675 c 0
 -125 690 -126 702 -138 719 c 0
 -148 733 -148 734 -158 725 c 0
 -162 721 -167 713 -167 709 c 0
 -167 698 -177 689 -190 689 c 0
 -198 689 -203 695 -212 713 c 0
 -229 748 -236 751 -260 730 c 0
 -282 712 -280 704 -255 704 c 0
 -232 704 -211 692 -211 679 c 0
 -211 674 -209 669 -206 667 c 0
 -200 663 -200 628 -207 621 c 0
 -217 611 -264 614 -279 625 c 0
 -296 639 -310 675 -310 708 c 0
 -310 740 -294 763 -265 775 c 0
 -235 787 -217 785 -199 768 c 0
 -185 754 -182 754 -177 760 c 0
 -173 765 -162 768 -148 768 c 0
 -127 768 -123 766 -111 749 c 0
 -103 739 -95 728 -93 724 c 0
 -89 718 -87 718 -76 724 c 0
 -58 733 -43 768 -40 806 c 0
 -39 824 -37 842 -36 846 c 0
-246 656 m 0
 -246 660 -249 665 -253 666 c 0
 -257 668 -260 667 -260 665 c 0
 -260 662 -257 658 -253 655 c 0
 -247 650 -246 650 -246 656 c 0
EndSplineSet
Substitution: 0 65534 'amni' uni0E4D
EndChar
StartChar: uni0E0D.descless
Encoding: 215 63247 215
Width: 821
Flags: HW
Fore
644 536 m 0
 666 563 699 559 708 528 c 0
 712 514 717 463 719 414 c 0
 721 364 726 290 731 247 c 0
 745 115 737 96 639 34 c 0
 483 -67 474 -55 442 313 c 0
 435 383 430 399 401 428 c 0
 361 468 342 466 232 410 c 0
 182 384 162 368 165 355 c 0
 168 345 176 290 184 234 c 0
 200 120 209 109 264 131 c 0
 284 140 311 143 327 139 c 0
 350 133 356 125 356 96 c 0
 356 57 302 -9 269 -9 c 0
 257 -9 231 -15 211 -23 c 0
 182 -34 166 -34 144 -24 c 0
 109 -7 106 15 139 23 c 0
 159 29 162 35 155 66 c 0
 151 86 145 121 142 143 c 0
 131 223 100 331 84 344 c 0
 59 366 67 395 106 418 c 0
 232 493 282 512 353 513 c 0
 473 514 500 465 518 215 c 0
 525 128 532 54 535 51 c 0
 538 48 570 67 606 93 c 0
 669 138 673 144 671 187 c 0
 670 242 659 336 642 439 c 0
 632 501 632 522 644 536 c 0
294 64 m 0
 298 70 299 76 296 78 c 0
 290 84 241 58 241 48 c 0
 241 37 286 50 294 64 c 0
EndSplineSet
EndChar
StartChar: uni0E31.left
Encoding: 216 63248 216
Width: 0
Flags: HW
Fore
-396 716 m 4
 -427 702 -437 624 -389 641 c 4
 -346 658 -352 736 -396 716 c 4
-329 638 m 5
 -277 665 -233 761 -185 775 c 4
 -135 790 -179 713 -188 702 c 4
 -231 645 -413 491 -452 638 c 4
 -479 732 -346 822 -319 709 c 4
 -314 685 -324 660 -329 638 c 5
EndSplineSet
EndChar
StartChar: uni0E4D.left
Encoding: 217 63249 217
Width: 0
Flags: HW
Fore
-284 709 m 1
 -295 665 -281 650 -236 653 c 1
 -284 709 l 1
-302 750 m 0
 -195 793 -137 644 -246 597 c 0
 -344 556 -389 714 -302 750 c 0
EndSplineSet
EndChar
StartChar: uni0E47.left
Encoding: 218 63250 218
Width: 0
Flags: HW
Fore
-393 747 m 5
 -354 760 -321 786 -301 827 c 5
 -345 819 -378 794 -393 747 c 5
-281 704 m 5
 -292 697 -287 687 -281 675 c 5
 -275 675 l 5
 -262 707 -281 704 -281 704 c 5
-203 834 m 5
 -198 856 -158 998 -129 976 c 4
 -113 966 -126 940 -131 927 c 4
 -142 892 -158 811 -192 794 c 4
 -215 781 -246 811 -268 819 c 5
 -262 798 l 5
 -314 740 l 5
 -297 745 -275 755 -258 742 c 4
 -232 721 -243 653 -281 660 c 4
 -309 665 -326 707 -354 718 c 5
 -379 639 l 5
 -452 662 -428 776 -391 825 c 4
 -345 882 -256 869 -203 834 c 5
EndSplineSet
EndChar
StartChar: uni0E4A.left
Encoding: 221 63253 221
Width: 0
Flags: HW
Fore
-190 1014 m 0
 -189 1018 -182 1020 -174 1019 c 2
 -161 1018 l 1
 -161 971 l 2
 -161 931 -163 921 -173 900 c 0
 -181 885 -192 871 -202 865 c 0
 -211 860 -231 845 -245 832 c 0
 -263 814 -274 808 -282 809 c 0
 -296 812 -300 829 -289 844 c 0
 -279 859 -279 871 -291 888 c 0
 -302 902 -302 902 -311 894 c 0
 -316 890 -321 882 -321 878 c 0
 -321 867 -330 858 -343 858 c 0
 -351 858 -357 864 -365 882 c 0
 -382 917 -390 920 -414 899 c 0
 -435 881 -434 873 -409 873 c 0
 -386 873 -365 861 -365 848 c 0
 -365 843 -363 837 -360 836 c 0
 -353 832 -354 797 -361 790 c 0
 -371 780 -418 783 -433 794 c 0
 -450 807 -463 844 -463 877 c 0
 -463 909 -448 932 -419 944 c 0
 -389 956 -371 954 -353 937 c 0
 -339 923 -336 922 -331 929 c 0
 -327 934 -316 937 -301 937 c 0
 -280 937 -277 935 -264 918 c 0
 -257 908 -249 897 -247 893 c 0
 -243 887 -240 887 -230 892 c 0
 -211 902 -197 937 -194 975 c 0
 -193 993 -191 1011 -190 1014 c 0
-399 825 m 0
 -399 829 -403 834 -407 835 c 0
 -411 836 -414 836 -414 834 c 0
 -414 831 -411 827 -407 823 c 0
 -401 819 -399 819 -399 825 c 0
EndSplineSet
EndChar
StartChar: uni0E4D.high
Encoding: 227 63262 227
Width: 0
Flags: HW
TeX: 0 0 0 0
AnchorPoint: "AboveMark" -96 780 mark 0
Fore
-161 943 m 0
 -126 979 -71 976 -39 938 c 0
 0 891 -8 852 -64 817 c 0
 -82 806 -105 798 -117 798 c 0
 -177 798 -207 897 -161 943 c 0
-72 880 m 0
 -76 897 -112 922 -121 914 c 0
 -131 903 -127 865 -115 861 c 0
 -94 854 -69 865 -72 880 c 0
EndSplineSet
EndChar
